<svg width="490" height="490" viewBox="0 0 490 490" fill="none" xmlns="http://www.w3.org/2000/svg">
<path d="M90.7869 310.797L76.2437 311.072L68.8839 311.189C66.4241 311.189 63.9839 311.189 61.4849 311.189H61.0537V310.748V298.371V297.92H61.5437L76.1947 297.989C81.0947 297.989 85.9947 298.096 90.8947 298.145H91.1593V298.41C91.1593 300.507 91.0711 302.595 91.0319 304.662L90.7869 310.797ZM90.7869 310.797L90.6399 304.555C90.6399 302.497 90.5321 300.448 90.5125 298.42L90.7869 298.684C85.8869 298.743 80.9869 298.841 76.0869 298.851L61.4849 298.9L61.9749 298.41L61.9259 310.787L61.4849 310.356C63.9055 310.356 66.3163 310.356 68.7369 310.405L76.0183 310.523L90.7869 310.797Z" fill="#86EFAC"/>
<path d="M74.4795 326.409L59.9461 326.683L52.5765 326.801C50.1167 326.801 47.6765 326.801 45.1775 326.801H44.7463V326.36L44.6875 313.982V313.492H45.1775L59.7795 313.6C64.6795 313.6 69.5795 313.718 74.4305 313.767H74.6951V314.031C74.6951 316.128 74.6167 318.216 74.5677 320.284L74.4795 326.409ZM74.4795 326.409L74.3423 320.166C74.3423 318.108 74.2345 316.06 74.2149 314.031L74.4795 314.296C69.5795 314.355 64.6795 314.453 59.8285 314.462L45.1775 314.521L45.6675 314.031L45.6185 326.409L45.1775 325.977C47.5981 325.977 50.0089 325.977 52.4295 326.026L59.7207 326.144L74.4795 326.409Z" fill="#86EFAC"/>
<path d="M74.4796 58.5158L59.907 58.8L52.5374 58.9078C50.0776 58.9078 47.6374 58.9078 45.1384 58.9666H44.7072V58.5256L44.6484 46.1482V45.6582H45.1384L59.7796 45.7072C64.6796 45.7072 69.5796 45.8248 74.4306 45.8738H74.6952V46.1384C74.6952 48.2356 74.6168 50.323 74.5678 52.3908L74.4796 58.5158ZM74.4796 58.5158L74.3424 52.2732C74.3424 50.2152 74.2346 48.167 74.215 46.1384L74.4796 46.403C69.5796 46.403 64.6796 46.5598 59.8286 46.5696L45.1776 46.6284L45.6676 46.1384L45.6186 58.5158L45.1776 58.0846C47.5982 58.0846 50.009 58.0846 52.4296 58.0846L59.7208 58.2022L74.4796 58.5158Z" fill="#86EFAC"/>
<path d="M444.861 58.5158L430.318 58.8L422.958 58.9078C420.498 58.9078 418.058 58.9078 415.559 58.9666H415.128V58.5256V46.1482V45.6582H415.618L430.269 45.717C435.169 45.717 440.069 45.8346 444.92 45.8836H445.185V46.1482C445.185 48.2454 445.096 50.3328 445.057 52.4006L444.861 58.5158ZM444.861 58.5158L444.714 52.2732C444.714 50.2152 444.606 48.167 444.587 46.1384L444.861 46.403C439.961 46.403 435.061 46.5598 430.21 46.5696L415.52 46.6284L416.01 46.1384L415.961 58.5158L415.52 58.0846C417.941 58.0846 420.351 58.0846 422.772 58.0846L430.053 58.2022L444.861 58.5158Z" fill="#86EFAC"/>
<path d="M428.515 74.1272L413.981 74.4016L406.612 74.5094C404.152 74.5094 401.712 74.5094 399.213 74.5682H398.781V74.1272L398.723 61.74V61.25H399.213L413.864 61.3088C418.764 61.3088 423.664 61.4264 428.515 61.4754H428.789V61.74C428.789 63.8372 428.711 65.9246 428.662 67.9924L428.515 74.1272ZM428.515 74.1272L428.377 67.8846C428.328 65.8168 428.27 63.7784 428.25 61.7498L428.515 62.0144C423.615 62.0144 418.715 62.1712 413.864 62.181L399.213 62.2398L399.703 61.7498L399.654 74.1272L399.213 73.696C401.633 73.696 404.044 73.696 406.465 73.696L413.756 73.8136L428.515 74.1272Z" fill="#86EFAC"/>
<path d="M353.476 218.971L338.942 219.246L331.573 219.353C329.113 219.353 326.673 219.353 324.183 219.353H323.742V218.912L323.693 206.525V206.035H324.193L338.834 206.104C343.734 206.104 348.634 206.212 353.485 206.261H353.779V206.525C353.779 208.622 353.701 210.71 353.652 212.778L353.476 218.971ZM353.476 218.971L353.338 212.719C353.289 210.661 353.231 208.622 353.211 206.584L353.476 206.858C348.576 206.858 343.676 207.015 338.825 207.015L324.183 207.074L324.664 206.584L324.615 218.971L324.183 218.53C326.594 218.53 329.005 218.53 331.426 218.589L338.717 218.697L353.476 218.971Z" fill="#86EFAC"/>
<path d="M337.12 234.583L322.587 234.857L315.227 234.965C312.767 235.014 310.327 234.965 307.828 235.014H307.387V234.573L307.338 222.186V221.696H307.828L322.479 221.764C327.379 221.764 332.279 221.872 337.12 221.921H337.395V222.186C337.395 224.283 337.306 226.37 337.267 228.438L337.12 234.583ZM337.12 234.583L336.983 228.33C336.983 226.272 336.875 224.234 336.856 222.195L337.12 222.47C332.22 222.519 327.32 222.627 322.479 222.627L307.828 222.685L308.318 222.195L308.259 234.583L307.828 234.142C310.239 234.142 312.659 234.142 315.08 234.2L322.361 234.308L337.12 234.583Z" fill="#86EFAC"/>
<path d="M320.852 218.971L306.318 219.246L298.958 219.353C296.489 219.353 294.058 219.353 291.559 219.353H291.118V218.912L291.06 206.584V206.094H291.559L306.201 206.163C311.101 206.163 316.001 206.27 320.852 206.319H321.126V206.584C321.126 208.681 321.038 210.769 320.989 212.836L320.852 218.971ZM320.852 218.971L320.714 212.719C320.714 210.661 320.607 208.622 320.587 206.584L320.852 206.858C315.952 206.858 311.052 207.015 306.201 207.015L291.559 207.074L292.049 206.584L292.04 218.971L291.608 218.53C294.019 218.53 296.43 218.53 298.86 218.589L306.142 218.697L320.852 218.971Z" fill="#86EFAC"/>
<path d="M444.861 326.409L430.318 326.683L422.958 326.801C420.498 326.801 418.058 326.801 415.559 326.801H415.128V326.36V313.982V313.492H415.618L430.22 313.6C435.12 313.6 440.02 313.718 444.871 313.767H445.135V314.031C445.135 316.128 445.047 318.216 445.008 320.284L444.861 326.409ZM444.861 326.409L444.714 320.166C444.714 318.108 444.606 316.06 444.587 314.031L444.861 314.296C439.961 314.355 435.061 314.453 430.21 314.462L415.559 314.521L416.049 314.031L416 326.409L415.559 325.977C417.98 325.977 420.391 325.977 422.811 326.026L430.092 326.144L444.861 326.409Z" fill="#86EFAC"/>
<path d="M195.931 95.3344L181.387 95.6088L174.028 95.7166C171.568 95.7166 169.128 95.7166 166.629 95.7754H166.197V95.3344L166.148 82.957V82.467H166.638L181.289 82.5258C186.189 82.5258 191.089 82.6336 195.989 82.6924H196.254V82.957C196.254 85.0542 196.166 87.1416 196.127 89.1996L195.931 95.3344ZM195.931 95.3344L195.784 89.0918C195.784 87.024 195.676 84.9856 195.656 82.957L195.931 83.2216C191.031 83.2216 186.131 83.3784 181.231 83.3784L166.599 83.447L167.089 82.957L167.04 95.3344L166.599 94.9032C169.02 94.9032 171.431 94.9032 173.851 94.9032L181.133 95.011L195.931 95.3344Z" fill="#86EFAC"/>
<path d="M42.5029 394.283L93.1297 394.038L143.757 393.96L245 393.793L346.244 393.95L396.871 394.038L447.498 394.283L396.871 394.519L346.244 394.607L245 394.764L143.757 394.607L93.1297 394.519L42.5029 394.283Z" fill="#263238"/>
<path d="M175.342 454.152C237.639 454.152 288.14 446.166 288.14 436.316C288.14 426.465 237.639 418.48 175.342 418.48C113.045 418.48 62.5439 426.465 62.5439 436.316C62.5439 446.166 113.045 454.152 175.342 454.152Z" fill="#22C55E"/>
<path d="M415.069 394.283H266.031C266.031 374.115 258.426 271.695 340.511 271.695C422.595 271.695 415.069 374.115 415.069 394.283Z" fill="#C7C7C7"/>
<path d="M368.706 276.674C366.256 276.458 363.698 276.34 361.052 276.34C282.054 276.34 289.365 374.879 289.365 394.283H266.021C266.021 374.115 258.426 271.695 340.501 271.695C350.134 271.537 359.709 273.227 368.706 276.674Z" fill="#A6A6A6"/>
<path d="M121.52 233.122V200.116H56.8398V173.764L131.045 78.5176H151.194V173.578H170.686V200.116H151.194V233.122H121.52ZM86.524 173.538H124.842V123.48L86.524 173.538Z" fill="#94A3B8"/>
<path d="M383.984 233.122V200.116H319.304V173.764L393.499 78.5176H413.658V173.578H433.16V200.116H413.668V233.122H383.984ZM348.988 173.538H387.306V123.48L348.988 173.538Z" fill="#94A3B8"/>
<path d="M209.083 88.5626C218.226 83.5646 226.389 85.309 231.936 85.2306C237.483 85.1522 248.743 77.4788 255.211 78.6352C261.679 79.7916 293.392 95.06 298.41 101.92C303.427 108.78 311.777 126.155 312.561 129.664C313.345 133.172 311.287 152.988 312.247 157.525C313.208 162.063 310.091 169.452 308.151 172.627C306.21 175.802 301.536 187.69 300.379 189.855C299.223 192.021 269.5 215.512 259.092 216.992C248.684 218.471 244.637 215.522 243.5 214.875C242.363 214.228 245.793 206.829 240.394 205.075C234.994 203.321 232.975 202.439 232.975 202.439C232.975 202.439 231.446 197.901 228.604 196.833C225.762 195.765 221.744 198.793 221.744 198.793C221.744 198.793 220.529 199.469 218.167 198.381C215.805 197.294 212.493 198.754 212.493 198.754C211.689 197.286 210.369 196.169 208.789 195.618C206.035 194.638 202.811 200.459 202.811 200.459C202.811 200.459 184.808 185.406 183.818 181.712C182.828 178.017 182.838 173.107 181.456 168.531C180.075 163.954 177.262 161.808 177.213 154.125C177.164 146.441 178.801 130.213 180.819 126.361C182.838 122.51 184.602 117.1 185.866 115.405C187.131 113.709 199.626 93.7272 209.083 88.5626Z" fill="#22C55E"/>
<g opacity="0.3">
<path opacity="0.3" d="M209.083 88.5626C218.226 83.5646 226.389 85.309 231.936 85.2306C237.483 85.1522 248.743 77.4788 255.211 78.6352C261.679 79.7916 293.392 95.06 298.41 101.92C303.427 108.78 311.777 126.155 312.561 129.664C313.345 133.172 311.287 152.988 312.247 157.525C313.208 162.063 310.091 169.452 308.151 172.627C306.21 175.802 301.536 187.69 300.379 189.855C299.223 192.021 269.5 215.512 259.092 216.992C248.684 218.471 244.637 215.522 243.5 214.875C242.363 214.228 245.793 206.829 240.394 205.075C234.994 203.321 232.975 202.439 232.975 202.439C232.975 202.439 231.446 197.901 228.604 196.833C225.762 195.765 221.744 198.793 221.744 198.793C221.744 198.793 220.529 199.469 218.167 198.381C215.805 197.294 212.493 198.754 212.493 198.754C211.689 197.286 210.369 196.169 208.789 195.618C206.035 194.638 202.811 200.459 202.811 200.459C202.811 200.459 184.808 185.406 183.818 181.712C182.828 178.017 182.838 173.107 181.456 168.531C180.075 163.954 177.262 161.808 177.213 154.125C177.164 146.441 178.801 130.213 180.819 126.361C182.838 122.51 184.602 117.1 185.866 115.405C187.131 113.709 199.626 93.7272 209.083 88.5626Z" fill="white"/>
</g>
<path d="M270.48 187.797C271.989 185.955 275.841 185.651 276.292 187.631C276.742 189.61 275.713 191.894 273.097 191.835C270.48 191.776 269.892 188.542 270.48 187.797Z" fill="#22C55E"/>
<path opacity="0.1" d="M272.803 191.806C270.46 191.512 269.921 188.513 270.509 187.797C270.968 187.303 271.527 186.911 272.149 186.65C272.771 186.388 273.441 186.261 274.116 186.278C273.44 186.523 271.813 187.356 271.568 188.366C271.323 189.375 271.244 191.1 272.803 191.806Z" fill="black"/>
<path d="M188.16 148.098C190.747 143.031 199.244 145.706 199.998 150.273C200.753 154.84 196.206 158.113 192.942 157.878C189.679 157.643 185.347 153.644 188.16 148.098Z" fill="#22C55E"/>
<path d="M282.348 154.507C278.281 153.233 268.059 155.849 265.982 164.64C264.796 169.658 271.235 180.124 277.83 180.692C284.425 181.261 289.306 174.411 290.776 168.795C292.246 163.18 288.581 156.457 282.348 154.507Z" fill="#22C55E"/>
<path opacity="0.1" d="M279.408 180.683C278.883 180.737 278.355 180.737 277.83 180.683C271.235 180.114 264.796 169.648 265.982 164.63C268.05 155.81 278.281 153.213 282.348 154.497C283.105 154.748 283.834 155.077 284.523 155.477C279.251 156.457 272.009 161.739 271.411 165.502C270.774 169.54 273.577 179.761 279.408 180.683Z" fill="black"/>
<path d="M250.88 88.3176C250.546 91.679 246.96 93.9624 244.02 96.2458C241.08 98.5292 235.2 97.5492 231.093 95.599C226.987 93.6488 224.576 85.603 224.684 85.0052C227.389 85.0052 229.819 85.26 231.887 85.2306C235.699 85.2306 242.236 81.5164 248.047 79.625C249.253 81.8888 251.134 85.9656 250.88 88.3176Z" fill="#22C55E"/>
<path opacity="0.1" d="M241.765 97.2944C238.649 98.0588 234.357 97.118 231.132 95.599C227.007 93.639 224.615 85.603 224.723 85.0052C226.879 85.0052 228.859 85.1718 230.603 85.2208C231.113 87.318 232.495 92.4532 234.033 93.8252C236.023 95.5696 239.698 97.216 241.765 97.2944Z" fill="black"/>
<path d="M284.033 116.885C286.767 114.925 291.746 116.885 292.079 120.726C292.412 124.568 287.404 126.773 284.033 124.166C283.456 123.75 282.987 123.203 282.663 122.57C282.339 121.937 282.17 121.236 282.17 120.525C282.17 119.814 282.339 119.113 282.663 118.48C282.987 117.847 283.456 117.3 284.033 116.885Z" fill="#22C55E"/>
<path opacity="0.1" d="M284.905 119.491C284.337 121.608 284.592 123.098 286.581 125.244C285.652 125.115 284.773 124.743 284.033 124.166C283.456 123.75 282.987 123.203 282.663 122.57C282.339 121.937 282.17 121.236 282.17 120.525C282.17 119.814 282.339 119.113 282.663 118.48C282.987 117.847 283.456 117.3 284.033 116.885C284.761 116.43 285.593 116.168 286.45 116.123C287.308 116.079 288.162 116.253 288.933 116.63C288.737 116.542 285.474 117.375 284.905 119.491Z" fill="black"/>
<path d="M242.618 206.486C242.01 205.828 241.244 205.336 240.394 205.055C234.984 203.281 232.975 202.419 232.975 202.419C232.975 202.419 231.446 197.882 228.604 196.813C225.762 195.745 221.744 198.773 221.744 198.773C222.401 193.197 224.782 190.933 228.8 188.817C232.818 186.7 239.884 187.66 242.06 193.099C243.608 196.902 243.04 203.056 242.618 206.486Z" fill="#22C55E"/>
<path opacity="0.1" d="M236.581 188.287C234.94 188.368 233.334 188.797 231.871 189.545C230.408 190.294 229.12 191.345 228.094 192.629C227.399 193.857 226.962 195.214 226.811 196.617C224.988 196.947 223.268 197.702 221.793 198.822C222.45 193.246 224.831 190.982 228.849 188.866C231.261 187.705 234.023 187.498 236.581 188.287Z" fill="black"/>
<path d="M213.895 112.876C206.79 116.796 201.978 127.704 202.243 131.34C202.507 134.975 204.928 140.797 208.064 143.57C215.12 149.813 229.036 146.951 232.417 143.57C235.798 140.189 239.6 129.801 238.395 124.705C236.386 116.189 221.157 108.888 213.895 112.876Z" fill="#22C55E"/>
<path opacity="0.1" d="M223.704 146.941C218.422 147.735 212.111 147.157 208.024 143.57C204.888 140.797 202.458 134.985 202.203 131.349C201.948 127.714 206.75 116.777 213.855 112.876C216.09 111.651 219.069 111.495 222.185 112.112C218.52 114.807 212.473 119.785 211.15 124.146C209.19 130.507 210.357 137.141 213.11 140.993C214.933 143.452 220.166 145.667 223.704 146.941Z" fill="black"/>
<path d="M198.45 158.633C197.11 159.539 195.52 160.005 193.902 159.965C190.09 159.711 185.033 155.065 188.316 148.558C188.917 147.433 189.853 146.524 190.995 145.956C192.137 145.389 193.427 145.192 194.686 145.393C198.126 145.697 201.615 148.029 202.134 151.096C202.343 152.577 202.103 154.086 201.447 155.429C200.79 156.772 199.746 157.888 198.45 158.633Z" fill="#22C55E"/>
<path opacity="0.1" d="M198.45 158.633C197.11 159.539 195.52 160.005 193.902 159.965C190.09 159.711 185.033 155.065 188.316 148.558C188.917 147.433 189.853 146.524 190.995 145.956C192.137 145.389 193.427 145.192 194.686 145.393C193.207 146.52 190.874 148.813 190.874 152.027C190.874 156.741 193.814 157.907 195.627 158.544C196.548 158.797 197.515 158.827 198.45 158.633Z" fill="black"/>
<path d="M277.937 129.174C277.594 129.415 277.177 129.528 276.759 129.492C276.341 129.457 275.949 129.275 275.652 128.979C275.355 128.683 275.171 128.292 275.134 127.874C275.097 127.456 275.208 127.038 275.448 126.694C275.596 126.418 275.827 126.194 276.108 126.053C276.388 125.913 276.706 125.863 277.016 125.91C277.43 125.923 277.829 126.066 278.157 126.32C278.484 126.573 278.723 126.924 278.839 127.322C278.892 127.685 278.834 128.056 278.673 128.386C278.512 128.717 278.256 128.991 277.937 129.174Z" fill="#22C55E"/>
<path opacity="0.1" d="M277.937 129.174C277.594 129.415 277.177 129.528 276.759 129.492C276.341 129.457 275.949 129.275 275.652 128.979C275.355 128.683 275.171 128.292 275.134 127.874C275.097 127.456 275.208 127.038 275.448 126.694C275.596 126.418 275.827 126.194 276.108 126.053C276.388 125.913 276.706 125.863 277.016 125.91C276.739 126.09 276.506 126.331 276.336 126.615C276.166 126.899 276.064 127.217 276.036 127.547C276.005 127.91 276.106 128.272 276.32 128.568C276.534 128.863 276.847 129.071 277.202 129.154C277.442 129.222 277.694 129.228 277.937 129.174Z" fill="black"/>
<path d="M198.783 167.815C201.213 166.678 205.29 168.227 204.78 170.461C204.271 172.696 202.134 174.528 199.488 173.205C196.842 171.882 197.793 168.286 198.783 167.815Z" fill="#22C55E"/>
<path opacity="0.1" d="M203.723 172.48C203.204 173.065 202.5 173.452 201.728 173.577C200.957 173.702 200.166 173.557 199.489 173.166C196.853 171.843 197.784 168.266 198.783 167.776C199.526 167.451 200.34 167.326 201.145 167.413C200.463 168.06 200.024 168.922 199.901 169.854C199.92 171.373 201.88 172.901 203.723 172.48Z" fill="black"/>
<path d="M212.14 239.826V244.02H197.44V223.146H211.856V227.38H202.262V231.437H210.504V235.357H202.262V239.796L212.14 239.826Z" fill="#94A3B8"/>
<path d="M215.09 244.02V223.146H224.498C225.438 223.137 226.368 223.349 227.212 223.763C228.029 224.162 228.764 224.71 229.378 225.38C229.979 226.047 230.46 226.813 230.799 227.644C231.137 228.455 231.314 229.324 231.319 230.202C231.322 230.834 231.24 231.464 231.074 232.074C230.923 232.662 230.7 233.228 230.407 233.759C230.114 234.288 229.748 234.773 229.319 235.2C228.898 235.621 228.42 235.981 227.898 236.268L232.485 244.03H227.046L223.047 237.297H219.911V244.02H215.09ZM219.911 233.083H224.321C224.613 233.078 224.899 233.002 225.155 232.862C225.411 232.723 225.63 232.523 225.791 232.28C226.223 231.675 226.44 230.944 226.409 230.202C226.445 229.451 226.193 228.715 225.703 228.144C225.517 227.916 225.284 227.73 225.021 227.598C224.757 227.466 224.469 227.392 224.174 227.38H219.911V233.083Z" fill="#94A3B8"/>
<path d="M234.788 244.02V223.146H244.186C245.13 223.137 246.063 223.349 246.911 223.763C247.728 224.162 248.462 224.71 249.076 225.38C249.678 226.047 250.158 226.813 250.497 227.644C250.833 228.455 251.006 229.324 251.007 230.202C251.008 230.833 250.932 231.461 250.782 232.074C250.619 232.659 250.393 233.224 250.105 233.759C249.814 234.284 249.452 234.766 249.027 235.19C248.606 235.611 248.128 235.971 247.606 236.258L252.183 244.02H246.754L242.755 237.287H239.61V244.02H234.788ZM239.61 233.083H244.02C244.311 233.078 244.598 233.002 244.854 232.862C245.11 232.722 245.328 232.522 245.49 232.28C245.914 231.672 246.127 230.942 246.097 230.202C246.137 229.452 245.888 228.716 245.401 228.144C245.214 227.915 244.98 227.728 244.714 227.596C244.449 227.464 244.159 227.391 243.863 227.38H239.61V233.083Z" fill="#94A3B8"/>
<path d="M263.62 244.236C262.159 244.254 260.711 243.943 259.387 243.324C258.153 242.748 257.045 241.936 256.123 240.933C255.221 239.938 254.51 238.785 254.026 237.532C253.531 236.285 253.275 234.955 253.271 233.612C253.271 232.251 253.537 230.902 254.055 229.643C255.078 227.111 257.041 225.074 259.534 223.959C260.846 223.371 262.27 223.074 263.709 223.087C265.173 223.07 266.623 223.381 267.952 223.999C269.185 224.584 270.294 225.402 271.215 226.409C272.113 227.41 272.82 228.566 273.303 229.82C273.783 231.071 274.029 232.4 274.028 233.74C274.032 235.101 273.769 236.449 273.254 237.709C272.749 238.958 272.014 240.102 271.088 241.08C270.15 242.061 269.032 242.853 267.795 243.412C266.481 243.989 265.055 244.27 263.62 244.236ZM258.191 233.652C258.191 234.445 258.307 235.234 258.534 235.994C258.758 236.722 259.113 237.403 259.583 238.003C260.061 238.626 260.679 239.129 261.387 239.469C262.095 239.81 262.874 239.979 263.66 239.963C264.497 239.98 265.326 239.788 266.07 239.404C266.732 239.047 267.31 238.552 267.766 237.954C268.21 237.341 268.542 236.654 268.746 235.925C268.972 235.175 269.087 234.396 269.089 233.612C269.092 232.821 268.97 232.033 268.726 231.28C268.501 230.565 268.142 229.9 267.668 229.32C267.201 228.743 266.616 228.272 265.953 227.938C265.232 227.563 264.433 227.364 263.62 227.36C262.787 227.339 261.961 227.528 261.219 227.909C260.557 228.258 259.977 228.742 259.514 229.33C259.047 229.932 258.698 230.617 258.485 231.349C258.275 232.098 258.176 232.874 258.191 233.652Z" fill="#94A3B8"/>
<path d="M276.82 244.02V223.146H286.228C287.172 223.137 288.105 223.349 288.953 223.763C289.767 224.162 290.498 224.711 291.109 225.38C291.716 226.044 292.201 226.811 292.54 227.644C292.875 228.455 293.048 229.324 293.049 230.202C293.051 230.833 292.972 231.462 292.814 232.074C292.66 232.662 292.433 233.228 292.138 233.759C291.564 234.817 290.696 235.685 289.639 236.258L294.225 244.02H288.786L284.788 237.287H281.642V244.02H276.82ZM281.642 233.083H286.052C286.344 233.078 286.63 233.002 286.886 232.862C287.142 232.722 287.36 232.522 287.522 232.28C287.954 231.675 288.171 230.944 288.139 230.202C288.176 229.451 287.923 228.715 287.434 228.144C287.248 227.915 287.016 227.728 286.752 227.596C286.488 227.465 286.199 227.391 285.905 227.38H281.642V233.083Z" fill="#94A3B8"/>
<path d="M67.9826 73.7352C66.5208 73.7539 65.0736 73.4424 63.749 72.8238C62.5149 72.2441 61.4063 71.4284 60.4856 70.4228C59.5836 69.4314 58.8726 68.2818 58.3884 67.032C57.8932 65.7842 57.6372 64.4544 57.6338 63.112C57.6396 61.767 57.9058 60.4358 58.4178 59.192C59.4351 56.6547 61.3998 54.6127 63.896 53.4982C65.2092 52.9133 66.6333 52.6191 68.0708 52.6358C69.5326 52.6171 70.9798 52.9286 72.3044 53.5472C73.5325 54.0981 74.6411 54.8838 75.5678 55.86C76.4683 56.8581 77.1761 58.0144 77.6552 59.2704C78.1419 60.52 78.3911 61.8494 78.3902 63.1904C78.3877 64.5348 78.1248 65.866 77.616 67.1104C76.595 69.6411 74.6409 71.6829 72.1574 72.814C70.8505 73.4246 69.425 73.7391 67.9826 73.7352ZM62.5436 63.1512C62.542 63.9421 62.6609 64.7286 62.8964 65.4836C63.1201 66.2147 63.4755 66.8989 63.945 67.5024C64.4066 68.0925 64.992 68.5742 65.66 68.9136C66.39 69.2767 67.1968 69.4582 68.012 69.4428C68.8498 69.4625 69.679 69.2703 70.4228 68.8842C71.0899 68.5263 71.6717 68.0282 72.128 67.424C72.5726 66.8114 72.9044 66.1245 73.108 65.3954C73.3508 64.6511 73.4829 63.8751 73.5 63.0924C73.4943 62.3006 73.3688 61.5142 73.1276 60.76C72.9029 60.0452 72.5436 59.3799 72.0692 58.8C71.602 58.223 71.0174 57.7519 70.3542 57.4182C69.6307 57.0415 68.8277 56.8433 68.012 56.84C67.1825 56.8176 66.3605 57.0029 65.6208 57.379C64.9595 57.7285 64.3786 58.2126 63.9156 58.8C63.4715 59.3877 63.1393 60.0521 62.9356 60.76C62.6851 61.5327 62.5529 62.3389 62.5436 63.1512Z" fill="#94A3B8"/>
<path d="M88.1997 73.8528C86.9988 73.8736 85.8059 73.6536 84.6913 73.206C83.7109 72.8071 82.8234 72.2099 82.0846 71.4518C81.3815 70.7184 80.8376 69.8476 80.4871 68.894C79.7556 66.9313 79.7556 64.7708 80.4871 62.8082C80.8376 61.8546 81.3815 60.9838 82.0846 60.2504C82.8253 59.4922 83.7121 58.8921 84.6913 58.4864C86.9449 57.6107 89.4448 57.6107 91.6983 58.4864C92.6706 58.8944 93.5505 59.4944 94.2855 60.2504C94.9913 60.9854 95.5413 61.8554 95.9025 62.8082C96.2751 63.781 96.4644 64.8143 96.4611 65.856C96.4662 66.8929 96.2836 67.9221 95.9221 68.894C95.568 69.848 95.0209 70.7188 94.3149 71.4518C93.5797 72.2096 92.6955 72.8069 91.7179 73.206C90.6 73.6536 89.4038 73.8735 88.1997 73.8528ZM84.711 65.856C84.6563 66.9244 85.0062 67.9741 85.6909 68.796C86.0003 69.1544 86.3866 69.4384 86.821 69.6267C87.2554 69.8151 87.7267 69.903 88.1997 69.8838C88.6669 69.8887 89.1292 69.7882 89.5521 69.5898C89.9652 69.3939 90.3324 69.1135 90.6301 68.7666C90.9474 68.3876 91.1901 67.952 91.3455 67.4828C91.5261 66.9596 91.6156 66.4094 91.6101 65.856C91.6619 64.788 91.3124 63.7393 90.6301 62.916C90.331 62.5659 89.9577 62.2866 89.5374 62.0985C89.1171 61.9104 88.6602 61.818 88.1997 61.8282C87.7347 61.8249 87.2745 61.9231 86.8513 62.1161C86.4281 62.309 86.0522 62.5921 85.7497 62.9454C85.4301 63.3207 85.184 63.7529 85.0245 64.2194C84.8273 64.743 84.7213 65.2965 84.711 65.856Z" fill="#94A3B8"/>
<path d="M108.496 73.8528C107.43 73.8799 106.376 73.6265 105.438 73.1178C104.602 72.6333 103.922 71.9191 103.478 71.0598V79.821H98.7744V58.1238H102.861V60.6228C103.396 59.7742 104.129 59.068 104.997 58.5648C105.927 58.0552 106.976 57.8015 108.035 57.8298C109.027 57.8192 110.008 58.0301 110.907 58.4472C111.768 58.8493 112.539 59.4228 113.171 60.1328C113.82 60.8757 114.325 61.7332 114.66 62.6612C115.027 63.6657 115.209 64.728 115.199 65.7972C115.21 66.8856 115.041 67.9684 114.699 69.0018C114.388 69.9269 113.909 70.7871 113.288 71.54C112.711 72.2486 111.989 72.8265 111.171 73.2354C110.341 73.6495 109.424 73.8611 108.496 73.8528ZM106.908 69.9328C107.397 69.9367 107.878 69.8188 108.31 69.5898C108.73 69.366 109.102 69.0632 109.407 68.698C109.73 68.3102 109.976 67.8646 110.133 67.3848C110.299 66.879 110.382 66.3493 110.378 65.8168C110.385 65.2784 110.292 64.7434 110.103 64.239C109.929 63.7799 109.669 63.3577 109.339 62.9944C109.011 62.6383 108.61 62.3575 108.163 62.1712C107.691 61.9733 107.185 61.8733 106.673 61.8772C106.01 61.8806 105.363 62.0782 104.811 62.4456C104.218 62.8226 103.742 63.3593 103.439 63.994V67.1692C103.744 67.9322 104.236 68.6062 104.87 69.1292C105.438 69.6157 106.161 69.8833 106.908 69.8838V69.9328Z" fill="#94A3B8"/>
<path d="M123.636 73.8528C122.304 73.8544 120.98 73.6392 119.716 73.2158C118.52 72.8416 117.418 72.2169 116.482 71.3832L118.158 68.502C119.017 69.1035 119.941 69.6065 120.912 70.0014C121.725 70.349 122.596 70.5386 123.48 70.56C123.971 70.5881 124.461 70.476 124.891 70.2366C125.057 70.1356 125.191 69.9904 125.28 69.8174C125.368 69.6444 125.406 69.4502 125.391 69.2566C125.387 69.0511 125.327 68.8507 125.216 68.6776C125.105 68.5045 124.949 68.3657 124.763 68.2766C124.056 67.93 123.309 67.6701 122.539 67.5024C121.5 67.2084 120.579 66.9242 119.912 66.6498C119.29 66.4251 118.7 66.1186 118.158 65.7384C117.737 65.4479 117.4 65.0527 117.178 64.5918C116.972 64.1091 116.872 63.5878 116.884 63.063C116.873 62.3387 117.026 61.6213 117.332 60.9645C117.637 60.3077 118.087 59.7286 118.648 59.2704C119.232 58.8015 119.896 58.4428 120.608 58.212C121.398 57.9512 122.226 57.8221 123.058 57.8298C124.16 57.8216 125.257 57.9802 126.312 58.3002C127.401 58.6544 128.403 59.2356 129.252 60.0054L127.429 62.8278C126.695 62.3027 125.907 61.859 125.077 61.5048C124.455 61.2459 123.79 61.1063 123.117 61.0932C122.666 61.0773 122.22 61.1822 121.823 61.397C121.654 61.4959 121.514 61.6397 121.421 61.8126C121.328 61.9855 121.284 62.1808 121.294 62.377C121.286 62.5787 121.336 62.7784 121.439 62.9522C121.541 63.1261 121.692 63.2666 121.872 63.357C122.551 63.6756 123.265 63.9125 123.999 64.0626C124.942 64.3066 125.871 64.6011 126.782 64.9446C127.436 65.1833 128.053 65.5132 128.615 65.9246C129.055 66.2521 129.409 66.6829 129.644 67.179C129.871 67.7078 129.981 68.2794 129.967 68.8548C129.995 69.5583 129.853 70.2581 129.555 70.8957C129.257 71.5333 128.81 72.0903 128.252 72.52C126.91 73.4772 125.282 73.9475 123.636 73.8528Z" fill="#94A3B8"/>
<path d="M132.192 73.5588V68.7666H136.044V73.5588H132.192Z" fill="#94A3B8"/>
<path d="M139.219 73.5588V68.7666H143.08V73.5588H139.219Z" fill="#94A3B8"/>
<path d="M146.245 73.5588V68.7666H150.097V73.5588H146.245Z" fill="#94A3B8"/>
<path d="M245.726 306.034C243.305 305.897 231.585 304.662 229.536 302.781C223.95 297.646 220.716 294.314 220.236 291.148C219.785 288.336 222 283.014 222.049 280.123C222.098 277.232 227.008 278.81 228.694 278.634C232.182 278.281 232.957 280.3 234.789 280.956C236.063 281.417 240.405 279.084 243.472 281.28C246.539 283.475 245.922 287.209 245.922 287.209C245.922 287.209 253.066 290.482 253.194 294.382C253.331 298.792 248.45 306.191 245.726 306.034Z" fill="#22C55E"/>
<path opacity="0.3" d="M245.726 306.034C243.305 305.897 231.585 304.662 229.536 302.781C223.95 297.646 220.716 294.314 220.236 291.148C219.785 288.336 222 283.014 222.049 280.123C222.098 277.232 227.008 278.81 228.694 278.634C232.182 278.281 232.957 280.3 234.789 280.956C236.063 281.417 240.405 279.084 243.472 281.28C246.539 283.475 245.922 287.209 245.922 287.209C245.922 287.209 253.066 290.482 253.194 294.382C253.331 298.792 248.45 306.191 245.726 306.034Z" fill="white"/>
<path d="M108.114 397.988C104.556 402.143 90.0229 405.005 81.4871 398.311C72.9513 391.618 67.8847 369.372 68.1101 361.875C68.3355 354.378 90.2483 262.64 96.4811 240.786C102.714 218.932 92.5611 208.064 85.4169 202.899C78.2727 197.735 63.1611 203.36 60.1035 206.623C57.0459 209.887 55.6641 218.54 55.6641 218.54C55.6641 218.54 58.1925 210.7 62.8083 208.103C67.4241 205.506 77.5671 203.664 82.8787 206.662C88.1903 209.661 95.9715 223.019 91.6105 234.69C87.2495 246.362 60.7601 352.241 60.1035 362.139C59.3489 374.027 66.0423 394.969 76.1853 404.015C86.3283 413.06 103.743 412.208 105.585 412.835C107.428 413.462 107.702 416.147 107.702 416.147L108.114 397.988Z" fill="#22C55E"/>
<path opacity="0.1" d="M108.114 397.988C104.556 402.143 90.0229 405.005 81.4871 398.311C72.9513 391.618 67.8847 369.372 68.1101 361.875C68.3355 354.378 90.2483 262.64 96.4811 240.786C102.714 218.932 92.5611 208.064 85.4169 202.899C78.2727 197.735 63.1611 203.36 60.1035 206.623C57.0459 209.887 55.6641 218.54 55.6641 218.54C55.6641 218.54 58.1925 210.7 62.8083 208.103C67.4241 205.506 77.5671 203.664 82.8787 206.662C88.1903 209.661 95.9715 223.019 91.6105 234.69C87.2495 246.362 60.7601 352.241 60.1035 362.139C59.3489 374.027 66.0423 394.969 76.1853 404.015C86.3283 413.06 103.743 412.208 105.585 412.835C107.428 413.462 107.702 416.147 107.702 416.147L108.114 397.988Z" fill="black"/>
<g opacity="0.2">
<path opacity="0.2" d="M102.725 402.251C102.161 405.638 102.062 409.087 102.431 412.502H102.039C101.799 410.844 101.701 409.168 101.745 407.494C101.79 405.719 101.993 403.951 102.352 402.212C102.431 401.849 102.509 401.486 102.597 401.124L102.96 401.006C102.901 401.398 102.793 401.8 102.725 402.251Z" fill="black"/>
<path opacity="0.2" d="M90.0045 401.918L89.8869 402.594C89.5971 404.326 89.4106 406.073 89.3283 407.827C89.3283 406.945 89.2597 406.063 89.3283 405.181C89.3969 404.299 89.4263 403.417 89.5537 402.535L89.6419 401.849L90.0045 401.918Z" fill="black"/>
<path opacity="0.2" d="M91.974 411.188C91.974 411.375 91.974 411.551 91.974 411.737C91.974 411.551 91.9152 411.365 91.8956 411.179C91.7878 410.493 91.6898 409.807 91.631 409.111C91.631 408.229 91.5134 407.347 91.5428 406.455C91.5483 405.024 91.6663 403.595 91.8956 402.182H92.3758C92.1288 403.588 91.975 405.009 91.9152 406.435C91.8402 408.02 91.8598 409.607 91.974 411.188Z" fill="black"/>
<path opacity="0.2" d="M95.7858 409.189C95.7858 410.078 95.7858 410.97 95.7858 411.865L95.335 411.796C95.335 410.914 95.335 410.042 95.335 409.17C95.4166 407.402 95.7127 405.652 96.217 403.956C95.9272 405.685 95.7829 407.436 95.7858 409.189Z" fill="black"/>
<path opacity="0.2" d="M85.9466 400.82C85.7702 401.643 85.6134 402.476 85.5056 403.309C85.2444 405.042 85.1101 406.791 85.1038 408.542C85.1038 408.778 85.1038 409.003 85.1038 409.238L84.7608 409.111C84.7608 408.925 84.7608 408.729 84.7608 408.542C84.7017 406.77 84.8001 404.996 85.0548 403.241C85.1802 402.37 85.3503 401.507 85.5644 400.653L85.9466 400.82Z" fill="black"/>
<path opacity="0.2" d="M76.0191 391.304C75.8949 391.559 75.7773 391.814 75.6662 392.069C74.4266 394.796 73.5154 397.662 72.9517 400.604L72.8145 400.438C72.8145 400.114 72.8929 399.791 72.9419 399.458C73.0987 398.595 73.2359 397.713 73.4711 396.861C73.9096 395.142 74.4931 393.463 75.2155 391.843C75.3821 391.481 75.5584 391.118 75.7348 390.765L76.0191 391.304Z" fill="black"/>
<path opacity="0.2" d="M77.4209 393.695C77.1171 394.45 76.8525 395.214 76.6173 395.989C76.1046 397.653 75.7181 399.353 75.4609 401.075C75.3433 401.722 75.2453 402.359 75.1767 403.035C75.0867 402.948 75.0017 402.857 74.9219 402.761C74.9478 402.186 75.0034 401.614 75.0885 401.046C75.3189 399.284 75.7026 397.546 76.2351 395.851C76.5193 394.969 76.8329 394.097 77.2151 393.245C77.2445 393.382 77.3425 393.539 77.4209 393.695Z" fill="black"/>
<path opacity="0.2" d="M80.0373 399.095C79.5169 400.775 79.1399 402.496 78.9103 404.24C78.8319 404.818 78.7633 405.397 78.7143 405.975L78.3027 405.72C78.3615 405.22 78.4399 404.74 78.5379 404.211C78.8315 402.452 79.3349 400.734 80.0373 399.095Z" fill="black"/>
<path opacity="0.2" d="M74.2159 387.619C73.5807 388.479 72.9918 389.372 72.4519 390.295C71.5505 391.795 70.7357 393.346 70.0117 394.94C70.3057 394.117 70.5899 393.274 70.9917 392.461C71.3935 391.647 71.7267 390.853 72.1677 390.089C72.7233 389.065 73.3521 388.082 74.0493 387.149C74.0689 387.296 74.1375 387.463 74.2159 387.619Z" fill="black"/>
<path opacity="0.2" d="M69.6884 373.645C69.3258 373.968 68.9632 374.291 68.6104 374.625C67.3349 375.83 66.1245 377.103 64.9844 378.437C65.5038 377.731 65.9644 376.996 66.572 376.32C67.1796 375.644 67.7186 374.968 68.3556 374.36C68.7476 373.948 69.1592 373.556 69.5806 373.194C69.5806 373.38 69.659 373.488 69.6884 373.645Z" fill="black"/>
<path opacity="0.2" d="M70.3449 376.32C69.4724 377.152 68.6509 378.035 67.8851 378.966C66.7541 380.31 65.7005 381.717 64.7295 383.18C65.1607 382.406 65.5723 381.622 66.0525 380.887C66.5327 380.152 67.0325 379.407 67.5911 378.721C68.3886 377.677 69.2633 376.694 70.2077 375.781C70.2567 375.967 70.2959 376.144 70.3449 376.32Z" fill="black"/>
<path opacity="0.2" d="M71.649 380.779C70.816 381.62 70.0307 382.506 69.297 383.435C68.206 384.797 67.223 386.242 66.357 387.757C66.1904 388.031 66.0336 388.305 65.8768 388.58L65.6416 388.031C65.7298 387.855 65.8376 387.678 65.9356 387.502C66.831 385.975 67.8573 384.529 69.003 383.18C69.8004 382.252 70.6651 381.384 71.5902 380.583L71.649 380.779Z" fill="black"/>
<path opacity="0.2" d="M68.4437 366.834C66.7457 366.901 65.0552 367.098 63.3869 367.422C62.3383 367.608 61.2897 367.833 60.2607 368.117C60.2607 367.97 60.2607 367.823 60.2607 367.676C61.2407 367.382 62.2991 367.147 63.3379 366.941C65.0186 366.627 66.7241 366.463 68.4339 366.451C68.4143 366.579 68.4241 366.706 68.4437 366.834Z" fill="black"/>
<path opacity="0.2" d="M69.4439 353.898C69.4439 354.054 69.3753 354.211 69.3459 354.368C68.1022 354.299 66.8557 354.299 65.6121 354.368C64.1944 354.416 62.7808 354.546 61.3785 354.76C61.3738 354.724 61.3738 354.688 61.3785 354.652C61.8979 354.525 62.4075 354.407 62.9367 354.319C63.8089 354.192 64.6909 354.045 65.5729 353.986C66.8596 353.867 68.153 353.838 69.4439 353.898Z" fill="black"/>
<path opacity="0.2" d="M68.9924 356.201L68.9042 356.661C68.424 356.661 67.9242 356.661 67.4636 356.661C65.7131 356.685 63.9669 356.843 62.2402 357.132C61.7698 357.2 61.3092 357.279 60.8486 357.367C60.8486 357.259 60.8486 357.151 60.9172 357.043C61.3288 356.936 61.7502 356.838 62.1716 356.759C63.9121 356.411 65.6794 356.215 67.4538 356.171C67.9634 356.171 68.4828 356.181 68.9924 356.201Z" fill="black"/>
<path opacity="0.2" d="M65.6021 360.885C63.8481 360.934 62.1011 361.128 60.3787 361.463L60.1631 361.512C60.1631 361.395 60.1631 361.257 60.1631 361.12H60.2611C62.0255 360.828 63.8188 360.749 65.6021 360.885Z" fill="black"/>
<path opacity="0.2" d="M70.2476 349.978C70.2476 350.095 70.1986 350.203 70.179 350.311C69.8752 350.311 69.5616 350.242 69.2578 350.223C67.5125 350.095 65.7602 350.095 64.0148 350.223C63.4366 350.223 62.8682 350.301 62.29 350.37C62.29 350.203 62.3684 350.046 62.3978 349.889C62.927 349.831 63.4562 349.782 63.9854 349.742C65.7565 349.631 67.534 349.677 69.297 349.88L70.2476 349.978Z" fill="black"/>
<path opacity="0.2" d="M72.9029 337.728C72.9029 337.884 72.8343 338.051 72.7951 338.208C71.1464 337.839 69.4725 337.593 67.7873 337.473C66.9347 337.394 66.0723 337.355 65.2197 337.355L65.2785 337.11C66.1213 337.11 66.9641 337.042 67.8167 337.11C69.5264 337.173 71.2278 337.38 72.9029 337.728Z" fill="black"/>
<path opacity="0.2" d="M72.4031 339.991C72.4031 340.138 72.3345 340.285 72.3051 340.423C71.3331 340.236 70.3516 340.102 69.3651 340.021C67.8034 339.849 66.2313 339.79 64.6611 339.844C64.6611 339.707 64.7297 339.57 64.7591 339.433C66.3111 339.353 67.8669 339.386 69.4141 339.531C70.4179 339.632 71.4156 339.785 72.4031 339.991Z" fill="black"/>
<path opacity="0.2" d="M66.9939 343.98C65.9093 343.877 64.8196 343.838 63.7305 343.862C63.7487 343.77 63.7716 343.678 63.7991 343.588C64.873 343.63 65.9417 343.761 66.9939 343.98Z" fill="black"/>
<path opacity="0.2" d="M75.8336 324.792C75.8336 324.909 75.8336 325.017 75.7552 325.135C74.1676 324.811 72.5506 324.645 70.9336 324.468C71.8156 324.468 72.6976 324.468 73.5796 324.537C74.4616 324.605 75.0888 324.664 75.8336 324.792Z" fill="black"/>
<path opacity="0.2" d="M75.314 327.055C75.314 327.212 75.2454 327.359 75.2062 327.506C74.2262 327.33 73.2462 327.212 72.1976 327.134C70.6858 327 69.1675 326.954 67.6504 326.997C67.6548 326.971 67.6548 326.944 67.6504 326.918C68.2776 326.85 68.9146 326.781 69.5516 326.752C70.4336 326.752 71.3156 326.693 72.2074 326.752C73.2479 326.793 74.2852 326.894 75.314 327.055Z" fill="black"/>
<path opacity="0.2" d="M74.5594 331.573L74.2948 331.514C72.681 331.172 71.0425 330.959 69.3948 330.877C68.5324 330.877 67.6701 330.809 66.7979 330.819C66.7979 330.672 66.8664 330.525 66.9056 330.378C67.7484 330.378 68.5912 330.427 69.4242 330.505C71.0887 330.65 72.732 330.979 74.3242 331.485L74.5594 331.573Z" fill="black"/>
<path opacity="0.2" d="M76.8135 320.568C76.8135 320.725 76.7351 320.881 76.7057 321.028C76.3333 320.94 75.9609 320.872 75.5885 320.813C73.8706 320.49 72.1314 320.293 70.3847 320.225C70.0221 320.225 69.6497 320.225 69.2871 320.225C69.2871 320.117 69.2871 319.999 69.3655 319.892H70.3455C72.1168 319.899 73.8841 320.06 75.6277 320.372C76.0589 320.401 76.4411 320.46 76.8135 320.568Z" fill="black"/>
<path opacity="0.2" d="M80.5667 304.525C80.5667 304.623 80.5667 304.721 80.4981 304.819C79.3025 304.604 78.0775 304.457 76.8623 304.31C77.7149 304.31 78.5675 304.31 79.4299 304.398L80.5667 304.525Z" fill="black"/>
<path opacity="0.2" d="M79.1359 310.591C79.1359 310.729 79.0673 310.866 79.0379 310.993L78.1657 310.807C76.4472 310.453 74.7097 310.198 72.9619 310.043C73.8341 310.043 74.7259 310.043 75.6079 310.111C76.4899 310.18 77.3719 310.268 78.2343 310.435L79.1359 310.591Z" fill="black"/>
<path opacity="0.2" d="M83.3011 292.951C83.3011 293.108 83.2227 293.255 83.1933 293.402C81.8826 292.976 80.5474 292.629 79.1949 292.363C78.2149 292.148 77.2349 291.991 76.2549 291.873L76.3137 291.658H76.6567C77.5387 291.746 78.4207 291.815 79.2929 291.971C80.6519 292.196 81.9918 292.524 83.3011 292.951Z" fill="black"/>
<path opacity="0.2" d="M82.2624 297.371C82.2624 297.518 82.1938 297.665 82.1546 297.812C81.4686 297.606 80.763 297.43 80.0574 297.283C78.4252 296.904 76.7681 296.642 75.0986 296.499L75.1868 296.117C76.8626 296.212 78.5277 296.444 80.1652 296.813C80.8708 296.94 81.5666 297.156 82.2624 297.371Z" fill="black"/>
<path opacity="0.2" d="M86.2409 275.566C84.5935 274.96 82.8989 274.492 81.1743 274.165L80.7529 274.086C80.7529 273.959 80.8215 273.832 80.8509 273.704L81.2527 273.792C82.978 274.19 84.6517 274.786 86.2409 275.566Z" fill="black"/>
<path opacity="0.2" d="M84.2813 289.1L84.1931 289.443L83.7619 289.296C82.1014 288.738 80.4012 288.305 78.6757 288.002C78.2249 287.914 77.7643 287.836 77.3037 287.777L77.4213 287.326L78.7639 287.522C80.5112 287.843 82.2265 288.318 83.8893 288.943L84.2813 289.1Z" fill="black"/>
<path opacity="0.2" d="M97.4912 236.641C97.4952 236.683 97.4952 236.726 97.4912 236.768C96.2515 236.174 94.9749 235.66 93.6692 235.229C93.0028 235.004 92.3168 234.798 91.6406 234.612C91.6983 234.475 91.7474 234.334 91.7876 234.191C92.4638 234.396 93.14 234.622 93.7476 234.877C95.0425 235.359 96.2948 235.949 97.4912 236.641Z" fill="black"/>
<path opacity="0.2" d="M95.1783 240.208C93.5864 239.599 91.9476 239.121 90.2783 238.777C90.2783 238.659 90.3567 238.552 90.3861 238.434C92.0456 238.842 93.6533 239.437 95.1783 240.208Z" fill="black"/>
<path opacity="0.2" d="M95.7178 215.041C94.3949 215.228 93.0719 215.502 91.7979 215.776C92.6407 215.522 93.4834 215.237 94.3458 215.032L95.6297 214.747C95.6297 214.845 95.6786 214.943 95.7178 215.041Z" fill="black"/>
<path opacity="0.2" d="M96.7371 217.56C96.1687 217.56 95.6003 217.648 95.0417 217.717C93.758 217.848 92.4822 218.048 91.2197 218.315C91.2237 218.272 91.2237 218.23 91.2197 218.187C91.6215 218.06 92.0331 217.942 92.4349 217.844C93.2973 217.658 94.1597 217.452 95.0417 217.344C95.5709 217.256 96.1099 217.188 96.6391 217.148C96.6802 217.284 96.7129 217.421 96.7371 217.56Z" fill="black"/>
<path opacity="0.2" d="M98.3732 229.741C98.3732 229.839 98.3732 229.937 98.3732 230.045C97.1678 229.761 95.9428 229.545 94.7178 229.33C95.59 229.398 96.4818 229.447 97.354 229.575L98.3732 229.741Z" fill="black"/>
<path opacity="0.2" d="M96.1483 222.019C94.879 222.033 93.6121 222.132 92.3557 222.313C92.3557 222.205 92.3557 222.117 92.2871 222.019C93.5713 221.897 94.8642 221.897 96.1483 222.019Z" fill="black"/>
<path opacity="0.2" d="M92.3165 209.455C91.3365 209.916 90.4153 210.435 89.5137 210.974C88.9943 211.268 88.5337 211.582 88.0045 211.954L87.8477 211.719C88.3279 211.357 88.8277 211.004 89.3177 210.69C90.1843 210.112 91.0878 209.592 92.0225 209.132L92.3165 209.455Z" fill="black"/>
<path opacity="0.2" d="M87.0645 205.624C86.1579 206.284 85.2908 206.998 84.4676 207.76L84.252 207.574C85.1321 206.845 86.0731 206.192 87.0645 205.624Z" fill="black"/>
<path opacity="0.2" d="M76.0289 200.9C75.4703 201.949 74.9803 203.017 74.5295 204.105C74.3825 204.457 74.2453 204.81 74.1081 205.173H73.6377C73.8141 204.751 73.9905 204.34 74.1767 203.928C74.6566 202.885 75.2033 201.873 75.8133 200.9H76.0289Z" fill="black"/>
<path opacity="0.2" d="M72.2757 202.184C71.7316 203.256 71.257 204.363 70.8547 205.496L70.5117 205.555C70.9935 204.379 71.584 203.25 72.2757 202.184Z" fill="black"/>
<path opacity="0.2" d="M68.7286 202.272C68.6306 203.252 68.5718 204.232 68.513 205.281C68.513 204.399 68.4248 203.517 68.4542 202.635C68.4542 202.537 68.4542 202.448 68.4542 202.35L68.7286 202.272Z" fill="black"/>
<path opacity="0.2" d="M66.0335 206.692L65.6611 206.78C65.5056 205.676 65.414 204.563 65.3867 203.448L65.8571 203.252C65.8506 204.401 65.9095 205.55 66.0335 206.692Z" fill="black"/>
<path opacity="0.2" d="M63.6321 205.261C63.5537 206.074 63.5145 206.898 63.5145 207.711L63.2695 207.829C63.3312 206.965 63.4524 206.108 63.6321 205.261Z" fill="black"/>
<path opacity="0.2" d="M86.447 203.673C85.4269 204.364 84.4455 205.11 83.507 205.908L82.7426 206.574C82.6139 206.496 82.4796 206.427 82.3408 206.368C82.6446 206.114 82.9484 205.859 83.262 205.614C84.2196 204.862 85.2282 204.178 86.2804 203.566L86.447 203.673Z" fill="black"/>
<path opacity="0.2" d="M90.6905 207.544C89.7105 208.172 88.8187 208.858 87.8877 209.504C88.5443 208.926 89.1911 208.319 89.8477 207.77L90.4553 207.309L90.6905 207.544Z" fill="black"/>
<path opacity="0.2" d="M86.7116 279.006L86.594 279.476L86.3 279.369C84.6529 278.767 82.9624 278.292 81.2432 277.948C80.7826 277.84 80.322 277.752 79.8516 277.673C79.8516 277.575 79.8516 277.487 79.9202 277.389C80.3906 277.438 80.9002 277.497 81.3216 277.585C83.0688 277.874 84.7872 278.317 86.4568 278.908L86.7116 279.006Z" fill="black"/>
<path opacity="0.2" d="M89.5633 267.452C89.5588 267.52 89.5588 267.589 89.5633 267.658L87.3877 267.03C88.0737 267.168 88.8185 267.285 89.5633 267.452Z" fill="black"/>
<path opacity="0.2" d="M88.4652 271.842L88.377 272.244L87.397 271.97C85.6944 271.55 83.9704 271.223 82.2324 270.99C83.1046 271.048 83.9964 271.088 84.8686 271.195C85.7408 271.303 86.6228 271.44 87.4852 271.656C87.789 271.676 88.132 271.754 88.4652 271.842Z" fill="black"/>
<path opacity="0.2" d="M94.1298 249.488L94.0122 249.929C93.4634 249.773 92.9146 249.635 92.3658 249.518C90.7549 249.128 89.1169 248.859 87.4658 248.714C87.4658 248.577 87.5344 248.45 87.5736 248.322C89.223 248.434 90.8613 248.673 92.4736 249.038C93.0322 249.175 93.581 249.322 94.1298 249.488Z" fill="black"/>
<path opacity="0.2" d="M90.6507 263.091L90.5331 263.542C89.5418 263.226 88.5342 262.965 87.5147 262.758C86.3122 262.48 85.0951 262.271 83.8691 262.13C83.8736 262.082 83.8736 262.032 83.8691 261.983C84.2219 261.983 84.5649 261.983 84.9177 262.032C85.7899 262.13 86.6719 262.209 87.5441 262.385C88.5935 262.555 89.6311 262.791 90.6507 263.091Z" fill="black"/>
<path opacity="0.2" d="M93.1012 253.408C93.1042 253.451 93.1042 253.493 93.1012 253.536L91.8076 253.154L93.1012 253.408Z" fill="black"/>
<path opacity="0.2" d="M94.2186 243.579C92.6033 243.019 90.9448 242.593 89.2598 242.305C89.2598 242.187 89.3186 242.07 89.3578 241.952C91.0351 242.306 92.6661 242.852 94.2186 243.579Z" fill="black"/>
<path opacity="0.2" d="M78.1653 314.717C78.1547 314.784 78.1383 314.849 78.1163 314.913C77.0556 314.613 75.9793 314.37 74.8921 314.188C73.5598 313.945 72.2152 313.775 70.8643 313.678C70.8643 313.531 70.9329 313.375 70.9721 313.228C72.3137 313.33 73.6465 313.527 74.9607 313.816C76.0467 314.049 77.117 314.35 78.1653 314.717Z" fill="black"/>
</g>
<path d="M142.1 440.02C144.937 439.632 147.81 439.593 150.656 439.902C153.861 440.195 156.989 441.051 159.897 442.431C160.75 442.842 161.494 441.578 160.642 441.167C154.732 438.428 148.134 437.533 141.708 438.599C140.777 438.746 141.179 440.167 142.1 440.02Z" fill="#263238"/>
<path d="M139.288 440.343C142.378 440.644 145.351 441.679 147.961 443.362C150.739 445.009 153.174 447.175 155.134 449.742C155.673 450.506 156.947 449.742 156.399 448.997C154.316 446.218 151.696 443.885 148.696 442.137C145.864 440.323 142.637 439.217 139.288 438.913C138.308 438.864 138.308 440.334 139.288 440.383V440.343Z" fill="#263238"/>
<path d="M204.233 424.34C207.066 423.952 209.936 423.913 212.779 424.222C215.986 424.521 219.116 425.377 222.03 426.751C222.873 427.162 223.617 425.898 222.765 425.487C216.854 422.762 210.261 421.878 203.841 422.948C202.91 423.105 203.302 424.516 204.233 424.369V424.34Z" fill="#263238"/>
<path d="M201.371 424.654C204.463 424.954 207.437 425.992 210.044 427.682C212.823 429.323 215.259 431.486 217.217 434.052C217.756 434.816 219.03 434.052 218.482 433.307C216.396 430.53 213.777 428.198 210.779 426.447C207.945 424.637 204.719 423.531 201.371 423.223C200.391 423.174 200.391 424.644 201.371 424.693V424.654Z" fill="#263238"/>
<path d="M164.396 242.952C164.396 242.952 141.503 242.521 125.019 229.046C111.388 217.883 106.399 212.386 103.401 215.13C100.402 217.874 104.802 262.856 140.641 272.95C152.842 276.37 164.396 254.33 164.396 254.33V242.952Z" fill="#22C55E"/>
<path opacity="0.1" d="M164.396 242.952C164.396 242.952 141.503 242.521 125.019 229.046C111.388 217.883 106.399 212.386 103.401 215.13C100.402 217.874 104.802 262.856 140.641 272.95C152.842 276.37 164.396 254.33 164.396 254.33V242.952Z" fill="black"/>
<path opacity="0.1" d="M164.396 242.952V254.3C164.396 254.3 152.881 276.36 140.641 272.92C131.761 270.443 123.812 265.393 117.797 258.406C126.362 252.811 139.269 244.422 146.521 239.914C152.336 241.637 158.338 242.657 164.396 242.952Z" fill="black"/>
<path d="M138.513 320.597C138.513 320.597 124.539 294.314 125.499 281.476C126.459 268.638 140.14 246.96 151.508 241.511C162.876 236.062 215.865 243.844 233.368 261.895C237.16 265.815 233.554 272.724 231.604 276.262C229.075 280.839 220.236 291.148 212.572 294.137C212.572 294.137 213.944 309.239 197.872 317.432C197.872 317.432 203.331 343.108 208.309 357.073C213.287 371.038 225.322 394.313 217.933 411.169C210.543 428.025 191.953 426.741 179.713 428.505C167.472 430.269 147 442.147 128.87 439.579C110.74 437.011 103.537 416.882 108.643 394.94C114.268 370.881 123.745 341.628 138.513 320.597Z" fill="#22C55E"/>
<path d="M142.208 264.786C142.208 264.786 135.348 264.139 122.089 258.789C108.829 253.438 86.9069 239.345 65.5919 250.655C40.9743 263.708 32.7521 322.89 79.7137 341.187C120.227 356.965 149.058 297.087 149.058 297.087L142.208 264.786Z" fill="#22C55E"/>
<path opacity="0.1" d="M149.049 297.107C149.049 297.107 120.227 356.965 79.7136 341.207C69.1296 337.091 61.3484 330.887 55.929 323.567C50.9814 315.137 47.9969 305.701 47.1972 295.96C46.3838 284.347 48.1772 267.54 63.2398 258.24C78.3024 248.94 97.5888 257.74 112.7 265.903C127.812 274.067 141.277 274.723 144.697 276.429C152.126 283.73 149.049 297.107 149.049 297.107Z" fill="black"/>
<path d="M112.7 254.584L119.991 257.446C122.432 258.377 124.891 259.337 127.302 260.229C129.713 261.121 132.202 262.003 134.672 262.797C135.907 263.218 137.151 263.561 138.415 263.904C139.043 264.061 139.67 264.237 140.307 264.384C140.944 264.531 141.581 264.639 142.267 264.786C139.642 264.645 137.039 264.221 134.505 263.522C131.961 262.871 129.455 262.079 126.998 261.15C124.539 260.229 122.098 259.19 119.737 258.132C117.375 257.074 114.944 255.888 112.7 254.584Z" fill="#263238"/>
<path d="M135.24 318.549L137.004 315.874L138.788 313.228L142.326 307.926C143.502 306.152 144.638 304.368 145.785 302.575C146.344 301.673 146.922 300.782 147.441 299.851C147.961 298.92 148.509 298.018 149.078 297.097C148.343 299.118 147.462 301.083 146.442 302.977C145.462 304.868 144.305 306.691 143.139 308.484C141.973 310.278 140.718 312.012 139.395 313.688C138.095 315.379 136.708 317.002 135.24 318.549Z" fill="#263238"/>
<path d="M136.27 263.62C136.62 263.384 137.008 263.209 137.416 263.101C138.628 262.734 139.925 262.762 141.121 263.179C140.699 263.228 140.297 263.228 139.896 263.267L138.69 263.355C137.887 263.375 137.093 263.473 136.27 263.62Z" fill="#263238"/>
<path d="M146.079 302.82C146.635 302.151 147.237 301.522 147.882 300.938C148.51 300.35 149.107 299.811 149.754 299.165C149.571 300.066 149.087 300.878 148.382 301.468C147.735 302.098 146.945 302.562 146.079 302.82Z" fill="#263238"/>
<path d="M146.079 285.592L139.003 285.337C136.641 285.258 134.28 285.18 131.928 285.151C127.214 285.082 122.49 285.004 117.806 285.356C113.121 285.709 108.711 287.365 104.409 289.208C102.253 290.129 100.136 291.168 98.0588 292.275C95.9812 293.383 93.9036 294.519 91.875 295.725C95.7308 292.972 99.8199 290.562 104.096 288.522C108.368 286.362 112.984 284.963 117.737 284.386C122.471 284.136 127.214 284.136 131.947 284.386C136.671 284.641 141.385 285.013 146.079 285.592Z" fill="#263238"/>
<path d="M142.208 287.307C139.327 287.865 136.455 288.434 133.603 289.071C130.752 289.708 127.919 290.413 125.156 291.305C123.78 291.737 122.434 292.261 121.128 292.873C119.831 293.501 118.583 294.225 117.394 295.039C116.196 295.859 115.062 296.769 114.003 297.763C112.94 298.748 111.957 299.816 111.063 300.958C112.607 298.441 114.6 296.228 116.943 294.431C118.127 293.522 119.389 292.722 120.716 292.04C122.055 291.389 123.436 290.832 124.852 290.374C127.668 289.492 130.544 288.811 133.456 288.336C136.352 287.826 139.274 287.483 142.208 287.307Z" fill="#263238"/>
<path d="M220.706 300.419C220.489 296.122 221.721 291.878 224.205 288.365C224.773 287.601 223.49 286.866 222.941 287.62C221.575 289.514 220.578 291.649 220.001 293.912C219.429 296.032 219.171 298.224 219.236 300.419C219.295 301.399 220.765 301.399 220.706 300.419Z" fill="#263238"/>
<path d="M221.902 301.448C222.404 299.409 223.415 297.531 224.842 295.989C226.47 294.105 228.472 292.579 230.722 291.511C231.575 291.119 230.83 289.855 229.977 290.237C229.277 290.576 228.602 290.965 227.958 291.403C226.381 292.438 224.95 293.68 223.705 295.098C222.156 296.785 221.055 298.834 220.501 301.056C220.324 301.987 221.735 302.379 221.912 301.448H221.902Z" fill="#263238"/>
<path d="M222.46 302.712C223.35 301.149 224.608 299.827 226.126 298.861C228.022 297.502 230.273 296.722 232.603 296.617C232.798 296.617 232.985 296.539 233.123 296.401C233.261 296.263 233.338 296.077 233.338 295.882C233.338 295.687 233.261 295.5 233.123 295.362C232.985 295.224 232.798 295.147 232.603 295.147C230.009 295.246 227.5 296.097 225.381 297.597C223.648 298.691 222.209 300.191 221.186 301.967C220.765 302.81 222.029 303.555 222.46 302.712Z" fill="#263238"/>
<path d="M177.312 324.85C177.312 324.85 202.312 328.996 218.933 299.919C218.933 299.919 222.529 297.861 223.401 301.781C223.401 301.781 225.293 330.466 208.339 343.382C191.13 356.485 171.02 352.447 171.02 352.447C171.02 352.447 158.28 335.062 177.312 324.85Z" fill="#22C55E"/>
<path d="M198.431 320.597C196.223 322.315 193.679 323.55 190.964 324.223C189.616 324.575 188.243 324.821 186.857 324.958C185.472 325.086 184.078 325.086 182.692 324.958L186.74 324.174C188.073 323.91 189.396 323.586 190.66 323.243C191.924 322.9 193.267 322.498 194.58 322.067C195.893 321.636 197.167 321.175 198.431 320.597Z" fill="#263238"/>
<path d="M171.021 352.447C172.646 352.66 174.282 352.781 175.921 352.81C177.567 352.81 179.194 352.81 180.821 352.722C184.078 352.524 187.311 352.038 190.483 351.271C193.659 350.531 196.754 349.48 199.725 348.135C202.715 346.789 205.589 345.199 208.319 343.382C207.673 343.892 207.026 344.362 206.359 344.901C205.733 345.42 205.079 345.904 204.399 346.352L202.283 347.655C201.587 348.106 200.813 348.429 200.087 348.821C198.607 349.568 197.082 350.223 195.521 350.781C194.746 351.075 193.943 351.281 193.149 351.536L191.963 351.908L190.748 352.192C187.519 352.977 184.212 353.395 180.889 353.437C177.57 353.542 174.252 353.21 171.021 352.447Z" fill="#263238"/>
<path d="M173.461 353.966C173.934 353.954 174.405 353.912 174.872 353.839C175.343 353.77 175.852 353.721 176.254 353.643C177.175 353.515 178.057 353.359 179.027 353.133C178.314 353.826 177.389 354.26 176.401 354.368C175.909 354.427 175.413 354.427 174.921 354.368C174.408 354.359 173.906 354.22 173.461 353.966Z" fill="#263238"/>
<path d="M192.355 277.605C192.188 277.497 192.208 278.046 192.355 278.183C196.148 281.574 199.823 286.082 197.363 290.482C197.341 290.514 197.332 290.554 197.34 290.593C197.347 290.631 197.37 290.665 197.402 290.688C197.434 290.71 197.474 290.718 197.513 290.711C197.552 290.703 197.586 290.681 197.608 290.648C201.518 286.16 196.579 280.221 192.355 277.605Z" fill="#263238"/>
<path d="M185.69 277.771C178.879 283.475 189.169 294.755 195.49 289.463C201.811 284.171 191.404 272.989 185.69 277.771Z" fill="#263238"/>
<path d="M170.903 283.632C170.02 282.39 169.415 280.973 169.129 279.476C168.809 277.957 168.782 276.39 169.051 274.861C169.327 273.305 169.976 271.839 170.942 270.588C171.877 269.358 173.126 268.403 174.558 267.824C173.676 268.947 172.899 270.147 172.236 271.411C171.63 272.612 171.207 273.897 170.981 275.223C170.745 276.572 170.634 277.94 170.648 279.31C170.668 280.711 170.756 282.132 170.903 283.632Z" fill="#263238"/>
<path d="M170.168 283.73C169.051 282.693 168.169 281.43 167.581 280.025C166.952 278.606 166.603 277.079 166.552 275.527C166.501 273.944 166.837 272.373 167.532 270.95C168.184 269.557 169.199 268.365 170.472 267.501C169.84 268.769 169.331 270.095 168.953 271.46C168.611 272.761 168.463 274.105 168.512 275.449C168.555 276.818 168.729 278.18 169.031 279.516C169.335 280.917 169.727 282.289 170.168 283.73Z" fill="#263238"/>
<path opacity="0.5" d="M209.142 421.763C200.322 427.535 188.435 427.251 179.742 428.505C171.049 429.759 158.368 436.031 145.217 438.707C145.021 428.113 146.001 405.387 155.997 383.827C168.952 355.897 187.357 347.283 193.344 369.568C197.96 386.796 198.48 402.261 209.142 421.763Z" fill="white"/>
<path d="M197.892 317.432C195.156 318.654 192.252 319.46 189.278 319.823C186.289 320.215 183.259 320.176 180.281 319.705C178.791 319.477 177.318 319.149 175.871 318.725C174.441 318.255 173.048 317.675 171.706 316.991C171.034 316.671 170.379 316.315 169.746 315.923L167.865 314.688C167.243 314.268 166.653 313.803 166.101 313.296C165.532 312.816 164.974 312.316 164.415 311.836C166.787 313.598 169.343 315.097 172.039 316.305C173.38 316.903 174.759 317.413 176.165 317.834C177.571 318.233 179.002 318.541 180.448 318.755C183.348 319.212 186.292 319.327 189.219 319.098L191.414 318.863C192.139 318.745 192.874 318.647 193.599 318.5C195.051 318.235 196.485 317.878 197.892 317.432Z" fill="#263238"/>
<path d="M234.916 267.854C234.916 267.854 225.214 268.471 225.214 265.541C225.214 264.188 232.623 259.661 235.298 259.661C237.973 259.661 234.916 267.854 234.916 267.854Z" fill="#263238"/>
<path d="M189.68 306.034C193.555 306.034 196.697 302.893 196.697 299.018C196.697 295.142 193.555 292.001 189.68 292.001C185.805 292.001 182.663 295.142 182.663 299.018C182.663 302.893 185.805 306.034 189.68 306.034Z" fill="#FF9BBC"/>
<path d="M250.448 426.819C250.448 425.447 252.996 423.723 253.702 423.291C254.407 422.86 257.622 422.645 257.837 422.096C258.053 421.547 261.15 420.9 262.287 420.959C263.423 421.018 264.952 423.017 265.168 424.595C265.274 425.359 265.102 426.136 264.683 426.784C264.263 427.431 263.625 427.907 262.884 428.123C261.473 428.397 258.896 429.701 257.818 429.808C256.74 429.916 250.448 428.348 250.448 426.819Z" fill="#22C55E"/>
<path opacity="0.3" d="M250.448 426.819C250.448 425.447 252.996 423.723 253.702 423.291C254.407 422.86 257.622 422.645 257.837 422.096C258.053 421.547 261.15 420.9 262.287 420.959C263.423 421.018 264.952 423.017 265.168 424.595C265.274 425.359 265.102 426.136 264.683 426.784C264.263 427.431 263.625 427.907 262.884 428.123C261.473 428.397 258.896 429.701 257.818 429.808C256.74 429.916 250.448 428.348 250.448 426.819Z" fill="white"/>
<path d="M239.433 422.125C238.728 421.145 240.325 420.391 241.119 419.244C241.913 418.097 244.578 418.558 245.088 418.921C245.752 419.849 246.052 420.99 245.931 422.125C245.183 423.188 244.052 423.919 242.775 424.164C241.883 424.164 239.874 422.713 239.433 422.125Z" fill="#22C55E"/>
<path opacity="0.3" d="M239.433 422.125C238.728 421.145 240.325 420.391 241.119 419.244C241.913 418.097 244.578 418.558 245.088 418.921C245.752 419.849 246.052 420.99 245.931 422.125C245.183 423.188 244.052 423.919 242.775 424.164C241.883 424.164 239.874 422.713 239.433 422.125Z" fill="white"/>
<path d="M251.957 420.224C252.143 418.666 255.181 419.117 255.662 419.959C256.142 420.802 254.388 422.449 253.594 421.763C252.8 421.077 251.859 420.802 251.957 420.224Z" fill="#22C55E"/>
<path opacity="0.3" d="M251.957 420.224C252.143 418.666 255.181 419.117 255.662 419.959C256.142 420.802 254.388 422.449 253.594 421.763C252.8 421.077 251.859 420.802 251.957 420.224Z" fill="white"/>
<path d="M241.079 429.348C241.569 428.74 243.039 428.603 243.265 428.956C243.49 429.309 243.97 430.014 243.618 430.298C243.265 430.583 242.275 431.22 241.824 430.867C241.373 430.514 240.844 429.671 241.079 429.348Z" fill="#22C55E"/>
<path opacity="0.3" d="M241.079 429.348C241.569 428.74 243.039 428.603 243.265 428.956C243.49 429.309 243.97 430.014 243.618 430.298C243.265 430.583 242.275 431.22 241.824 430.867C241.373 430.514 240.844 429.671 241.079 429.348Z" fill="white"/>
<path d="M231.133 424.565C231.417 423.585 232.828 422.939 233.73 422.831C234.631 422.723 236.307 423.468 236.209 424.105C236.111 424.742 234.837 425.3 234.621 425.761C234.406 426.222 233.739 427.211 233.073 426.947C232.407 426.682 230.809 425.653 231.133 424.565Z" fill="#22C55E"/>
<path opacity="0.3" d="M231.133 424.565C231.417 423.585 232.828 422.939 233.73 422.831C234.631 422.723 236.307 423.468 236.209 424.105C236.111 424.742 234.837 425.3 234.621 425.761C234.406 426.222 233.739 427.211 233.073 426.947C232.407 426.682 230.809 425.653 231.133 424.565Z" fill="white"/>
</svg>
