<svg width="500" height="500" viewBox="0 0 500 500" fill="none" xmlns="http://www.w3.org/2000/svg">
<path d="M81.3802 447.19C-11.7498 393.42 -11.7498 306.25 81.3802 252.48C174.51 198.71 325.51 198.71 418.63 252.48C511.75 306.25 511.76 393.42 418.63 447.19C325.5 500.96 174.51 501 81.3802 447.19Z" fill="#E0E0E0"/>
<path d="M58.9301 384.44C62.4001 367.94 65.7701 354.93 61.9901 329.77C58.8301 308.65 47.0701 287.5 28.6401 284.35C13.4001 281.75 13.2701 296.98 23.2501 310.13C33.2301 323.28 51.2501 347.08 49.2501 364.51L48.0001 390.78L58.9301 384.44Z" fill="#38BDF8"/>
<path opacity="0.4" d="M58.9301 384.44C62.4001 367.94 65.7701 354.93 61.9901 329.77C58.8301 308.65 47.0701 287.5 28.6401 284.35C13.4001 281.75 13.2701 296.98 23.2501 310.13C33.2301 323.28 51.2501 347.08 49.2501 364.51L48.0001 390.78L58.9301 384.44Z" fill="white"/>
<path d="M58.7299 384.56C65.9999 336 43.6999 304.32 29.8599 292.74C29.7131 292.623 29.5264 292.568 29.3396 292.587C29.1528 292.605 28.9807 292.696 28.8599 292.84C28.7963 292.915 28.748 293.001 28.718 293.094C28.6881 293.188 28.6769 293.286 28.6853 293.384C28.6937 293.482 28.7214 293.577 28.7668 293.663C28.8123 293.75 28.8745 293.827 28.9499 293.89C42.6299 305.33 64.1799 337.33 57.0999 385.52L58.7299 384.56Z" fill="white"/>
<path d="M42.8301 393.74C41.6401 388.01 39.6901 374.88 31.7701 363.64C23.0001 351.21 9.50013 342 8.40013 334.44C7.07013 325.35 15.4001 320.8 27.3101 325.9C41.6301 332 55.1501 353.49 51.0701 389L42.8301 393.74Z" fill="#38BDF8"/>
<g opacity="0.25">
<path opacity="0.25" d="M42.8301 393.74C41.6401 388.01 39.6901 374.88 31.7701 363.64C23.0001 351.21 9.50013 342 8.40013 334.44C7.07013 325.35 15.4001 320.8 27.3101 325.9C41.6301 332 55.1501 353.49 51.0701 389L42.8301 393.74Z" fill="white"/>
</g>
<path d="M47.0003 387.33C46.8722 387.268 46.764 387.172 46.688 387.052C46.612 386.931 46.5712 386.792 46.5703 386.65C46.8503 354.99 29.1203 337.32 19.7103 332.4C19.5385 332.307 19.4099 332.15 19.352 331.963C19.2941 331.776 19.3114 331.574 19.4003 331.4C19.4446 331.313 19.5059 331.236 19.5805 331.173C19.6551 331.11 19.7416 331.063 19.8348 331.034C19.9281 331.005 20.0262 330.995 20.1233 331.005C20.2204 331.014 20.3146 331.043 20.4003 331.09C30.8103 336.53 48.4003 354.36 48.0603 386.67C48.0577 386.867 47.9775 387.055 47.8372 387.194C47.6968 387.332 47.5075 387.41 47.3103 387.41C47.2028 387.404 47.0974 387.377 47.0003 387.33Z" fill="white"/>
<path d="M289.57 366.97L373.25 318.63L269.25 258.57L185.56 306.91L289.57 366.97Z" fill="#E0E0E0"/>
<path d="M392.16 432.56C441.656 432.56 481.78 409.395 481.78 380.82C481.78 352.245 441.656 329.08 392.16 329.08C342.664 329.08 302.54 352.245 302.54 380.82C302.54 409.395 342.664 432.56 392.16 432.56Z" fill="#E0E0E0"/>
<path d="M270.3 370.29L290.61 358.56L197.37 304.51L42.8301 393.74L140.32 450.02L160.63 438.3L213.43 468.79L327.17 403.12L270.3 370.29Z" fill="#E0E0E0"/>
<path d="M288.51 359.18V303.15L361.3 261.12V317.15L288.51 359.18Z" fill="#38BDF8"/>
<path opacity="0.3" d="M288.51 359.18V303.15L361.3 261.12V317.15L288.51 359.18Z" fill="black"/>
<path d="M288.51 303.15L197.52 250.61V306.65L288.51 359.18V303.15Z" fill="#38BDF8"/>
<path opacity="0.55" d="M288.51 303.15L197.52 250.61V306.65L288.51 359.18V303.15Z" fill="black"/>
<path d="M288.51 303.15L363.45 259.86L270.31 206.06L195.36 249.36L288.51 303.15Z" fill="#38BDF8"/>
<path opacity="0.15" d="M288.51 303.15L363.45 259.86L270.31 206.06L195.36 249.36L288.51 303.15Z" fill="black"/>
<path d="M288.51 303.15V317.15L363.45 273.88V259.86L288.51 303.15Z" fill="#38BDF8"/>
<path opacity="0.3" d="M288.51 303.15V317.15L363.45 273.88V259.86L288.51 303.15Z" fill="black"/>
<path opacity="0.2" d="M288.51 317.15L361.3 275.13V278.21L288.51 320.24V317.15Z" fill="black"/>
<path d="M195.36 249.36L288.51 303.15V317.15L195.36 263.38V249.36Z" fill="#38BDF8"/>
<path opacity="0.55" d="M195.36 249.36L288.51 303.15V317.15L195.36 263.38V249.36Z" fill="black"/>
<path opacity="0.2" d="M288.51 317.15L197.52 264.62V267.7L288.51 320.24V317.15Z" fill="black"/>
<path d="M312.47 311.66L337.34 297.31C338.41 296.69 339.28 297.19 339.28 298.43V313.13C339.243 313.803 339.048 314.458 338.711 315.042C338.374 315.626 337.904 316.122 337.34 316.49L312.47 330.84C311.4 331.46 310.53 330.96 310.53 329.72V315C310.57 314.33 310.766 313.679 311.103 313.099C311.44 312.519 311.908 312.026 312.47 311.66Z" fill="#64748B"/>
<path d="M314.06 313.33L335.74 300.81C336.46 300.4 337.04 300.74 337.04 301.56V312.56C337.016 313.01 336.886 313.447 336.66 313.837C336.434 314.226 336.119 314.556 335.74 314.8L314.06 327.32C313.35 327.73 312.77 327.4 312.77 326.57V315.57C312.793 315.121 312.922 314.685 313.146 314.295C313.371 313.906 313.684 313.575 314.06 313.33Z" fill="#F5F5F5"/>
<g opacity="0.5">
<path opacity="0.5" d="M314.67 316.24C314.613 316.24 314.558 316.225 314.509 316.197C314.46 316.169 314.419 316.128 314.39 316.08C314.35 316.007 314.34 315.921 314.362 315.841C314.385 315.76 314.438 315.692 314.51 315.65L335 303.83C335.073 303.79 335.159 303.78 335.239 303.803C335.319 303.825 335.388 303.878 335.43 303.95C335.451 303.985 335.465 304.025 335.472 304.065C335.478 304.106 335.476 304.148 335.465 304.188C335.455 304.228 335.437 304.266 335.412 304.299C335.387 304.332 335.356 304.359 335.32 304.38L314.83 316.2C314.781 316.227 314.726 316.241 314.67 316.24Z" fill="#475569"/>
<path opacity="0.5" d="M314.67 319C314.613 318.999 314.558 318.985 314.509 318.957C314.46 318.929 314.419 318.888 314.39 318.84C314.35 318.767 314.34 318.681 314.362 318.601C314.385 318.52 314.438 318.452 314.51 318.41L335 306.54C335.036 306.519 335.075 306.505 335.117 306.5C335.158 306.494 335.2 306.497 335.24 306.509C335.28 306.52 335.318 306.539 335.35 306.565C335.383 306.591 335.41 306.623 335.43 306.66C335.451 306.695 335.465 306.735 335.472 306.775C335.478 306.816 335.476 306.858 335.465 306.898C335.455 306.938 335.437 306.976 335.412 307.009C335.387 307.042 335.356 307.069 335.32 307.09L314.83 318.9C314.787 318.948 314.732 318.983 314.67 319Z" fill="#475569"/>
<path opacity="0.5" d="M314.67 321.65C314.613 321.652 314.557 321.638 314.507 321.609C314.458 321.581 314.417 321.54 314.39 321.49C314.35 321.417 314.34 321.331 314.362 321.251C314.385 321.17 314.438 321.102 314.51 321.06L335 309.25C335.035 309.229 335.074 309.215 335.115 309.209C335.156 309.203 335.198 309.206 335.238 309.216C335.277 309.226 335.315 309.244 335.348 309.269C335.381 309.294 335.409 309.325 335.43 309.36C335.451 309.395 335.465 309.435 335.47 309.475C335.476 309.516 335.474 309.558 335.464 309.598C335.454 309.638 335.436 309.675 335.411 309.708C335.386 309.741 335.355 309.769 335.32 309.79L314.85 321.61C314.795 321.641 314.732 321.655 314.67 321.65Z" fill="#475569"/>
<path opacity="0.5" d="M314.67 324.36C314.613 324.359 314.558 324.345 314.509 324.317C314.46 324.289 314.419 324.248 314.39 324.2C314.35 324.127 314.34 324.041 314.362 323.961C314.385 323.88 314.438 323.812 314.51 323.77L335 312C335.073 311.96 335.159 311.95 335.239 311.973C335.319 311.995 335.388 312.048 335.43 312.12C335.451 312.155 335.465 312.195 335.472 312.236C335.478 312.276 335.476 312.318 335.465 312.358C335.455 312.398 335.437 312.436 335.412 312.469C335.387 312.502 335.356 312.529 335.32 312.55L314.85 324.37C314.79 324.384 314.728 324.38 314.67 324.36Z" fill="#475569"/>
</g>
<path opacity="0.3" d="M197.37 248.2L288.73 300.95L361.67 258.82L270.31 206.06L197.37 248.2Z" fill="black"/>
<path d="M288.73 298.81V242.78L361.52 200.75V256.79L288.73 298.81Z" fill="#38BDF8"/>
<path d="M288.73 242.78L197.74 190.25V246.28L288.73 298.81V242.78Z" fill="#38BDF8"/>
<path opacity="0.15" d="M288.73 242.78L197.74 190.25V246.28L288.73 298.81V242.78Z" fill="black"/>
<path d="M288.73 242.78L363.68 199.49L270.53 145.7L195.58 188.99L288.73 242.78Z" fill="#38BDF8"/>
<path opacity="0.2" d="M288.73 242.78L363.68 199.49L270.53 145.7L195.58 188.99L288.73 242.78Z" fill="white"/>
<path d="M288.73 242.78V256.79L363.68 213.52V199.49L288.73 242.78Z" fill="#38BDF8"/>
<path opacity="0.2" d="M288.73 256.79L361.52 214.76V217.84L288.73 259.87V256.79Z" fill="black"/>
<path d="M195.58 188.99L288.73 242.78V256.79L195.58 203.01V188.99Z" fill="#38BDF8"/>
<path opacity="0.2" d="M195.58 188.99L288.73 242.78V256.79L195.58 203.01V188.99Z" fill="black"/>
<path opacity="0.2" d="M288.73 256.79L197.74 204.25V207.34L288.73 259.87V256.79Z" fill="black"/>
<path d="M312.69 251.3L337.56 236.94C338.63 236.32 339.5 236.82 339.5 238.06V252.76C339.463 253.433 339.269 254.088 338.932 254.672C338.594 255.256 338.125 255.752 337.56 256.12L312.69 270.48C311.62 271.1 310.75 270.59 310.75 269.36V254.66C310.785 253.987 310.979 253.331 311.316 252.747C311.654 252.163 312.124 251.667 312.69 251.3Z" fill="#475569"/>
<path d="M314.28 253L336 240.45C336.72 240.03 337.3 240.37 337.3 241.19V252.19C337.277 252.64 337.146 253.077 336.92 253.467C336.694 253.856 336.379 254.186 336 254.43L314.28 267C313.57 267.41 312.99 267.08 312.99 266.25V255.25C313.014 254.8 313.142 254.362 313.367 253.971C313.591 253.58 313.904 253.247 314.28 253Z" fill="#F5F5F5"/>
<g opacity="0.5">
<path opacity="0.5" d="M314.89 255.87C314.836 255.871 314.783 255.857 314.735 255.831C314.688 255.805 314.648 255.766 314.62 255.72C314.598 255.684 314.584 255.644 314.578 255.602C314.572 255.561 314.574 255.518 314.584 255.477C314.594 255.436 314.612 255.398 314.637 255.364C314.662 255.33 314.694 255.302 314.73 255.28L335.2 243.47C335.272 243.428 335.357 243.415 335.438 243.436C335.519 243.457 335.588 243.508 335.63 243.58C335.673 243.652 335.685 243.737 335.664 243.818C335.644 243.898 335.592 243.968 335.52 244.01L315.05 255.83C315.001 255.857 314.946 255.871 314.89 255.87Z" fill="#475569"/>
<path opacity="0.5" d="M314.89 258.58C314.835 258.579 314.781 258.563 314.734 258.535C314.687 258.507 314.647 258.468 314.62 258.42C314.598 258.385 314.584 258.345 314.578 258.305C314.572 258.264 314.574 258.222 314.584 258.182C314.595 258.142 314.613 258.104 314.638 258.071C314.663 258.038 314.694 258.011 314.73 257.99L335.2 246.17C335.273 246.13 335.359 246.12 335.439 246.143C335.52 246.165 335.588 246.218 335.63 246.29C335.652 246.325 335.666 246.365 335.672 246.405C335.678 246.446 335.676 246.488 335.666 246.528C335.655 246.568 335.637 246.606 335.612 246.639C335.587 246.672 335.556 246.699 335.52 246.72L315.05 258.54C315.001 258.567 314.946 258.581 314.89 258.58Z" fill="#475569"/>
<path opacity="0.5" d="M314.89 261.29C314.835 261.289 314.781 261.273 314.734 261.245C314.687 261.217 314.647 261.178 314.62 261.13C314.598 261.095 314.584 261.055 314.578 261.014C314.572 260.974 314.574 260.932 314.584 260.892C314.595 260.852 314.613 260.814 314.638 260.781C314.663 260.748 314.694 260.721 314.73 260.7L335.2 248.88C335.236 248.859 335.276 248.845 335.317 248.84C335.358 248.834 335.4 248.837 335.441 248.849C335.481 248.86 335.518 248.879 335.551 248.905C335.583 248.931 335.61 248.963 335.63 249C335.652 249.035 335.666 249.075 335.672 249.115C335.678 249.156 335.676 249.198 335.666 249.238C335.655 249.278 335.637 249.316 335.612 249.349C335.587 249.382 335.556 249.409 335.52 249.43L315.05 261.24C315.002 261.27 314.947 261.287 314.89 261.29Z" fill="#475569"/>
<path opacity="0.5" d="M314.89 264C314.835 264.001 314.78 263.986 314.732 263.958C314.685 263.93 314.646 263.889 314.62 263.84C314.598 263.805 314.584 263.765 314.578 263.725C314.572 263.684 314.574 263.642 314.584 263.602C314.595 263.562 314.613 263.524 314.638 263.491C314.663 263.458 314.694 263.431 314.73 263.41L335.2 251.6C335.235 251.579 335.275 251.565 335.316 251.559C335.356 251.553 335.398 251.556 335.438 251.566C335.478 251.576 335.515 251.594 335.548 251.619C335.581 251.644 335.609 251.675 335.63 251.71C335.651 251.745 335.665 251.785 335.671 251.825C335.677 251.866 335.674 251.908 335.664 251.948C335.654 251.988 335.636 252.025 335.611 252.058C335.586 252.091 335.555 252.119 335.52 252.14L315.05 264C314.998 264.014 314.943 264.014 314.89 264Z" fill="#475569"/>
</g>
<path d="M145.13 439.1L57 388.22V134.23L145.13 185.11V439.1Z" fill="#1E293B"/>
<path d="M145.13 185.11L265.66 115.52V369.51L145.13 439.1V185.11Z" fill="#64748B"/>
<path d="M265.66 115.52L145.13 185.11L57 134.23L177.53 64.64L265.66 115.52Z" fill="#475569"/>
<path d="M155.77 359.57L255.01 302.27V361.45L155.77 418.75V359.57Z" fill="#263238"/>
<path d="M297.59 336.01L250.34 308.75V360.89L297.59 388.16V336.01Z" fill="#64748B"/>
<g opacity="0.1">
<path opacity="0.1" d="M297.59 336.01L250.34 308.75V360.89L297.59 388.16V336.01Z" fill="black"/>
</g>
<path d="M253.64 306.83L250.34 308.74L297.59 336.01L300.9 334.11L253.64 306.83Z" fill="#475569"/>
<path d="M255.46 318.67C255.48 318.459 255.446 318.245 255.36 318.051C255.274 317.857 255.14 317.688 254.97 317.56C254.934 317.528 254.894 317.501 254.85 317.48L252.3 316C252.1 315.91 251.88 315.875 251.663 315.898C251.445 315.921 251.237 316.001 251.06 316.13L203.44 343.56L202.67 340.94C202.557 340.526 202.293 340.169 201.93 339.94L199.27 338.4C199.026 338.253 198.746 338.175 198.46 338.175C198.175 338.175 197.895 338.253 197.65 338.4L176 351C175.488 351.326 175.059 351.767 174.747 352.288C174.435 352.809 174.247 353.395 174.2 354V417C174.179 417.211 174.212 417.423 174.296 417.617C174.38 417.812 174.512 417.981 174.68 418.11L177.41 419.7C177.607 419.778 177.82 419.805 178.029 419.778C178.239 419.752 178.439 419.674 178.61 419.55L253.73 376.21C254.244 375.874 254.67 375.422 254.976 374.891C255.282 374.359 255.458 373.762 255.49 373.15L255.46 318.67Z" fill="#38BDF8"/>
<path d="M255.46 318.67V373.24C255.427 373.852 255.249 374.448 254.942 374.978C254.634 375.508 254.205 375.958 253.69 376.29L178.4 419.75C178.245 419.856 178.063 419.916 177.875 419.923C177.687 419.93 177.501 419.883 177.338 419.79C177.175 419.696 177.042 419.558 176.954 419.391C176.866 419.225 176.826 419.038 176.84 418.85V355.58C176.862 354.965 177.041 354.366 177.36 353.84C177.66 353.308 178.086 352.859 178.6 352.53L200.3 340C200.535 339.852 200.804 339.768 201.081 339.756C201.358 339.744 201.633 339.804 201.88 339.93H201.93C202.112 340.04 202.27 340.185 202.395 340.357C202.52 340.529 202.61 340.723 202.66 340.93L203.44 343.56L203.68 344.2C204 345.28 205.76 345.28 206.74 344.72L253.74 317.66C253.905 317.543 254.095 317.466 254.295 317.437C254.495 317.407 254.699 317.426 254.89 317.49H254.97C255.151 317.624 255.292 317.804 255.379 318.012C255.465 318.22 255.493 318.447 255.46 318.67Z" fill="#38BDF8"/>
<path opacity="0.15" d="M255.46 318.67V373.24C255.427 373.852 255.249 374.448 254.942 374.978C254.634 375.508 254.205 375.958 253.69 376.29L178.4 419.75C178.245 419.856 178.063 419.916 177.875 419.923C177.687 419.93 177.501 419.883 177.338 419.79C177.175 419.696 177.042 419.558 176.954 419.391C176.866 419.225 176.826 419.038 176.84 418.85V355.58C176.862 354.965 177.041 354.366 177.36 353.84C177.66 353.308 178.086 352.859 178.6 352.53L200.3 340C200.535 339.852 200.804 339.768 201.081 339.756C201.358 339.744 201.633 339.804 201.88 339.93H201.93C202.112 340.04 202.27 340.185 202.395 340.357C202.52 340.529 202.61 340.723 202.66 340.93L203.44 343.56L203.68 344.2C204 345.28 205.76 345.28 206.74 344.72L253.74 317.66C253.905 317.543 254.095 317.466 254.295 317.437C254.495 317.407 254.699 317.426 254.89 317.49H254.97C255.151 317.624 255.292 317.804 255.379 318.012C255.465 318.22 255.493 318.447 255.46 318.67Z" fill="black"/>
<path opacity="0.35" d="M177.48 419.81H177.41L174.68 418.23C174.512 418.097 174.38 417.924 174.296 417.726C174.212 417.529 174.179 417.313 174.2 417.1V354C174.222 353.385 174.401 352.786 174.72 352.26L177.36 353.8C177.044 354.323 176.868 354.919 176.85 355.53V418.8C176.833 419.014 176.885 419.227 176.998 419.409C177.112 419.591 177.281 419.731 177.48 419.81Z" fill="black"/>
<path d="M264 323.63C264.021 323.417 263.987 323.202 263.901 323.006C263.816 322.81 263.681 322.639 263.51 322.51C263.475 322.479 263.434 322.455 263.39 322.44L260.8 321C260.6 320.91 260.38 320.875 260.163 320.898C259.945 320.921 259.737 321.001 259.56 321.13L211.95 348.57L211.17 345.94C211.062 345.523 210.797 345.165 210.43 344.94L207.78 343.4C207.531 343.261 207.248 343.193 206.963 343.201C206.678 343.21 206.4 343.296 206.16 343.45L184.46 355.97C183.951 356.303 183.526 356.75 183.221 357.276C182.915 357.802 182.737 358.393 182.7 359V422C182.679 422.212 182.712 422.426 182.796 422.622C182.88 422.818 183.012 422.989 183.18 423.12L185.91 424.7C186.106 424.78 186.318 424.809 186.528 424.785C186.738 424.76 186.938 424.683 187.11 424.56L262.23 381.21C262.742 380.875 263.168 380.425 263.474 379.895C263.78 379.365 263.956 378.771 263.99 378.16L264 323.63Z" fill="#38BDF8"/>
<path opacity="0.15" d="M210.38 344.88C210.133 344.754 209.858 344.694 209.581 344.706C209.304 344.718 209.035 344.802 208.8 344.95L187.11 357.48C186.591 357.81 186.161 358.263 185.86 358.8L183.22 357.26C183.511 356.719 183.939 356.264 184.46 355.94L206.16 343.41C206.404 343.266 206.682 343.19 206.965 343.19C207.248 343.19 207.526 343.266 207.77 343.41L210.38 344.88Z" fill="white"/>
<path opacity="0.15" d="M263.35 322.44C263.156 322.378 262.951 322.361 262.75 322.39C262.549 322.42 262.357 322.495 262.19 322.61L215.19 349.67C214.19 350.24 212.46 350.24 212.13 349.15L211.9 348.51L259.51 321.07C259.745 320.925 260.014 320.842 260.29 320.83C260.451 320.827 260.61 320.869 260.75 320.95L263.35 322.44Z" fill="white"/>
<path d="M264 323.63V378.19C263.968 378.804 263.79 379.401 263.483 379.933C263.175 380.465 262.746 380.916 262.23 381.25L186.9 424.71C186.745 424.816 186.563 424.876 186.375 424.883C186.187 424.89 186.001 424.843 185.838 424.75C185.675 424.656 185.542 424.518 185.454 424.351C185.366 424.185 185.326 423.998 185.34 423.81V360.53C185.362 359.918 185.541 359.323 185.86 358.8C186.16 358.266 186.586 357.813 187.1 357.48L208.8 345C209.033 344.849 209.302 344.762 209.579 344.748C209.857 344.734 210.133 344.793 210.38 344.92H210.43C210.795 345.144 211.058 345.504 211.16 345.92L211.95 348.54L212.18 349.19C212.51 350.27 214.26 350.27 215.24 349.71L262.24 322.64C262.406 322.526 262.596 322.451 262.795 322.422C262.995 322.392 263.198 322.409 263.39 322.47H263.47C263.652 322.6 263.797 322.776 263.89 322.979C263.983 323.183 264.021 323.407 264 323.63Z" fill="#38BDF8"/>
<path opacity="0.2" d="M186 424.76C186 424.76 185.94 424.76 185.92 424.76L183.19 423.18C183.022 423.049 182.889 422.878 182.805 422.682C182.722 422.486 182.689 422.272 182.71 422.06V359C182.731 358.388 182.91 357.792 183.23 357.27L185.87 358.81C185.554 359.337 185.378 359.936 185.36 360.55V423.8C185.354 424.007 185.413 424.21 185.527 424.382C185.642 424.554 185.807 424.686 186 424.76Z" fill="black"/>
<path d="M272.46 328.58C272.479 328.368 272.445 328.155 272.361 327.96C272.277 327.764 272.146 327.593 271.98 327.46L271.85 327.39L269.3 325.9C269.1 325.81 268.88 325.775 268.663 325.798C268.445 325.821 268.237 325.901 268.06 326.03L220.45 353.46L219.67 350.84C219.557 350.426 219.293 350.069 218.93 349.84L216.28 348.3C216.036 348.153 215.756 348.075 215.47 348.075C215.185 348.075 214.905 348.153 214.66 348.3L193 360.89C192.473 361.226 192.034 361.684 191.721 362.225C191.407 362.767 191.229 363.375 191.2 364V427C191.179 427.211 191.212 427.423 191.296 427.617C191.38 427.812 191.512 427.981 191.68 428.11L194.41 429.7C194.607 429.778 194.82 429.805 195.029 429.778C195.239 429.752 195.439 429.674 195.61 429.55L270.73 386.21C271.244 385.874 271.67 385.422 271.976 384.891C272.282 384.359 272.458 383.762 272.49 383.15L272.46 328.58Z" fill="#38BDF8"/>
<path opacity="0.3" d="M218.88 349.84C218.635 349.709 218.359 349.646 218.081 349.658C217.803 349.671 217.533 349.758 217.3 349.91L195.61 362.43C195.095 362.765 194.666 363.217 194.36 363.75L191.72 362.21C192.018 361.671 192.448 361.217 192.97 360.89L214.66 348.37C214.903 348.224 215.182 348.146 215.465 348.146C215.749 348.146 216.027 348.224 216.27 348.37L218.88 349.84Z" fill="white"/>
<path opacity="0.3" d="M271.85 327.39C271.656 327.328 271.451 327.311 271.25 327.34C271.049 327.37 270.857 327.445 270.69 327.56L223.69 354.63C222.69 355.19 220.96 355.19 220.63 354.11L220.4 353.46L268.05 326C268.286 325.857 268.554 325.778 268.83 325.77C268.99 325.769 269.148 325.807 269.29 325.88L271.85 327.39Z" fill="white"/>
<path d="M272.46 328.58V383.15C272.427 383.762 272.249 384.358 271.942 384.888C271.634 385.418 271.205 385.868 270.69 386.2L195.4 429.66C195.245 429.766 195.063 429.826 194.875 429.833C194.687 429.84 194.501 429.794 194.338 429.7C194.175 429.606 194.042 429.468 193.954 429.301C193.866 429.135 193.826 428.948 193.84 428.76V365.49C193.862 364.875 194.041 364.276 194.36 363.75C194.663 363.221 195.088 362.771 195.6 362.44L217.3 349.91C217.537 349.763 217.807 349.679 218.086 349.666C218.364 349.654 218.641 349.714 218.89 349.84C219.072 349.95 219.23 350.095 219.355 350.267C219.48 350.439 219.57 350.633 219.62 350.84L220.41 353.47L220.64 354.11C220.97 355.19 222.72 355.19 223.7 354.63L270.7 327.57C270.867 327.453 271.058 327.376 271.26 327.347C271.461 327.317 271.667 327.336 271.86 327.4H271.93C272.117 327.53 272.265 327.709 272.358 327.917C272.451 328.125 272.487 328.354 272.46 328.58Z" fill="#38BDF8"/>
<path opacity="0.15" d="M272.46 328.58V383.15C272.427 383.762 272.249 384.358 271.942 384.888C271.634 385.418 271.205 385.868 270.69 386.2L195.4 429.66C195.245 429.766 195.063 429.826 194.875 429.833C194.687 429.84 194.501 429.794 194.338 429.7C194.175 429.606 194.042 429.468 193.954 429.301C193.866 429.135 193.826 428.948 193.84 428.76V365.49C193.862 364.875 194.041 364.276 194.36 363.75C194.663 363.221 195.088 362.771 195.6 362.44L217.3 349.91C217.537 349.763 217.807 349.679 218.086 349.666C218.364 349.654 218.641 349.714 218.89 349.84C219.072 349.95 219.23 350.095 219.355 350.267C219.48 350.439 219.57 350.633 219.62 350.84L220.41 353.47L220.64 354.11C220.97 355.19 222.72 355.19 223.7 354.63L270.7 327.57C270.867 327.453 271.058 327.376 271.26 327.347C271.461 327.317 271.667 327.336 271.86 327.4H271.93C272.117 327.53 272.265 327.709 272.358 327.917C272.451 328.125 272.487 328.354 272.46 328.58Z" fill="white"/>
<path opacity="0.05" d="M194.49 429.72H194.41L191.68 428.14C191.512 428.007 191.38 427.834 191.296 427.636C191.212 427.439 191.179 427.223 191.2 427.01V364C191.222 363.385 191.401 362.786 191.72 362.26L194.36 363.8C194.043 364.323 193.867 364.919 193.85 365.53V428.8C193.853 429 193.915 429.194 194.029 429.358C194.143 429.522 194.304 429.648 194.49 429.72Z" fill="black"/>
<path d="M281 333.54C281.02 333.328 280.987 333.114 280.903 332.919C280.819 332.723 280.688 332.551 280.52 332.42C280.48 332.391 280.437 332.367 280.39 332.35L277.84 330.86C277.64 330.77 277.42 330.735 277.203 330.758C276.985 330.781 276.777 330.861 276.6 330.99L228.99 358.43L228.21 355.8C228.102 355.383 227.837 355.025 227.47 354.8L224.82 353.26C224.571 353.121 224.288 353.053 224.003 353.061C223.718 353.07 223.44 353.156 223.2 353.31L201.51 365.83C201.002 366.157 200.577 366.599 200.27 367.12C199.962 367.641 199.781 368.227 199.74 368.83V431.83C199.719 432.042 199.752 432.256 199.836 432.452C199.92 432.648 200.052 432.819 200.22 432.95L202.95 434.53C203.146 434.608 203.358 434.636 203.568 434.612C203.777 434.587 203.977 434.511 204.15 434.39L279.27 391.04C279.776 390.71 280.198 390.268 280.503 389.747C280.809 389.226 280.989 388.642 281.03 388.04L281 333.54Z" fill="#38BDF8"/>
<path opacity="0.5" d="M227.39 354.79C227.143 354.664 226.868 354.604 226.591 354.616C226.314 354.628 226.045 354.712 225.81 354.86L204.11 367.39C203.591 367.72 203.161 368.173 202.86 368.71L200.22 367.17C200.512 366.627 200.944 366.171 201.47 365.85L223.16 353.32C223.406 353.176 223.685 353.1 223.97 353.1C224.255 353.1 224.535 353.176 224.78 353.32L227.39 354.79Z" fill="white"/>
<path opacity="0.5" d="M280.35 332.35C280.156 332.288 279.951 332.271 279.75 332.3C279.549 332.33 279.357 332.405 279.19 332.52L232.19 359.58C231.19 360.14 229.46 360.15 229.13 359.06L228.9 358.42L276.55 331C276.785 330.855 277.054 330.772 277.33 330.76C277.491 330.757 277.65 330.799 277.79 330.88L280.35 332.35Z" fill="white"/>
<path d="M281 333.54V388.1C280.968 388.714 280.79 389.311 280.483 389.843C280.175 390.375 279.746 390.826 279.23 391.16L203.92 434.62C203.764 434.727 203.581 434.787 203.392 434.793C203.203 434.8 203.016 434.753 202.853 434.658C202.689 434.562 202.556 434.423 202.469 434.255C202.382 434.087 202.344 433.898 202.36 433.71V370.44C202.378 369.829 202.554 369.233 202.87 368.71C203.173 368.175 203.602 367.722 204.12 367.39L225.81 354.87C226.045 354.719 226.315 354.632 226.594 354.618C226.873 354.604 227.151 354.663 227.4 354.79C227.766 355.016 228.03 355.374 228.14 355.79L228.92 358.41L229.15 359.06C229.48 360.14 231.23 360.14 232.21 359.58L279.21 332.51C279.377 332.395 279.569 332.32 279.77 332.29C279.971 332.261 280.176 332.278 280.37 332.34H280.44C280.634 332.47 280.789 332.65 280.887 332.862C280.986 333.073 281.025 333.308 281 333.54Z" fill="#38BDF8"/>
<path opacity="0.3" d="M281 333.54V388.1C280.968 388.714 280.79 389.311 280.483 389.843C280.175 390.375 279.746 390.826 279.23 391.16L203.92 434.62C203.764 434.727 203.581 434.787 203.392 434.793C203.203 434.8 203.016 434.753 202.853 434.658C202.689 434.562 202.556 434.423 202.469 434.255C202.382 434.087 202.344 433.898 202.36 433.71V370.44C202.378 369.829 202.554 369.233 202.87 368.71C203.173 368.175 203.602 367.722 204.12 367.39L225.81 354.87C226.045 354.719 226.315 354.632 226.594 354.618C226.873 354.604 227.151 354.663 227.4 354.79C227.766 355.016 228.03 355.374 228.14 355.79L228.92 358.41L229.15 359.06C229.48 360.14 231.23 360.14 232.21 359.58L279.21 332.51C279.377 332.395 279.569 332.32 279.77 332.29C279.971 332.261 280.176 332.278 280.37 332.34H280.44C280.634 332.47 280.789 332.65 280.887 332.862C280.986 333.073 281.025 333.308 281 333.54Z" fill="white"/>
<path d="M204.98 389.48L157.72 362.22V414.36L204.97 441.63L204.98 389.48Z" fill="#64748B"/>
<path d="M161.03 360.31L157.72 362.21L204.98 389.48L208.28 387.58L161.03 360.31Z" fill="#475569"/>
<path d="M206.54 386.88L305.78 329.58V388.77L206.54 446.06V386.88Z" fill="#475569"/>
<path d="M206.54 386.88L201.53 383.98V443.17L206.54 446.06V386.88Z" fill="#263238"/>
<path d="M201.53 383.98L300.77 326.68L305.78 329.58L206.54 386.88L201.53 383.98Z" fill="#64748B"/>
<path d="M273.48 363.48L269.99 361.48C269.824 361.396 269.638 361.36 269.452 361.375C269.267 361.391 269.089 361.459 268.94 361.57C268.512 361.847 268.156 362.221 267.902 362.663C267.648 363.105 267.504 363.601 267.48 364.11C267.447 364.3 267.471 364.496 267.547 364.674C267.623 364.851 267.749 365.003 267.91 365.11L271.41 367.11C271.9 367.39 272.03 367.64 272.04 367.68C272.05 367.72 271.86 368.12 271.13 368.54L254.86 377.94C253.84 378.465 252.715 378.752 251.568 378.78C250.422 378.808 249.284 378.575 248.24 378.1L244.76 376.1C244.598 376.028 244.421 376.001 244.245 376.02C244.069 376.039 243.902 376.105 243.76 376.21C243.333 376.489 242.978 376.864 242.723 377.305C242.468 377.746 242.319 378.241 242.29 378.75C242.268 378.93 242.296 379.113 242.37 379.278C242.444 379.444 242.561 379.586 242.71 379.69L246.2 381.69C247.777 382.529 249.544 382.949 251.33 382.91C253.294 382.938 255.232 382.463 256.96 381.53L273.24 372.13C274.092 371.724 274.82 371.097 275.348 370.315C275.875 369.532 276.183 368.622 276.24 367.68C276.203 366.796 275.927 365.938 275.441 365.198C274.955 364.459 274.277 363.865 273.48 363.48Z" fill="#263238"/>
<path d="M213.23 387.57L232.12 376.66C232.75 376.3 233.25 376.59 233.25 377.31V386.92C233.23 387.311 233.117 387.692 232.92 388.031C232.724 388.37 232.45 388.658 232.12 388.87L213.23 399.78C212.61 400.14 212.1 399.85 212.1 399.13V389.52C212.123 389.129 212.237 388.749 212.433 388.41C212.629 388.072 212.902 387.784 213.23 387.57Z" fill="#FAFAFA"/>
<path d="M213.3 398.36V389.52C213.321 389.338 213.378 389.163 213.469 389.005C213.561 388.847 213.684 388.709 213.83 388.6L232.06 378.08V386.92C232.038 387.101 231.979 387.275 231.888 387.433C231.797 387.591 231.675 387.73 231.53 387.84L213.3 398.36ZM231.84 378.45L213.94 388.79C213.71 388.97 213.556 389.231 213.51 389.52V398L231.42 387.66C231.648 387.479 231.799 387.218 231.84 386.93V378.45Z" fill="#38BDF8"/>
<path d="M215.63 391.56C215.553 391.56 215.477 391.539 215.411 391.501C215.344 391.462 215.289 391.407 215.25 391.34C215.221 391.291 215.203 391.236 215.196 391.18C215.188 391.124 215.192 391.066 215.207 391.012C215.222 390.957 215.247 390.905 215.282 390.86C215.317 390.816 215.361 390.778 215.41 390.75L229.51 382.61C229.609 382.553 229.727 382.538 229.838 382.568C229.949 382.598 230.043 382.671 230.1 382.77C230.157 382.869 230.172 382.987 230.142 383.098C230.112 383.209 230.039 383.303 229.94 383.36L215.84 391.5C215.777 391.54 215.704 391.56 215.63 391.56Z" fill="#E0E0E0"/>
<path d="M215.63 393.89C215.554 393.892 215.478 393.873 215.412 393.836C215.345 393.8 215.289 393.746 215.25 393.68C215.192 393.579 215.176 393.459 215.206 393.347C215.236 393.234 215.31 393.138 215.41 393.08L229.51 384.94C229.61 384.883 229.728 384.868 229.838 384.898C229.949 384.928 230.043 385.001 230.1 385.1C230.157 385.199 230.172 385.317 230.142 385.428C230.112 385.539 230.04 385.633 229.94 385.69L215.84 393.83C215.777 393.87 215.704 393.89 215.63 393.89Z" fill="#E0E0E0"/>
<path d="M160.71 287.15L259.96 229.85L259.95 289.04L160.71 346.34V287.15Z" fill="#475569"/>
<path d="M160.71 287.15L155.7 284.26V343.45L160.71 346.34V287.15Z" fill="#263238"/>
<path d="M155.7 284.26L254.94 226.96L259.96 229.85L160.71 287.15L155.7 284.26Z" fill="#64748B"/>
<path d="M155.7 284.26L168 276.93L180.34 269.66C188.57 264.81 196.85 260.05 205.1 255.24L230 241C238.31 236.29 246.6 231.55 255 226.91L260 229.91L254.9 227H255C246.81 231.91 238.56 236.72 230.33 241.56L205.54 256C197.25 260.74 188.99 265.53 180.67 270.23L168.21 277.29L155.7 284.26Z" fill="#263238"/>
<path d="M227.66 263.76L224.17 261.76C224.003 261.674 223.814 261.636 223.627 261.652C223.439 261.668 223.26 261.737 223.11 261.85C222.684 262.126 222.329 262.5 222.075 262.939C221.822 263.379 221.676 263.873 221.65 264.38C221.618 264.571 221.643 264.768 221.721 264.945C221.799 265.123 221.927 265.274 222.09 265.38L225.59 267.38C226.08 267.66 226.21 267.9 226.22 267.95C226.23 268 226.04 268.39 225.31 268.81L209 278.17C207.982 278.699 206.856 278.989 205.709 279.018C204.562 279.048 203.424 278.816 202.38 278.34L198.89 276.34C198.728 276.268 198.551 276.241 198.375 276.26C198.199 276.279 198.032 276.345 197.89 276.45C197.462 276.727 197.106 277.101 196.852 277.543C196.598 277.985 196.453 278.481 196.43 278.99C196.409 279.168 196.436 279.347 196.508 279.511C196.58 279.675 196.695 279.816 196.84 279.92L200.32 281.92C201.9 282.762 203.67 283.186 205.46 283.15C207.425 283.178 209.364 282.7 211.09 281.76L227.36 272.37C228.21 271.962 228.936 271.334 229.463 270.552C229.991 269.77 230.3 268.861 230.36 267.92C230.322 267.049 230.051 266.204 229.576 265.472C229.102 264.741 228.44 264.15 227.66 263.76Z" fill="#263238"/>
<path d="M167.4 287.85L186.3 276.94C186.92 276.58 187.43 276.87 187.43 277.59V287.2C187.407 287.591 187.293 287.971 187.097 288.31C186.901 288.648 186.628 288.936 186.3 289.15L167.4 300.06C166.78 300.42 166.28 300.13 166.28 299.41V289.8C166.3 289.41 166.413 289.03 166.607 288.691C166.802 288.353 167.073 288.064 167.4 287.85Z" fill="#FAFAFA"/>
<path d="M167.47 298.64V289.8C167.492 289.619 167.551 289.445 167.642 289.287C167.733 289.129 167.855 288.99 168 288.88L186.23 278.35V287.2C186.207 287.381 186.148 287.555 186.057 287.713C185.966 287.871 185.845 288.01 185.7 288.12L167.47 298.64ZM186 278.73L168.09 289.07C167.862 289.251 167.711 289.512 167.67 289.8V298.27L185.57 287.93C185.8 287.75 185.954 287.489 186 287.2V278.73Z" fill="#38BDF8"/>
<path d="M169.8 291.83C169.724 291.831 169.649 291.812 169.582 291.775C169.515 291.738 169.459 291.685 169.42 291.62C169.367 291.518 169.354 291.4 169.383 291.289C169.413 291.178 169.483 291.082 169.58 291.02L183.68 282.88C183.78 282.83 183.895 282.821 184.002 282.853C184.109 282.885 184.2 282.957 184.256 283.054C184.312 283.15 184.329 283.265 184.304 283.374C184.278 283.483 184.213 283.578 184.12 283.64L170 291.78C169.938 291.812 169.869 291.829 169.8 291.83Z" fill="#E0E0E0"/>
<path d="M169.8 294.17C169.702 294.174 169.606 294.145 169.527 294.088C169.448 294.03 169.391 293.947 169.365 293.853C169.34 293.759 169.347 293.659 169.386 293.569C169.425 293.479 169.493 293.406 169.58 293.36L183.68 285.22C183.781 285.162 183.9 285.146 184.013 285.176C184.125 285.206 184.221 285.279 184.28 285.38C184.335 285.48 184.349 285.597 184.319 285.707C184.289 285.817 184.218 285.912 184.12 285.97L170 294.11C169.939 294.145 169.87 294.166 169.8 294.17Z" fill="#E0E0E0"/>
<path d="M160.71 211.42L259.96 154.12L259.95 213.31L160.71 270.61V211.42Z" fill="#475569"/>
<path d="M160.71 211.42L155.7 208.53V267.72L160.71 270.61V211.42Z" fill="#263238"/>
<path d="M155.7 208.53L254.94 151.23L259.96 154.12L160.71 211.42L155.7 208.53Z" fill="#64748B"/>
<path d="M155.7 208.53L168 201.2L180.34 193.93C188.57 189.08 196.85 184.32 205.1 179.51L230 165.24C238.31 160.53 246.6 155.79 255 151.15L260 154.15L254.94 151.34H255C246.81 156.26 238.56 161.06 230.33 165.91L205.55 180.28C197.26 185.02 189 189.81 180.68 194.51L168.22 201.57L155.7 208.53Z" fill="#263238"/>
<path d="M227.66 188L224.17 186C224.003 185.914 223.814 185.876 223.627 185.892C223.439 185.908 223.26 185.977 223.11 186.09C222.684 186.366 222.329 186.739 222.075 187.179C221.822 187.619 221.676 188.113 221.65 188.62C221.618 188.811 221.643 189.008 221.721 189.185C221.799 189.363 221.927 189.514 222.09 189.62L225.59 191.62C226.08 191.9 226.21 192.14 226.22 192.19C226.23 192.24 226.04 192.63 225.31 193.05L209 202.44C207.982 202.969 206.856 203.259 205.709 203.288C204.562 203.318 203.424 203.086 202.38 202.61L198.89 200.61C198.728 200.538 198.551 200.511 198.375 200.53C198.199 200.549 198.032 200.615 197.89 200.72C197.462 200.997 197.106 201.371 196.852 201.813C196.598 202.255 196.453 202.751 196.43 203.26C196.409 203.438 196.436 203.617 196.508 203.781C196.58 203.945 196.695 204.086 196.84 204.19L200.32 206.19C201.9 207.032 203.67 207.456 205.46 207.42C207.425 207.448 209.364 206.97 211.09 206.03L227.36 196.64C228.21 196.232 228.936 195.604 229.463 194.822C229.991 194.04 230.3 193.131 230.36 192.19C230.327 191.314 230.059 190.462 229.584 189.725C229.109 188.988 228.444 188.392 227.66 188Z" fill="#263238"/>
<path d="M167.4 211.72L186.3 200.81C186.92 200.45 187.43 200.74 187.43 201.46V211.07C187.415 211.469 187.305 211.859 187.108 212.207C186.911 212.555 186.634 212.851 186.3 213.07L167.4 223.98C166.78 224.34 166.28 224.05 166.28 223.33V213.72C166.293 213.321 166.401 212.932 166.596 212.583C166.791 212.235 167.067 211.939 167.4 211.72Z" fill="#FAFAFA"/>
<path d="M167.47 222.51V213.67C167.492 213.489 167.551 213.315 167.642 213.157C167.733 212.999 167.855 212.86 168 212.75L186.23 202.22V211.07C186.207 211.251 186.148 211.425 186.057 211.583C185.966 211.741 185.845 211.88 185.7 211.99L167.47 222.51ZM186 202.6L168.09 212.94C167.862 213.121 167.711 213.382 167.67 213.67V222.14L185.57 211.8C185.8 211.62 185.954 211.359 186 211.07V202.6Z" fill="#38BDF8"/>
<path d="M169.8 215.71C169.723 215.709 169.648 215.688 169.581 215.649C169.515 215.611 169.459 215.556 169.42 215.49C169.367 215.39 169.355 215.273 169.384 215.164C169.414 215.054 169.484 214.96 169.58 214.9L183.68 206.75C183.73 206.717 183.786 206.694 183.845 206.683C183.905 206.672 183.965 206.674 184.024 206.687C184.083 206.701 184.138 206.726 184.186 206.762C184.235 206.798 184.275 206.843 184.305 206.895C184.335 206.947 184.354 207.005 184.361 207.065C184.368 207.125 184.363 207.185 184.346 207.243C184.328 207.3 184.299 207.354 184.26 207.4C184.222 207.446 184.174 207.483 184.12 207.51L170 215.65C169.939 215.685 169.87 215.706 169.8 215.71Z" fill="#E0E0E0"/>
<path d="M169.8 218C169.723 217.999 169.648 217.978 169.581 217.939C169.515 217.901 169.459 217.846 169.42 217.78C169.367 217.68 169.355 217.563 169.384 217.454C169.414 217.344 169.484 217.25 169.58 217.19L183.68 209.05C183.781 208.992 183.9 208.976 184.013 209.006C184.125 209.036 184.221 209.109 184.28 209.21C184.335 209.31 184.349 209.427 184.319 209.537C184.289 209.647 184.218 209.742 184.12 209.8L170 218C169.934 218.015 169.866 218.015 169.8 218Z" fill="#E0E0E0"/>
<path d="M156.83 186.12L195.62 163.74C196.24 163.38 196.74 163.68 196.74 164.39V178.07C196.727 178.469 196.619 178.858 196.424 179.207C196.229 179.555 195.953 179.851 195.62 180.07L156.83 202.4C156.2 202.76 155.7 202.47 155.7 201.75V188.07C155.72 187.679 155.833 187.298 156.03 186.959C156.226 186.62 156.501 186.332 156.83 186.12Z" fill="#FAFAFA"/>
<path d="M156.89 201V188.07C156.913 187.889 156.971 187.715 157.062 187.557C157.153 187.399 157.275 187.26 157.42 187.15L195.55 165.15V178.06C195.527 178.241 195.469 178.415 195.378 178.573C195.287 178.731 195.165 178.87 195.02 178.98L156.89 201ZM195.33 165.56L157.53 187.36C157.306 187.544 157.156 187.804 157.11 188.09V200.63L194.91 178.82C195.138 178.639 195.288 178.378 195.33 178.09V165.56Z" fill="#38BDF8"/>
<path d="M162.25 191.27L163.73 186.45C163.73 186.39 163.79 186.31 163.84 186.19C163.889 186.082 163.969 185.991 164.07 185.93L164.6 185.62C164.622 185.603 164.648 185.594 164.675 185.594C164.703 185.594 164.729 185.603 164.75 185.62C164.794 185.673 164.815 185.741 164.81 185.81V193.58C164.81 193.673 164.789 193.765 164.75 193.85C164.72 193.924 164.668 193.987 164.6 194.03L163.97 194.39C163.95 194.409 163.923 194.42 163.895 194.42C163.868 194.42 163.841 194.409 163.82 194.39C163.798 194.364 163.781 194.334 163.771 194.301C163.76 194.269 163.757 194.234 163.76 194.2V189.5L162.76 192.79C162.735 192.881 162.698 192.968 162.65 193.05C162.619 193.14 162.555 193.215 162.47 193.26L162.07 193.49C161.99 193.537 161.93 193.537 161.89 193.49C161.843 193.457 161.805 193.412 161.78 193.36L160.78 191.24V195.94C160.78 196.033 160.759 196.125 160.72 196.21C160.69 196.284 160.638 196.347 160.57 196.39L159.94 196.75C159.92 196.769 159.893 196.78 159.865 196.78C159.838 196.78 159.811 196.769 159.79 196.75C159.768 196.724 159.751 196.694 159.741 196.661C159.73 196.629 159.727 196.594 159.73 196.56V188.79C159.731 188.7 159.752 188.611 159.79 188.53C159.818 188.455 159.871 188.391 159.94 188.35L160.47 188.04C160.58 187.98 160.65 187.98 160.7 188.04L160.81 188.17L162.25 191.27Z" fill="#475569"/>
<path d="M170.18 182.4C170.2 182.381 170.227 182.37 170.255 182.37C170.283 182.37 170.31 182.381 170.33 182.4C170.356 182.424 170.376 182.453 170.388 182.486C170.4 182.52 170.404 182.555 170.4 182.59C170.405 182.63 170.405 182.67 170.4 182.71L168.55 188.79V191.44C168.548 191.53 168.528 191.618 168.49 191.7C168.462 191.775 168.409 191.839 168.34 191.88L167.71 192.24C167.691 192.258 167.666 192.269 167.64 192.269C167.614 192.269 167.589 192.258 167.57 192.24C167.544 192.216 167.524 192.187 167.512 192.154C167.5 192.12 167.496 192.085 167.5 192.05V189.4L165.65 185.46C165.645 185.427 165.645 185.393 165.65 185.36C165.65 185.27 165.67 185.181 165.71 185.1C165.74 185.023 165.792 184.957 165.86 184.91L166.44 184.58C166.55 184.52 166.63 184.51 166.68 184.58C166.721 184.615 166.752 184.66 166.77 184.71L168.04 187.38L169.3 183.25C169.322 183.166 169.356 183.085 169.4 183.01C169.446 182.903 169.527 182.815 169.63 182.76L170.18 182.4Z" fill="#475569"/>
<path d="M176.93 178.5C176.951 178.483 176.978 178.474 177.005 178.474C177.032 178.474 177.059 178.483 177.08 178.5C177.124 178.553 177.145 178.621 177.14 178.69V179.55C177.139 179.64 177.119 179.729 177.08 179.81C177.052 179.885 176.999 179.949 176.93 179.99L174.44 181.43V183.77L176.78 182.42C176.8 182.401 176.827 182.39 176.855 182.39C176.883 182.39 176.91 182.401 176.93 182.42C176.953 182.446 176.969 182.476 176.98 182.509C176.99 182.541 176.994 182.576 176.99 182.61V183.46C176.989 183.553 176.969 183.645 176.93 183.73C176.896 183.802 176.844 183.864 176.78 183.91L174.44 185.26V188C174.439 188.093 174.419 188.185 174.38 188.27C174.352 188.345 174.299 188.409 174.23 188.45L173.6 188.81C173.58 188.829 173.553 188.84 173.525 188.84C173.497 188.84 173.47 188.829 173.45 188.81C173.428 188.784 173.411 188.754 173.4 188.721C173.39 188.689 173.386 188.654 173.39 188.62V180.85C173.392 180.76 173.412 180.672 173.45 180.59C173.478 180.515 173.531 180.451 173.6 180.41L176.93 178.5Z" fill="#475569"/>
<path d="M178.26 186.15C178.24 186.169 178.213 186.18 178.185 186.18C178.157 186.18 178.131 186.169 178.11 186.15C178.088 186.124 178.071 186.094 178.06 186.061C178.05 186.029 178.047 185.994 178.05 185.96V178.19C178.051 178.1 178.072 178.011 178.11 177.93C178.138 177.855 178.191 177.791 178.26 177.75L178.89 177.38C178.911 177.363 178.938 177.354 178.965 177.354C178.992 177.354 179.019 177.363 179.04 177.38C179.063 177.406 179.08 177.436 179.09 177.469C179.1 177.501 179.104 177.536 179.1 177.57V185.34C179.101 185.43 179.08 185.519 179.04 185.6C179.01 185.677 178.958 185.743 178.89 185.79L178.26 186.15Z" fill="#475569"/>
<path d="M184 181.36C184.021 181.343 184.048 181.334 184.075 181.334C184.102 181.334 184.129 181.343 184.15 181.36C184.197 181.412 184.222 181.48 184.22 181.55V182.41C184.217 182.501 184.193 182.59 184.15 182.67C184.12 182.747 184.068 182.813 184 182.86L180.58 184.86C180.559 184.877 180.532 184.886 180.505 184.886C180.478 184.886 180.451 184.877 180.43 184.86C180.408 184.834 180.391 184.804 180.38 184.771C180.37 184.739 180.366 184.704 180.37 184.67V176.9C180.371 176.807 180.391 176.715 180.43 176.63C180.47 176.562 180.52 176.501 180.58 176.45L181.22 176.09C181.24 176.071 181.267 176.06 181.295 176.06C181.323 176.06 181.35 176.071 181.37 176.09C181.392 176.116 181.409 176.146 181.42 176.179C181.43 176.211 181.434 176.246 181.43 176.28V182.87L184 181.36Z" fill="#475569"/>
<path d="M188.55 178.71C188.571 178.691 188.597 178.68 188.625 178.68C188.653 178.68 188.68 178.691 188.7 178.71C188.723 178.736 188.74 178.766 188.75 178.799C188.76 178.831 188.764 178.866 188.76 178.9V179.75C188.76 179.843 188.739 179.935 188.7 180.02C188.672 180.095 188.619 180.159 188.55 180.2L185.13 182.2C185.109 182.217 185.083 182.226 185.055 182.226C185.028 182.226 185.002 182.217 184.98 182.2C184.933 182.148 184.908 182.08 184.91 182.01V174.24C184.925 174.155 184.955 174.074 185 174C185.034 173.928 185.085 173.866 185.15 173.82L188.51 171.88C188.532 171.863 188.558 171.854 188.585 171.854C188.613 171.854 188.639 171.863 188.66 171.88C188.683 171.906 188.7 171.936 188.71 171.969C188.72 172.001 188.724 172.036 188.72 172.07V172.92C188.72 173.013 188.699 173.105 188.66 173.19C188.632 173.265 188.579 173.329 188.51 173.37L186 174.79V176.7L188.35 175.34C188.372 175.323 188.398 175.314 188.425 175.314C188.453 175.314 188.479 175.323 188.5 175.34C188.544 175.393 188.565 175.461 188.56 175.53V176.39C188.561 176.48 188.54 176.569 188.5 176.65C188.47 176.727 188.418 176.793 188.35 176.84L186 178.2V180.2L188.55 178.71Z" fill="#475569"/>
<path d="M191.61 169.91C191.887 169.732 192.203 169.622 192.53 169.59C192.762 169.575 192.992 169.631 193.19 169.75C193.367 169.868 193.506 170.035 193.59 170.23C193.688 170.437 193.742 170.661 193.75 170.89C193.751 170.98 193.73 171.069 193.69 171.15C193.66 171.224 193.607 171.286 193.54 171.33L192.99 171.65C192.9 171.65 192.84 171.71 192.79 171.65C192.739 171.615 192.697 171.567 192.67 171.51C192.599 171.365 192.473 171.254 192.32 171.2C192.196 171.179 192.069 171.184 191.947 171.215C191.824 171.246 191.71 171.302 191.61 171.38C191.47 171.462 191.339 171.559 191.22 171.67C191.1 171.785 190.993 171.912 190.9 172.05C190.813 172.184 190.742 172.328 190.69 172.48C190.635 172.623 190.608 172.776 190.61 172.93C190.6 173.07 190.624 173.211 190.68 173.34C190.707 173.384 190.744 173.421 190.787 173.449C190.83 173.476 190.879 173.494 190.93 173.5C191.086 173.522 191.245 173.522 191.4 173.5L192.12 173.34C192.382 173.273 192.651 173.239 192.92 173.24C193.123 173.238 193.32 173.305 193.48 173.43C193.634 173.558 193.745 173.728 193.8 173.92C193.875 174.187 193.909 174.463 193.9 174.74C193.899 175.108 193.849 175.475 193.75 175.83C193.646 176.198 193.495 176.551 193.3 176.88C193.103 177.221 192.864 177.537 192.59 177.82C192.312 178.105 191.995 178.35 191.65 178.55C191.393 178.709 191.108 178.818 190.81 178.87C190.573 178.922 190.326 178.901 190.1 178.81C189.891 178.72 189.718 178.562 189.61 178.36C189.471 178.102 189.399 177.813 189.4 177.52C189.392 177.426 189.413 177.331 189.46 177.25C189.494 177.178 189.545 177.116 189.61 177.07L190.16 176.76C190.188 176.737 190.22 176.721 190.255 176.712C190.289 176.704 190.325 176.703 190.36 176.71C190.415 176.747 190.457 176.799 190.48 176.86C190.516 176.944 190.559 177.024 190.61 177.1C190.662 177.171 190.736 177.224 190.82 177.25C190.929 177.276 191.042 177.276 191.15 177.25C191.327 177.207 191.496 177.136 191.65 177.04C191.807 176.947 191.958 176.843 192.1 176.73C192.245 176.611 192.373 176.473 192.48 176.32C192.589 176.179 192.68 176.024 192.75 175.86C192.818 175.695 192.852 175.518 192.85 175.34C192.864 175.207 192.824 175.074 192.74 174.97C192.696 174.93 192.643 174.901 192.586 174.884C192.529 174.866 192.469 174.862 192.41 174.87C192.225 174.886 192.041 174.916 191.86 174.96C191.64 174.96 191.39 175.07 191.1 175.12C190.875 175.152 190.646 175.152 190.42 175.12C190.238 175.107 190.065 175.033 189.93 174.91C189.789 174.772 189.691 174.594 189.65 174.4C189.574 174.113 189.54 173.817 189.55 173.52C189.555 173.151 189.609 172.785 189.71 172.43C189.82 172.083 189.964 171.748 190.14 171.43C190.322 171.112 190.54 170.817 190.79 170.55C191.031 170.298 191.308 170.083 191.61 169.91Z" fill="#475569"/>
<path opacity="0.15" d="M190.68 97.17C184.03 101.02 184.03 107.25 190.68 111.09C197.33 114.93 208.13 114.93 214.79 111.09C221.45 107.25 221.44 101.02 214.79 97.17C208.14 93.32 197.34 93.33 190.68 97.17Z" fill="black"/>
<path d="M213.72 105.14C219.6 99.14 223.05 84.14 217.32 79.41H188.15C182.42 84.16 185.87 99.13 191.74 105.13L191.9 105.3L192.1 105.5C192.27 105.66 192.45 105.82 192.64 105.97L192.78 106.08C192.92 106.198 193.067 106.308 193.22 106.41C193.462 106.59 193.716 106.753 193.98 106.9C198.82 109.69 206.65 109.69 211.49 106.9C211.755 106.751 212.013 106.587 212.26 106.41L212.67 106.1L212.84 105.96L213.35 105.51L213.59 105.28L213.72 105.14Z" fill="#EBEBEB"/>
<path d="M190.68 77.49C184.03 81.34 184.03 87.57 190.68 91.41C197.33 95.25 208.13 95.25 214.79 91.41C221.45 87.57 221.44 81.34 214.79 77.49C208.14 73.64 197.34 73.65 190.68 77.49Z" fill="#FAFAFA"/>
<path d="M195.4 80.22C191.35 82.56 191.35 86.35 195.4 88.68C197.673 89.8334 200.186 90.4345 202.735 90.4345C205.284 90.4345 207.797 89.8334 210.07 88.68C214.12 86.35 214.12 82.56 210.07 80.22C207.797 79.0666 205.284 78.4655 202.735 78.4655C200.186 78.4655 197.673 79.0666 195.4 80.22Z" fill="#EBEBEB"/>
<path d="M210.07 84.24C207.797 83.0866 205.284 82.4855 202.735 82.4855C200.186 82.4855 197.673 83.0866 195.4 84.24C194.428 84.7694 193.603 85.5324 193 86.46C193.612 87.3879 194.443 88.1505 195.42 88.68C197.693 89.8334 200.206 90.4345 202.755 90.4345C205.304 90.4345 207.817 89.8334 210.09 88.68C211.067 88.1505 211.898 87.3879 212.51 86.46C211.895 85.5274 211.056 84.764 210.07 84.24Z" fill="#E0E0E0"/>
<path d="M201.66 87.74C200.015 87.5798 198.422 87.0749 196.985 86.2582C195.548 85.4415 194.299 84.3314 193.32 83C192.471 81.8538 191.696 80.6547 191 79.41C188.55 75.08 188.1 69.27 189.37 68.56C190.64 67.85 195.79 73.63 195.79 73.63C195.317 71.1968 195.132 68.7164 195.24 66.24C195.46 62.38 196.4 58.87 197.51 58.17C198.62 57.47 201.08 62.33 202.14 65.85C203.2 69.37 203.84 72.28 203.84 72.28C204.264 69.5285 204.899 66.8138 205.74 64.16C207.02 60.5 208.19 59.67 209.09 60.04C209.99 60.41 210.59 62.11 210.86 66.98C210.954 69.3156 210.88 71.6549 210.64 73.98C210.64 73.98 212.46 71.98 214.47 70.04C216.69 67.92 217.64 67.62 218.27 68.04C218.9 68.46 219.08 71.76 215.65 77.96C214.606 79.8473 213.405 81.6436 212.06 83.33C210.856 84.8533 209.296 86.057 207.517 86.8348C205.739 87.6126 203.796 87.9406 201.86 87.79L201.66 87.74Z" fill="#38BDF8"/>
<path opacity="0.15" d="M201.66 87.74C200.015 87.5798 198.422 87.0749 196.985 86.2582C195.548 85.4415 194.299 84.3314 193.32 83C192.471 81.8538 191.696 80.6547 191 79.41C188.55 75.08 188.1 69.27 189.37 68.56C190.64 67.85 195.79 73.63 195.79 73.63C195.317 71.1968 195.132 68.7164 195.24 66.24C195.46 62.38 196.4 58.87 197.51 58.17C198.62 57.47 201.08 62.33 202.14 65.85C203.2 69.37 203.84 72.28 203.84 72.28C204.264 69.5285 204.899 66.8138 205.74 64.16C207.02 60.5 208.19 59.67 209.09 60.04C209.99 60.41 210.59 62.11 210.86 66.98C210.954 69.3156 210.88 71.6549 210.64 73.98C210.64 73.98 212.46 71.98 214.47 70.04C216.69 67.92 217.64 67.62 218.27 68.04C218.9 68.46 219.08 71.76 215.65 77.96C214.606 79.8473 213.405 81.6436 212.06 83.33C210.856 84.8533 209.296 86.057 207.517 86.8348C205.739 87.6126 203.796 87.9406 201.86 87.79L201.66 87.74Z" fill="black"/>
<path opacity="0.15" d="M196 61.35C195.605 62.9533 195.364 64.5908 195.28 66.24C195.173 68.7164 195.357 71.1968 195.83 73.63L198.39 76.29C198.39 76.29 195.78 67.79 196 61.35Z" fill="black"/>
<path opacity="0.15" d="M217 68.05C216.065 68.5911 215.212 69.2648 214.47 70.05C212.47 71.99 210.64 73.99 210.64 73.99C210.536 75.2225 210.342 76.4458 210.06 77.65C213.81 75.45 217 68.05 217 68.05Z" fill="black"/>
<path opacity="0.15" d="M205.26 69.47C205.662 66.4187 206.431 63.4271 207.55 60.56C206.71 61.6265 206.086 62.8457 205.71 64.15C204.869 66.8038 204.234 69.5185 203.81 72.27L204.49 75.58C204.49 75.58 204.76 72.66 205.26 69.47Z" fill="black"/>
<path opacity="0.15" d="M216.62 138.9C216.839 138.831 217.03 138.694 217.166 138.509C217.302 138.323 217.375 138.1 217.375 137.87C217.375 137.64 217.302 137.417 217.166 137.231C217.03 137.046 216.839 136.909 216.62 136.84L139.47 93.18C138.906 92.8991 138.285 92.7529 137.655 92.7529C137.025 92.7529 136.404 92.8991 135.84 93.18L65.8398 132.81L146.65 178.51L216.62 138.9Z" fill="black"/>
<path d="M210.13 139.28C210.315 139.198 210.475 139.07 210.595 138.906C210.714 138.743 210.788 138.551 210.81 138.35V136.91L141.73 97.85C141.216 97.5983 140.652 97.4675 140.08 97.4675C139.508 97.4675 138.943 97.5983 138.43 97.85L74.8599 133.85L146.58 175.26L210.13 139.28Z" fill="#38BDF8"/>
<path d="M210.13 137.88C211.04 137.36 211.04 136.53 210.13 136.01L141.73 96.45C141.216 96.1983 140.652 96.0675 140.08 96.0675C139.508 96.0675 138.943 96.1983 138.43 96.45L74.8599 132.45L146.58 173.86L210.13 137.88Z" fill="#38BDF8"/>
<path opacity="0.5" d="M210.13 137.88C211.04 137.36 211.04 136.53 210.13 136.01L141.73 96.45C141.216 96.1983 140.652 96.0675 140.08 96.0675C139.508 96.0675 138.943 96.1983 138.43 96.45L74.8599 132.45L146.58 173.86L210.13 137.88Z" fill="black"/>
<path d="M89.4899 123L136.56 96.37C137.07 96.1132 137.634 95.9795 138.205 95.9795C138.776 95.9795 139.34 96.1132 139.85 96.37L202.85 132.85L208.97 129.35V136.46L208.85 136.53C209.06 136.96 208.85 137.45 208.29 137.79L154.38 168.29L82.6299 126.92V119.15L89.4899 123Z" fill="#EBEBEB"/>
<path d="M208.26 130.07C208.45 129.998 208.613 129.87 208.728 129.703C208.844 129.536 208.905 129.338 208.905 129.135C208.905 128.932 208.844 128.734 208.728 128.567C208.613 128.4 208.45 128.272 208.26 128.2L139.85 88.64C139.338 88.3885 138.775 88.2577 138.205 88.2577C137.635 88.2577 137.072 88.3885 136.56 88.64L82.6299 119.15L154.35 160.56L208.26 130.07Z" fill="#FAFAFA"/>
<path d="M154.35 160.56V168.33L82.6299 126.92V119.16L154.35 160.56Z" fill="#E6E6E6"/>
<path d="M153.48 157.53C153.967 157.778 154.527 157.846 155.06 157.72C155.165 157.7 155.266 157.663 155.36 157.61C155.86 157.35 155.8 156.86 155.23 156.54C154.963 156.402 154.67 156.32 154.37 156.3C154.027 156.262 153.681 156.321 153.37 156.47C153.331 156.485 153.297 156.509 153.27 156.54C152.87 156.82 153 157.23 153.48 157.53Z" fill="#263238"/>
<path d="M145.17 163.61C145.128 164.574 145.425 165.522 146.01 166.29C146.295 166.639 146.656 166.919 147.064 167.109C147.473 167.3 147.919 167.396 148.37 167.39C149.175 167.37 149.962 167.139 150.65 166.72C150.791 166.648 150.928 166.567 151.06 166.48L150.13 165.96C147.89 167.19 146.13 166.14 146.13 163.61C146.213 162.217 146.625 160.864 147.333 159.661C148.04 158.458 149.023 157.44 150.2 156.69C150.639 156.367 151.163 156.18 151.707 156.153C152.252 156.127 152.792 156.261 153.26 156.54C153.67 156.831 153.967 157.255 154.1 157.74C154.428 157.825 154.772 157.825 155.1 157.74C154.986 157.219 154.749 156.732 154.41 156.32C154.124 155.976 153.764 155.701 153.357 155.514C152.951 155.327 152.507 155.233 152.06 155.24C151.248 155.262 150.456 155.493 149.76 155.91C148.431 156.728 147.319 157.856 146.52 159.197C145.721 160.537 145.257 162.052 145.17 163.61Z" fill="#475569"/>
<path d="M147.53 156.27L210.81 126V127C210.795 127.282 210.712 127.556 210.57 127.799C210.427 128.043 210.228 128.249 209.99 128.4L147.53 157.72V156.27Z" fill="#38BDF8"/>
<path d="M210.13 126.88C211.04 126.36 211.04 125.53 210.13 125.01L141.73 85.45C141.216 85.1983 140.652 85.0675 140.08 85.0675C139.508 85.0675 138.943 85.1983 138.43 85.45L74.8599 115.38L146.58 156.79L210.13 126.88Z" fill="#38BDF8"/>
<path opacity="0.4" d="M210.13 126.88C211.04 126.36 211.04 125.53 210.13 125.01L141.73 85.45C141.216 85.1983 140.652 85.0675 140.08 85.0675C139.508 85.0675 138.943 85.1983 138.43 85.45L74.8599 115.38L146.58 156.79L210.13 126.88Z" fill="white"/>
<path d="M146.58 175.25L74.8599 133.84V115.35L146.58 156.8V175.25Z" fill="#38BDF8"/>
<path opacity="0.2" d="M146.58 175.25L74.8599 133.84V115.35L146.58 156.8V175.25Z" fill="white"/>
<path d="M132.11 163.39C132.562 163.397 133.01 163.302 133.421 163.112C133.831 162.921 134.193 162.64 134.48 162.29C135.055 161.518 135.348 160.572 135.31 159.61C135.229 158.051 134.773 156.534 133.981 155.188C133.189 153.842 132.084 152.708 130.76 151.88C130.063 151.464 129.271 151.233 128.46 151.21C126.54 151.21 125.26 152.73 125.26 155C125.34 156.558 125.795 158.074 126.588 159.418C127.38 160.762 128.485 161.895 129.81 162.72C130.502 163.139 131.291 163.37 132.1 163.39H132.11Z" fill="#475569"/>
<path d="M134.36 159.61C134.36 162.16 132.54 163.19 130.28 161.92C129.101 161.172 128.118 160.154 127.41 158.951C126.702 157.748 126.291 156.394 126.21 155C126.21 152.45 128.03 151.42 130.28 152.69C131.46 153.437 132.446 154.454 133.156 155.657C133.865 156.861 134.278 158.216 134.36 159.61Z" fill="#F5F5F5"/>
<path d="M119.57 150.33V151.73C119.57 154.53 117.57 155.66 115.09 154.26L85 136.36C83.7051 135.538 82.6238 134.421 81.8449 133.099C81.0661 131.778 80.612 130.291 80.52 128.76V127.36C80.52 124.56 82.52 123.43 85 124.82L115.14 142.73C116.428 143.555 117.501 144.674 118.271 145.996C119.042 147.317 119.487 148.803 119.57 150.33Z" fill="#F5F5F5"/>
<path d="M147.56 174.7V156.33L146.58 156.8V175.25L147.56 174.7Z" fill="#38BDF8"/>
<path d="M137.84 101.71L111.13 114.29C110.46 114.6 110.44 115.15 111.07 115.52L143 134C143.362 134.184 143.759 134.287 144.164 134.305C144.569 134.322 144.974 134.252 145.35 134.1L172.06 121.52C172.73 121.21 172.75 120.66 172.12 120.29L140.18 101.84C139.821 101.653 139.427 101.545 139.024 101.522C138.62 101.5 138.217 101.564 137.84 101.71Z" fill="#FAFAFA"/>
<path d="M172.37 120.45C172.74 120.79 172.63 121.23 172.07 121.45L164.59 125L155.59 119C159.81 117.51 161.11 117.76 165.71 118.83C167.59 119.27 170 119.84 172.37 120.45Z" fill="#E6E6E6"/>
<path d="M165.8 121.76C166.65 122.32 167.41 122.86 168.1 123.36L145.36 134.07C144.985 134.228 144.579 134.304 144.172 134.292C143.765 134.28 143.365 134.18 143 134L140.43 132.52C139.17 131.19 138.18 129.67 138.62 128.15C138.62 128.15 143.47 124.54 141.68 123.36L149.73 119.86C150.73 120.52 153.89 119.2 156.99 118.77C159.87 118.33 164.12 120.63 165.8 121.76Z" fill="#F5F5F5"/>
<path d="M143.23 115.28C142.921 116.005 142.415 116.628 141.77 117.08C141.1 117.51 140.77 118.08 140.14 118.53C138.83 119.53 141.14 121.21 139.03 121.53C137.03 120.8 131.34 121.1 126.92 118.64C124.68 117.4 123.92 115.71 125.17 114.13C123.91 113.04 124.47 112.25 124.72 111.83C125.39 110.832 126.293 110.012 127.35 109.44C128.519 108.713 129.754 108.101 131.04 107.61C132.5 107.07 133.94 106.61 134.61 105.61C134.9 105.2 135.54 105.4 135.93 105.61C136.21 105.785 136.466 105.997 136.69 106.24C136.833 106.42 136.964 106.611 137.08 106.81C137.301 106.556 137.413 106.226 137.39 105.89C137.39 105.62 137.23 105.02 137.79 105.07C138.35 105.167 138.872 105.416 139.3 105.79C139.733 106.128 140.037 106.605 140.16 107.14C140.852 106.892 141.608 106.892 142.3 107.14C142.703 107.241 143.07 107.452 143.361 107.748C143.652 108.045 143.856 108.415 143.95 108.82C143.931 109.123 143.848 109.419 143.706 109.687C143.565 109.956 143.369 110.192 143.13 110.38C143.012 110.501 142.932 110.654 142.9 110.82C142.9 111.01 143.11 111.25 143.19 111.44C143.461 112.043 143.605 112.695 143.612 113.356C143.618 114.017 143.489 114.672 143.23 115.28Z" fill="#64748B"/>
<path d="M130.06 113.08C131.96 113.33 137.33 115.88 140.66 118.08C140.501 118.249 140.327 118.403 140.14 118.54C138.83 119.54 141.26 121.3 139.14 121.54C137.14 120.8 131.59 121.34 127.14 118.88C124.9 117.64 123.36 115.53 125.14 114.06C126.71 113.448 128.375 113.116 130.06 113.08Z" fill="#475569"/>
<path d="M130.06 113.08C132.39 113.97 133.42 116.02 132.4 116.95C133.264 117.242 134.07 117.685 134.78 118.26C134.964 118.395 135.111 118.574 135.21 118.78C135.245 118.879 135.244 118.988 135.207 119.086C135.171 119.185 135.101 119.268 135.01 119.32C134.868 119.405 134.709 119.457 134.544 119.471C134.379 119.484 134.213 119.46 134.06 119.4C133.61 119.3 133.13 119.24 132.65 119.17C132.44 119.15 132.229 119.15 132.02 119.17C131.1 119.17 129.15 119.73 130.02 120.97C130.89 122.21 134.21 122.62 135.73 122.2C137.79 121.64 137.28 120.35 137.28 120.35L142.28 123.81C143.177 124.397 144.21 124.741 145.28 124.81C148.18 125.1 151.95 124.56 155.84 125.15C154.811 123.176 153.118 121.628 151.06 120.78L148.41 119C149.258 118.619 150.071 118.164 150.84 117.64C152.32 116.45 151.49 115.03 150.25 113.92C147.48 111.45 140.01 107.64 137.72 108.18C136.95 108.62 137.49 110.12 136.72 110.67C134.9 112 131.42 111.48 130.06 113.08Z" fill="#FFA8A7"/>
<path d="M137.74 115C137.936 115.116 138.157 115.185 138.384 115.201C138.612 115.216 138.84 115.178 139.05 115.09C139.45 114.9 139.52 114.57 139.2 114.33C139.004 114.213 138.782 114.145 138.555 114.131C138.327 114.117 138.099 114.158 137.89 114.25C137.49 114.39 137.42 114.73 137.74 115Z" fill="#263238"/>
<path d="M142.83 112.07C143.032 112.176 143.257 112.231 143.485 112.231C143.713 112.231 143.938 112.176 144.14 112.07C144.51 111.87 144.53 111.52 144.14 111.31C143.935 111.209 143.709 111.156 143.48 111.156C143.251 111.156 143.025 111.209 142.82 111.31C142.48 111.52 142.47 111.86 142.83 112.07Z" fill="#263238"/>
<path d="M148.41 119C146.885 119.658 145.31 120.193 143.7 120.6C142.287 120.851 140.842 120.851 139.43 120.6C140.539 121.122 141.769 121.336 142.99 121.22C145.136 120.998 147.225 120.395 149.16 119.44L148.41 119Z" fill="#F28F8F"/>
<path d="M139.25 112.8L144.36 114.99L145.54 113.22L139.25 112.8Z" fill="#F28F8F"/>
<path d="M136.84 113.33L135.84 114.55C135.24 114.38 134.99 113.96 135.27 113.62C135.482 113.437 135.74 113.313 136.015 113.262C136.291 113.211 136.576 113.235 136.84 113.33Z" fill="#263238"/>
<path d="M143.29 110.29L140.97 110.58C140.81 110.22 141.19 109.85 141.83 109.77C142.097 109.711 142.376 109.728 142.634 109.82C142.893 109.912 143.12 110.075 143.29 110.29Z" fill="#263238"/>
<path d="M142.81 116.89L145.44 116.3C145.76 116.71 145.44 117.18 144.7 117.3C144.376 117.397 144.032 117.41 143.702 117.339C143.371 117.267 143.064 117.113 142.81 116.89Z" fill="#B16668"/>
<path d="M143.39 117.08C143.318 117.101 143.25 117.135 143.19 117.18C143.66 117.405 144.192 117.465 144.7 117.35H144.78C144.591 117.189 144.364 117.08 144.12 117.032C143.877 116.985 143.625 117.001 143.39 117.08Z" fill="#F28F8F"/>
<path d="M154.33 125C152.2 124.82 147.84 124.47 145.71 124.28C144.346 124.138 143.003 123.836 141.71 123.38L140.9 122.82C140.9 122.82 140.5 122.82 140.9 123.82C141.085 124.689 140.994 125.595 140.64 126.41C140.64 126.41 146.64 128.14 151.64 127.65C151.43 125.17 153.17 125 154.33 125Z" fill="#E6E6E6"/>
<path d="M155.42 124.18C154.229 122.776 152.78 121.615 151.15 120.76L149.15 119.44C149.499 119.396 149.851 119.396 150.2 119.44C151.292 119.661 152.418 119.661 153.51 119.44C156.22 120.31 158.63 121.96 159.19 123.22C157.43 123 155 122.62 155.42 124.18Z" fill="#E6E6E6"/>
<path d="M147.24 131.91C147.53 132.14 147.85 132.43 148.18 132.74L145.36 134.07C144.984 134.228 144.579 134.304 144.172 134.292C143.765 134.28 143.365 134.18 143 134L136.41 130.2C137.099 129.482 137.837 128.814 138.62 128.2C140.47 128.12 144.23 129.51 147.24 131.91Z" fill="#E6E6E6"/>
<path d="M179.47 122L141.21 139.84C140.13 140.35 140.09 141.24 141.12 141.84L147.39 145.48C147.983 145.781 148.633 145.952 149.297 145.982C149.961 146.011 150.623 145.898 151.24 145.65L189.49 127.81C190.58 127.3 190.62 126.41 189.58 125.81L183.31 122.17C182.719 121.869 182.071 121.698 181.408 121.669C180.746 121.639 180.085 121.752 179.47 122Z" fill="#FAFAFA"/>
<path d="M184.54 127.59C183.551 127.447 182.587 127.161 181.68 126.74C181.073 126.184 180.359 125.758 179.58 125.49C179.31 125.38 179.34 125.91 179.47 126.02C180.09 126.516 180.76 126.945 181.47 127.3C181.61 127.69 181.59 128.18 181.07 128.16C180.702 128.086 180.358 127.921 180.07 127.68C179.96 127.61 179.89 127.87 179.97 127.94L180.23 128.34C179.539 128.231 178.883 127.956 178.32 127.54L178.02 127.32C177.9 127.24 177.82 127.53 177.9 127.6L178.04 127.71C178.139 127.795 178.243 127.876 178.35 127.95C178.732 128.231 179.069 128.568 179.35 128.95L179.56 129.22C179.73 129.58 179.72 129.71 179.51 129.6C179.4 129.71 178.42 129.1 178.13 128.94C177.017 128.335 175.968 127.618 175 126.8C174.79 126.62 174.68 127.11 174.84 127.24C175.529 127.802 176.153 128.439 176.7 129.14C177.06 129.59 177.35 130.35 176.43 130.14C176.004 130.006 175.6 129.811 175.23 129.56C175.07 129.46 175.02 129.81 175.06 129.89C175.207 130.23 175.276 130.6 175.26 130.97C174.721 130.837 174.23 130.556 173.84 130.16C173.62 129.93 173.48 130.29 173.54 130.48C173.72 131.11 174.06 132.48 172.97 131.7C172.722 131.525 172.5 131.316 172.31 131.08C172.308 130.789 172.229 130.504 172.082 130.253C171.934 130.002 171.723 129.794 171.47 129.65C171.21 129.48 171.15 129.94 171.2 130.09C171.347 130.467 171.532 130.829 171.75 131.17C171.568 131.907 171.179 132.576 170.63 133.1C170.212 133.51 169.729 133.848 169.2 134.1C168.67 134.38 167.59 134.88 167.97 133.77C168.063 133.504 168.202 133.257 168.38 133.04C168.745 132.784 169.08 132.489 169.38 132.16C169.57 131.97 169.38 131.39 169.05 131.56C168.718 131.748 168.417 131.987 168.16 132.27C167.39 132.76 166.43 133.05 166.33 131.68C166.33 131.68 166.33 131.6 166.33 131.56C167.313 131.255 168.17 130.637 168.77 129.8C168.813 129.744 168.837 129.676 168.837 129.605C168.837 129.534 168.813 129.466 168.77 129.41C167.49 128.52 166.03 130.13 165.89 131.46C165.58 131.554 165.262 131.62 164.94 131.66C164.94 131.66 164.87 131.77 164.94 131.77C165.276 131.774 165.611 131.743 165.94 131.68C165.935 131.75 165.935 131.82 165.94 131.89C165.973 132.223 166.107 132.538 166.323 132.793C166.539 133.049 166.827 133.232 167.15 133.32C167.293 133.34 167.438 133.34 167.58 133.32C167.457 133.639 167.395 133.978 167.4 134.32C167.4 135.54 168.48 135.21 169.29 134.84C170.618 134.165 171.676 133.057 172.29 131.7C172.452 131.944 172.668 132.148 172.921 132.295C173.174 132.443 173.458 132.53 173.75 132.55C174.41 132.49 174.36 131.63 174.21 130.93C174.605 131.213 175.055 131.41 175.53 131.51C175.66 131.51 175.75 131.41 175.75 131.29C175.764 130.894 175.713 130.499 175.6 130.12C176.36 130.52 177.67 131.12 177.6 129.9C177.539 129.494 177.354 129.117 177.07 128.82C177.26 128.95 177.44 129.08 177.63 129.19C178.11 129.48 179.34 130.44 179.96 130.25C180.76 130 180.27 129.25 179.6 128.54C179.955 128.675 180.324 128.769 180.7 128.82C180.84 128.82 180.87 128.58 180.83 128.49C180.806 128.427 180.776 128.367 180.74 128.31C181.38 128.6 182.13 128.68 182.25 127.78C182.261 127.717 182.261 127.653 182.25 127.59C183.058 127.935 183.904 128.184 184.77 128.33C185 128.42 184.89 127.64 184.54 127.59ZM168.27 129.77C167.765 130.426 167.101 130.942 166.34 131.27C166.467 130.851 166.72 130.481 167.066 130.212C167.412 129.943 167.833 129.789 168.27 129.77Z" fill="#475569"/>
<path d="M167 136.44C166.355 135.993 165.687 135.58 165 135.2C164.426 134.379 163.642 133.726 162.73 133.31C162.47 133.19 162.49 133.74 162.6 133.86C162.71 133.98 163.1 134.36 163.37 134.59C163.486 134.697 163.613 134.791 163.75 134.87C163.89 134.96 164 135.08 164.14 135.18C164.28 135.28 164.43 135.42 164.57 135.54C164.643 135.596 164.708 135.664 164.76 135.74C164.857 135.877 164.931 136.029 164.98 136.19C165.011 136.309 165.016 136.434 164.994 136.555C164.971 136.676 164.923 136.79 164.851 136.891C164.779 136.991 164.687 137.074 164.579 137.134C164.472 137.195 164.353 137.231 164.23 137.24C163.893 137.267 163.554 137.23 163.23 137.13C162.958 137.065 162.721 136.896 162.57 136.66C162.5 136.54 162.36 136.59 162.32 136.71C162.28 136.83 162.23 137.06 162.24 137.05C161.95 137.29 161.58 136.82 161.41 136.66C161.24 136.5 161.13 136.96 161.18 137.08V137.4C160.976 137.325 160.784 137.22 160.61 137.09C160.447 136.882 160.259 136.693 160.05 136.53C159.8 136.34 159.75 136.87 159.86 137.01C159.98 137.165 160.114 137.309 160.26 137.44C160.77 138.16 160.5 139.03 159.46 138.87C159.15 138.816 158.852 138.708 158.58 138.55C158.58 138.55 158.58 138.46 158.58 138.42C158.509 137.798 158.254 137.21 157.848 136.733C157.442 136.256 156.903 135.91 156.3 135.74C156.22 135.74 156.17 135.74 156.13 135.82C155.68 136.52 156.38 137.22 156.82 137.72C157.228 138.186 157.695 138.597 158.21 138.94C158.172 139.074 158.098 139.196 157.995 139.29C157.892 139.384 157.765 139.448 157.628 139.474C157.491 139.5 157.349 139.487 157.218 139.437C157.088 139.387 156.974 139.301 156.89 139.19C156.876 139.18 156.86 139.172 156.844 139.169C156.827 139.166 156.809 139.167 156.793 139.172C156.776 139.177 156.761 139.186 156.748 139.197C156.736 139.209 156.726 139.224 156.72 139.24C156.72 139.24 156.64 139.7 156.64 139.71C156.34 140.12 155.58 139.32 155.32 139.09C155.06 138.86 155.04 139.37 155.16 139.5L155.35 140.4C155.016 140.237 154.722 140.001 154.49 139.71L154.44 139.64C154.378 139.564 154.321 139.484 154.27 139.4L154.22 139.34C153.96 139.03 153.82 139.61 153.94 139.81C153.964 139.849 153.99 139.886 154.02 139.92C154.185 140.134 154.288 140.389 154.318 140.658C154.348 140.926 154.303 141.198 154.19 141.443C154.077 141.688 153.899 141.897 153.675 142.048C153.451 142.2 153.19 142.287 152.92 142.3C152.497 142.28 152.087 142.153 151.726 141.931C151.366 141.709 151.068 141.399 150.86 141.03C150.36 140.38 149.02 138.26 150.66 138.03C151.6 137.9 152.56 138.97 153.08 139.55C153.08 139.55 153.17 139.48 153.15 139.44C152.62 138.56 151.04 136.77 149.9 137.84C148.76 138.91 149.9 140.63 150.61 141.52C151.44 142.6 152.79 143.52 154.09 142.52C154.358 142.307 154.567 142.029 154.696 141.712C154.826 141.395 154.872 141.05 154.83 140.71C155.066 140.876 155.325 141.004 155.6 141.09C155.71 141.09 155.79 141.01 155.82 140.92C155.89 140.621 155.89 140.309 155.82 140.01C156.13 140.21 156.46 140.37 156.68 140.26C156.9 140.15 156.87 139.84 156.86 139.59C156.99 139.689 157.143 139.755 157.304 139.781C157.466 139.808 157.631 139.794 157.786 139.742C157.941 139.69 158.081 139.6 158.193 139.481C158.305 139.362 158.387 139.218 158.43 139.06C158.686 139.195 158.958 139.296 159.24 139.36C159.417 139.428 159.607 139.455 159.796 139.44C159.985 139.424 160.168 139.366 160.331 139.27C160.495 139.174 160.634 139.042 160.74 138.885C160.845 138.727 160.914 138.548 160.94 138.36C160.97 138.188 160.97 138.012 160.94 137.84C161.059 137.9 161.183 137.95 161.31 137.99C161.41 137.99 161.49 137.92 161.52 137.83C161.549 137.712 161.569 137.591 161.58 137.47C161.82 137.68 162.11 137.87 162.35 137.73C162.436 137.659 162.496 137.562 162.521 137.454C162.546 137.345 162.536 137.232 162.49 137.13C162.662 137.295 162.877 137.409 163.11 137.46C163.354 137.534 163.606 137.578 163.86 137.59C164.093 137.6 164.325 137.559 164.54 137.47C164.94 137.3 165.36 137.16 165.4 136.65C165.425 136.457 165.425 136.263 165.4 136.07C165.858 136.397 166.385 136.616 166.94 136.71C167.1 136.8 167.1 136.51 167 136.44ZM156.81 137L156.56 136.7C156.37 136.35 156.42 136.26 156.7 136.44C157.103 136.61 157.45 136.891 157.7 137.25C157.966 137.577 158.145 137.965 158.22 138.38C157.689 137.99 157.218 137.525 156.82 137H156.81Z" fill="#475569"/>
<path d="M161 136.77C161 136.77 161.05 136.74 161 136.77V136.77Z" fill="#475569"/>
<path d="M402.51 383.19C402.503 384.036 402.705 384.872 403.097 385.622C403.49 386.372 404.061 387.013 404.76 387.49C409.68 390.24 416.81 390.79 422.69 388.97C429.44 386.88 432.51 383.36 433.82 378.74C435.13 374.12 434.82 368.97 432.9 362.81C431.67 358.81 432.51 353.38 433.02 349.32C433.87 342.41 433.21 338.25 431.02 335.08C429.82 333.339 428.087 332.035 426.081 331.364C424.076 330.693 421.907 330.692 419.9 331.36L421.23 378.83L402.51 383.19Z" fill="black"/>
<path d="M410.83 362.12C410.88 368.35 409.45 370.59 406.72 374.29C404.33 377.53 398.1 382.65 406.07 386.57C412.29 389.62 427.72 389.29 431.84 379.01C435.04 371.01 430.22 363.55 431.41 353.09C432.21 346.09 431.59 333.8 423.41 331.92C418.95 330.92 417.5 330.98 410.52 334.56C405.66 337.04 405.26 338.16 405.45 338.81L406.64 338.27C408.409 337.919 410.242 338.114 411.897 338.828C413.553 339.543 414.952 340.743 415.91 342.27C418.73 346.67 419.07 353.18 416.05 357.47L410.83 362.12Z" fill="#263238"/>
<path d="M359.54 294.39L396.21 285.15C397.99 292.55 399.11 307.15 396.03 318.3C392.95 329.45 382.61 348.07 382.61 348.07L408.05 335.12C408.05 335.12 413.31 334.64 417.2 341.67C423.35 352.77 417.55 363.92 417.55 363.92C417.55 363.92 387.34 381.75 368.17 393.29C349.22 404.69 337.25 408.24 326.9 399.98C320.79 395.1 319.48 386.06 321.9 373.11C325.9 351.11 359.59 294.39 359.59 294.39" fill="#475569"/>
<path d="M368.17 393.29C387.34 381.75 417.55 363.92 417.55 363.92C417.55 363.92 423.35 352.77 417.2 341.67C413.34 334.67 408.2 335.11 408.06 335.11L382.62 348.06C382.62 348.06 387.31 339.6 391.32 330.67C391.48 330.31 391.65 329.95 391.81 329.58V329.53L392.27 328.48V328.43C392.98 326.77 393.65 325.12 394.27 323.53V323.43L394.83 321.9L363 311.55C365 322.98 374.29 333.71 374.29 333.71C374.29 333.71 361.51 367.12 355.22 383.48C350.29 396.33 338.92 400.13 330.72 398.14C323.42 396.37 321.48 390.78 321.25 390.03C321.448 391.049 321.722 392.052 322.07 393.03C322.23 393.5 322.42 393.96 322.61 394.4V394.47C322.8 394.88 323.01 395.29 323.22 395.68L323.33 395.85C323.53 396.2 323.74 396.55 323.97 396.85C324.04 396.95 324.12 397.04 324.19 397.15C324.39 397.42 324.59 397.7 324.81 397.96C325.03 398.22 325.11 398.28 325.25 398.44C325.39 398.6 325.58 398.81 325.76 398.99C326.1 399.32 326.46 399.63 326.83 399.93C328.067 400.923 329.408 401.778 330.83 402.48C331.827 402.978 332.868 403.383 333.94 403.69C334.646 403.898 335.364 404.062 336.09 404.18C337.207 404.362 338.338 404.452 339.47 404.45C340.215 404.449 340.959 404.409 341.7 404.33C343.422 404.139 345.124 403.805 346.79 403.33C348.09 402.98 349.43 402.54 350.79 402.02C351.72 401.67 352.66 401.29 353.63 400.87C358.609 398.635 363.436 396.076 368.08 393.21L368.17 393.29Z" fill="#64748B"/>
<path opacity="0.15" d="M381.42 363.77C388.95 354.12 409.78 340.92 414.36 337.91C411.2 334.91 408.13 335.11 408.06 335.11L395.34 341.58L382.62 348.06C382.62 348.06 370.32 374.67 360.31 378.72C368.597 375.79 375.906 370.614 381.42 363.77Z" fill="black"/>
<path d="M435.28 403.11C435.272 403.958 435.473 404.795 435.866 405.547C436.258 406.298 436.83 406.942 437.53 407.42C442.45 410.17 449.58 410.71 455.46 408.9C462.21 406.81 465.28 403.28 466.59 398.67C467.9 394.06 467.59 388.9 465.67 382.73C464.44 378.73 465.29 373.31 465.79 369.25C466.64 362.33 465.98 358.18 463.79 355C462.586 353.261 460.851 351.958 458.844 351.288C456.838 350.617 454.668 350.614 452.66 351.28L454 398.75L435.28 403.11Z" fill="#263238"/>
<path d="M443.6 382C443.6 388.23 442.22 390.48 439.49 394.17C437.1 397.42 430.87 402.53 438.85 406.45C445.06 409.51 460.49 409.18 464.61 398.9C467.81 390.9 462.99 383.44 464.18 372.97C464.98 365.97 464.36 353.69 456.18 351.81C451.72 350.81 450.27 350.87 443.29 354.44C438.43 356.93 438.03 358.04 438.22 358.7L439.41 358.15C441.18 357.801 443.014 357.997 444.67 358.711C446.327 359.425 447.728 360.624 448.69 362.15C451.5 366.55 451.84 373.06 448.82 377.34L443.6 382Z" fill="#64748B"/>
<path d="M450.9 361.3C446.51 352.92 438.12 355.76 438.12 355.76L419 366.28C419 366.28 430.11 348.08 434.33 337.28C439.33 324.52 441.16 316.96 438.95 298.51L387.34 297.61L359.52 294.36C360.43 320.36 378.85 332.53 378.85 332.53C378.85 332.53 361.59 375.13 358.13 389.53C354.88 403.08 357.18 413.29 363.29 418.17C373.64 426.43 387.06 425.17 406.01 413.73C425.18 402.2 452.01 383.19 452.01 383.19C452.01 383.19 457.2 373.31 450.9 361.3Z" fill="#475569"/>
<path d="M417.84 382C429.5 366 439.96 359.32 445.35 356C443.032 355.133 440.495 355.042 438.12 355.74L419 366.28C419 366.28 406.7 392.89 396.69 396.94C405.108 394.251 412.492 389.035 417.84 382Z" fill="#64748B"/>
<path d="M363.83 204.06C349.83 209.38 349.13 213.38 345.14 225.06C340.58 238.45 333 259.39 329.08 270.57C329.86 276.18 345.14 287.69 351.08 286.32L369.2 245.65L363.83 204.06Z" fill="#E6E6E6"/>
<path d="M434.85 227C444.19 268.14 440.11 306.51 440.11 306.51C429.19 316.27 372.75 319.9 357.81 295.23C365.22 269.35 357.81 261.86 355.46 229.87C354.98 223.48 355.46 209.04 361.71 205.25C368.49 201.13 378.01 199.6 377.76 195.8L402.53 192.32C402.99 199.05 422.53 201.52 422.53 201.52C430.59 207.3 433 218.64 434.85 227Z" fill="#16A34A"/>
<path d="M374.29 174.51C376.73 175.69 379.77 176.84 382.52 176.78C385 176.73 387.39 177.65 389.9 177.78C395.27 178.09 397.01 187.16 401.35 183.94C402.2 178.09 412.35 168.25 411.47 153.05C411.01 145.34 406.71 139.23 399.56 137.12C399.18 135.414 398.351 133.841 397.159 132.563C395.967 131.284 394.455 130.348 392.78 129.85C388.953 128.409 384.858 127.822 380.78 128.13C376.721 128.243 372.691 128.85 368.78 129.94C364.67 131.19 360.71 132.53 356.46 131.07C354.65 130.46 354.29 132.23 354.46 133.64C354.59 134.737 354.873 135.811 355.3 136.83C355.656 137.627 356.06 138.402 356.51 139.15C355.195 138.799 353.995 138.109 353.03 137.15C352.14 136.36 350.43 134.4 349.69 135.61C349.04 136.67 349.12 139.08 349.6 140.45C350.146 142.47 351.176 144.327 352.6 145.86C350.4 146.35 349.46 148.58 349.24 149.97C349.071 151.397 349.235 152.844 349.719 154.198C350.203 155.551 350.994 156.774 352.03 157.77C353.79 159.46 356.13 160.08 358.46 160.57C359.116 160.724 359.734 161.006 360.28 161.4C360.883 162.087 361.403 162.842 361.83 163.65C365.044 168.224 369.32 171.951 374.29 174.51Z" fill="#64748B"/>
<path d="M388.35 143.53C386.13 147.82 385.77 165.08 387.55 177.48C388.327 177.633 389.111 177.74 389.9 177.8C395.27 178.11 396.98 187.6 401.33 184.38C402.18 178.53 412.99 169.61 412.08 154.38C411.62 146.67 407.25 137.87 399.56 137.11C399.56 137.14 391.83 139.1 388.35 143.53Z" fill="#475569"/>
<path d="M388.35 143.53C387.5 150.42 392.54 158.08 397.21 158.76C396.91 162.59 396.94 164.42 397.66 166.93C397.852 167.732 398.191 168.492 398.66 169.17C398.901 169.506 399.214 169.784 399.575 169.984C399.936 170.185 400.338 170.303 400.75 170.33C401.86 170.33 402.27 169.65 402.56 168.76C402.989 167.627 403.486 166.522 404.05 165.45C404.296 164.979 404.602 164.542 404.96 164.15C406.55 162.5 411.41 160.31 414.03 165.47C416.74 170.81 412.64 177.98 408.83 179.68C403.67 182 400.26 177.41 400.26 177.41L402.66 193.09C403.182 196.041 402.628 199.082 401.1 201.66C397.34 207.93 389.53 213.54 385.16 222.53C380.04 215.53 378.05 205.96 378.59 201.29L377.9 194.56C374.696 195.163 371.421 195.287 368.18 194.93C361.95 193.93 359.18 188.61 357.7 183.15C354.82 172.78 354.36 146.94 359.83 144.15C362.5 143.94 366.54 149.15 369.53 149.28C376.91 149.54 380.94 141.64 388.35 143.53Z" fill="#FFA8A7"/>
<path d="M382.8 163.71C382.89 164.174 382.841 164.654 382.658 165.089C382.475 165.525 382.168 165.896 381.774 166.157C381.38 166.418 380.918 166.556 380.446 166.555C379.973 166.553 379.512 166.411 379.12 166.148C378.728 165.884 378.423 165.51 378.244 165.074C378.064 164.637 378.018 164.156 378.111 163.693C378.204 163.23 378.432 162.805 378.767 162.472C379.101 162.138 379.527 161.912 379.99 161.82C380.613 161.699 381.259 161.831 381.786 162.185C382.312 162.539 382.677 163.087 382.8 163.71Z" fill="#263238"/>
<path d="M364.63 164.8C364.675 165.27 364.58 165.743 364.356 166.159C364.133 166.575 363.791 166.915 363.375 167.137C362.958 167.359 362.485 167.453 362.015 167.406C361.545 167.36 361.1 167.175 360.735 166.875C360.37 166.576 360.102 166.175 359.964 165.723C359.827 165.272 359.826 164.789 359.963 164.337C360.099 163.885 360.366 163.484 360.731 163.184C361.095 162.883 361.54 162.698 362.01 162.65C362.323 162.618 362.64 162.649 362.941 162.74C363.243 162.831 363.523 162.98 363.767 163.18C364.01 163.38 364.212 163.626 364.36 163.904C364.508 164.182 364.6 164.486 364.63 164.8Z" fill="#263238"/>
<path d="M377.9 194.56C377.9 194.56 386.9 192.47 390.74 190.14C393.855 188.297 396.322 185.533 397.8 182.23C397.807 183.818 397.478 185.39 396.835 186.843C396.192 188.296 395.25 189.596 394.07 190.66C387.73 196.19 378.19 197.33 378.19 197.33L377.9 194.56Z" fill="#F28F8F"/>
<path d="M373.5 159.15L372.45 175.69L364.28 174.69C365 170.35 369.16 162.69 373.5 159.15Z" fill="#F28F8F"/>
<path d="M378.73 158.08L384.55 159.68C384.748 158.888 384.632 158.049 384.225 157.341C383.819 156.632 383.154 156.109 382.37 155.88C381.986 155.784 381.588 155.766 381.197 155.825C380.806 155.883 380.431 156.019 380.093 156.223C379.755 156.428 379.46 156.697 379.226 157.016C378.992 157.334 378.824 157.696 378.73 158.08Z" fill="#263238"/>
<path d="M358.37 160.52L363.99 158.18C363.857 157.806 363.648 157.464 363.378 157.173C363.108 156.883 362.781 156.65 362.418 156.49C362.055 156.33 361.663 156.246 361.266 156.243C360.869 156.239 360.476 156.316 360.11 156.47C359.358 156.795 358.759 157.396 358.435 158.149C358.111 158.902 358.088 159.75 358.37 160.52Z" fill="#263238"/>
<path d="M381.91 177.89L373 180.55C373.144 181.139 373.406 181.693 373.771 182.178C374.137 182.662 374.597 183.067 375.124 183.367C375.651 183.668 376.234 183.858 376.836 183.925C377.439 183.993 378.05 183.936 378.63 183.76C379.825 183.389 380.832 182.573 381.442 181.48C382.053 180.388 382.22 179.102 381.91 177.89Z" fill="#B16668"/>
<path d="M378.63 183.76C379.443 183.511 380.175 183.051 380.753 182.428C381.331 181.804 381.733 181.039 381.92 180.21C381.781 180.158 381.637 180.121 381.49 180.1C380.315 179.969 379.133 180.273 378.167 180.955C377.201 181.636 376.519 182.649 376.25 183.8C377.032 184.007 377.856 183.993 378.63 183.76Z" fill="#F28F8F"/>
<path d="M386.88 219.42C389.06 214.9 395.07 206.42 398.22 202.11C400.256 199.137 401.718 195.81 402.53 192.3L402.02 188.92C402.02 188.92 402.96 188.5 405.34 192.3C407.72 196.1 413.68 199.71 413.68 199.71C413.68 199.71 408.34 215.57 398.16 222.79C391 215 389.09 217.54 386.88 219.42Z" fill="#E6E6E6"/>
<path d="M382.78 218.71C380.18 212.15 378.59 207.96 378.59 201.11L377.9 194.56C377.087 194.874 376.389 195.429 375.9 196.15C374.315 198.262 372.318 200.031 370.03 201.35C367.91 208.73 370.8 218.2 373.62 222.99C374.63 218.74 378.77 213.26 382.78 218.71Z" fill="#E6E6E6"/>
<path d="M384.73 287.63C385.21 286.9 386.91 288.23 390.39 288.75C394.82 289.41 396.5 289.14 401.22 290.02C403.347 290.575 405.543 290.824 407.74 290.76L391.13 295.4C389.368 294.801 387.707 293.942 386.2 292.85C383.74 290.94 384.12 288.56 384.73 287.63Z" fill="#FFA8A7"/>
<path d="M307.52 247C306.29 246.58 305.52 247.12 305.72 248.21L317.57 304L399.02 332L387.02 276.17C386.817 275.543 386.474 274.97 386.016 274.495C385.559 274.021 384.999 273.656 384.38 273.43L337.86 257.43L334.24 251.93C333.995 251.573 333.646 251.3 333.24 251.15L313.95 244.51C313.48 244.327 312.958 244.328 312.489 244.514C312.02 244.699 311.638 245.055 311.42 245.51L310.67 248.09L307.52 247Z" fill="#38BDF8"/>
<path opacity="0.6" d="M307.52 247C306.29 246.58 305.52 247.12 305.72 248.21L317.57 304L399.02 332L387.02 276.17C386.817 275.543 386.474 274.97 386.016 274.495C385.559 274.021 384.999 273.656 384.38 273.43L337.86 257.43L334.24 251.93C333.995 251.573 333.646 251.3 333.24 251.15L313.95 244.51C313.48 244.327 312.958 244.328 312.489 244.514C312.02 244.699 311.638 245.055 311.42 245.51L310.67 248.09L307.52 247Z" fill="#64748B"/>
<path d="M317.57 303.95L396.26 331L384.33 275.63L303.09 247.71L317.57 303.95Z" fill="#F0F0F0"/>
<path d="M399 331.94L382 279.54C381.732 278.921 381.341 278.363 380.851 277.899C380.361 277.435 379.783 277.074 379.15 276.84L302.34 250.44C301.12 250.02 300.4 250.55 300.75 251.62L317.57 304L399 331.94Z" fill="#38BDF8"/>
<path opacity="0.4" d="M399 331.94L382 279.54C381.732 278.921 381.341 278.363 380.851 277.899C380.361 277.435 379.783 277.074 379.15 276.84L302.34 250.44C301.12 250.02 300.4 250.55 300.75 251.62L317.57 304L399 331.94Z" fill="#64748B"/>
<path d="M306.67 270C303.56 274.36 303.76 277.62 305.39 283C307.02 288.38 311.02 294.55 313.12 296.17C315.22 297.79 319.12 300 323.24 298.87C327.36 297.74 327.1 292.38 328.82 290.02C331.56 286.24 327.34 283.89 323.42 283.63C314.17 283.01 309.42 278.7 309.42 278.7L306.67 270Z" fill="#FFA8A7"/>
<path d="M379.21 296.35C383.206 296.39 387.197 296.055 391.13 295.35L407.74 290.71C415.32 291.05 435.74 274.5 435.74 274.5L424.44 243.02C417.92 228.37 417.71 208.12 422.54 201.45C438.36 205.45 441.71 206.66 445.97 220.36C449.43 231.46 458.16 260.94 461.92 272.26C464.07 278.74 465.14 284.53 458.23 289.15C452 293.31 436 301.59 422.1 306.62C414.66 309.31 410.6 311.72 402.67 313.46C398.851 314.377 394.966 314.992 391.05 315.3C388.25 315.46 384.83 315.73 382.83 313.22C382.39 312.66 381.97 311.55 381.4 311.22C380.98 310.96 380.14 311.01 379.65 310.83C379.127 310.64 378.645 310.351 378.23 309.98C377.454 309.267 376.91 308.337 376.67 307.31C376.44 306.26 376.27 306.4 375.21 306.04C374.265 305.806 373.429 305.256 372.84 304.48C372.42 303.85 372.44 302.48 371.99 302.06C371.54 301.64 369.99 301.62 369.33 301.38C368.33 301.05 366.39 300.1 366.62 298.84C366.81 297.84 368.17 297.26 369.01 296.94C372.18 295.7 375.9 296.32 379.21 296.35Z" fill="#FFA8A7"/>
<path d="M422.5 201.5C419.26 204.74 416.87 215.56 418.89 228.15C420.91 240.74 434.74 274.48 434.74 274.48L420.93 285.15C420.93 285.15 426.35 288.15 428.99 293.25C430.566 296.371 431.065 299.926 430.41 303.36C437.126 300.775 443.704 297.848 450.12 294.59C458.45 290.31 463.32 287.59 464.41 284.06C465.5 280.53 463.17 272.81 460.68 265.06C458.19 257.31 446.42 218 443.09 211.2C440.5 205.9 433.78 203.49 422.5 201.5Z" fill="#E6E6E6"/>
<path d="M420.93 285.15L414.39 288.82C414.39 288.82 420.34 292.17 421.85 297.61C422.733 300.431 423.072 303.393 422.85 306.34L430.38 303.34C430.38 303.34 432.38 298.9 429.68 292.95C427.885 289.314 424.748 286.517 420.93 285.15Z" fill="#E0E0E0"/>
<path d="M378.48 112.84L381.74 106.7L379.12 99.12V94.47L387.12 99.12V103.76L383.66 109.76C383.603 109.853 383.519 109.926 383.42 109.97L378.48 112.84Z" fill="#38BDF8"/>
<path opacity="0.2" d="M378.48 112.84L381.74 106.7L379.12 99.12V94.47L387.12 99.12V103.76L383.66 109.76C383.603 109.853 383.519 109.926 383.42 109.97L378.48 112.84Z" fill="black"/>
<path d="M356.7 46.73C356.743 45.8924 356.984 45.077 357.403 44.3505C357.822 43.6239 358.407 43.0069 359.11 42.55L361.11 41.42C361.857 41.0406 362.682 40.8428 363.52 40.8428C364.357 40.8428 365.183 41.0406 365.93 41.42L404 63.48C404.701 63.9387 405.285 64.5561 405.704 65.2823C406.123 66.0085 406.364 66.823 406.41 67.66V110.1C406.364 110.937 406.123 111.752 405.704 112.478C405.285 113.204 404.701 113.821 404 114.28L402 115.41C401.253 115.789 400.427 115.987 399.59 115.987C398.752 115.987 397.927 115.789 397.18 115.41L382.06 106.68L378.61 112.68C378.56 112.766 378.486 112.835 378.398 112.881C378.309 112.926 378.21 112.945 378.111 112.936C378.012 112.926 377.918 112.889 377.84 112.827C377.762 112.766 377.703 112.684 377.67 112.59L374.03 102.07L359.03 93.37C358.325 92.9136 357.739 92.2969 357.318 91.5705C356.898 90.844 356.655 90.0282 356.61 89.19L356.7 46.73Z" fill="#38BDF8"/>
<path opacity="0.2" d="M356.7 46.73C356.743 45.8924 356.984 45.077 357.403 44.3505C357.822 43.6239 358.407 43.0069 359.11 42.55L361.11 41.42C361.857 41.0406 362.682 40.8428 363.52 40.8428C364.357 40.8428 365.183 41.0406 365.93 41.42L404 63.48C404.701 63.9387 405.285 64.5561 405.704 65.2823C406.123 66.0085 406.364 66.823 406.41 67.66V110.1C406.364 110.937 406.123 111.752 405.704 112.478C405.285 113.204 404.701 113.821 404 114.28L402 115.41C401.253 115.789 400.427 115.987 399.59 115.987C398.752 115.987 397.927 115.789 397.18 115.41L382.06 106.68L378.61 112.68C378.56 112.766 378.486 112.835 378.398 112.881C378.309 112.926 378.21 112.945 378.111 112.936C378.012 112.926 377.918 112.889 377.84 112.827C377.762 112.766 377.703 112.684 377.67 112.59L374.03 102.07L359.03 93.37C358.325 92.9136 357.739 92.2969 357.318 91.5705C356.898 90.844 356.655 90.0282 356.61 89.19L356.7 46.73Z" fill="white"/>
<path d="M406.42 110.1C406.375 110.937 406.133 111.752 405.714 112.478C405.295 113.204 404.712 113.821 404.01 114.28L402.01 115.41C401.331 115.753 400.587 115.949 399.827 115.983C399.066 116.018 398.308 115.89 397.6 115.61C398.73 116.04 399.6 115.4 399.6 114.02V71.58C399.571 70.739 399.326 69.9195 398.89 69.2L405.68 65.28C406.11 66.0019 406.35 66.8204 406.38 67.66L406.42 110.1Z" fill="#38BDF8"/>
<path opacity="0.3" d="M356.77 46.05C357.06 45.05 357.99 44.7 359.1 45.34L397.23 67.4C397.94 67.8431 398.523 68.4634 398.92 69.2L405.71 65.29C405.309 64.553 404.723 63.9328 404.01 63.49L365.9 41.42C365.15 41.0451 364.323 40.8499 363.485 40.8499C362.647 40.8499 361.82 41.0451 361.07 41.42L359.07 42.56C358.472 42.9572 357.96 43.471 357.564 44.0706C357.169 44.6703 356.899 45.3435 356.77 46.05Z" fill="white"/>
<path d="M393.81 71.79L362.59 53.79C362.395 53.652 362.167 53.5697 361.929 53.5521C361.691 53.5345 361.453 53.5822 361.24 53.69C361.041 53.8218 360.881 54.0046 360.778 54.2192C360.674 54.4338 360.63 54.6724 360.65 54.91V86C360.675 86.5381 360.829 87.0622 361.099 87.5285C361.368 87.9948 361.746 88.3897 362.2 88.68L393.42 106.68C393.66 106.831 393.936 106.914 394.22 106.92C394.413 106.921 394.604 106.869 394.77 106.77C394.968 106.64 395.127 106.459 395.231 106.246C395.334 106.033 395.379 105.796 395.36 105.56V74.48C395.335 73.9404 395.182 73.4145 394.912 72.9465C394.642 72.4785 394.264 72.0819 393.81 71.79ZM394.58 105.63C394.592 105.728 394.58 105.827 394.545 105.92C394.51 106.012 394.453 106.094 394.38 106.16C394.285 106.194 394.183 106.204 394.083 106.188C393.984 106.172 393.89 106.132 393.81 106.07L362.59 88.07C362.257 87.847 361.979 87.5509 361.778 87.2043C361.577 86.8577 361.458 86.4697 361.43 86.07V54.89C361.43 54.62 361.5 54.42 361.63 54.35C361.725 54.3185 361.826 54.3102 361.926 54.3259C362.025 54.3415 362.119 54.3807 362.2 54.44L393.42 72.44C393.755 72.6607 394.034 72.9563 394.235 73.3034C394.437 73.6504 394.554 74.0396 394.58 74.44V105.63ZM386.85 81C386.83 80.9517 386.8 80.9082 386.762 80.872C386.724 80.8359 386.679 80.808 386.63 80.79C386.582 80.7702 386.531 80.76 386.48 80.76C386.428 80.76 386.377 80.7702 386.33 80.79L380.05 83.6L372.42 69.3C372.359 69.201 372.262 69.1293 372.15 69.1C372.092 69.0896 372.033 69.0914 371.976 69.1052C371.919 69.1189 371.866 69.1444 371.82 69.18L363.92 75.7C363.875 75.7357 363.839 75.7814 363.814 75.8335C363.79 75.8855 363.778 75.9426 363.78 76V85.79C363.779 85.8595 363.797 85.928 363.832 85.988C363.867 86.0479 363.918 86.097 363.98 86.13L391.64 102.13C391.706 102.145 391.774 102.145 391.84 102.13C391.902 102.144 391.967 102.144 392.03 102.13C392.09 102.095 392.14 102.046 392.175 101.986C392.21 101.927 392.229 101.859 392.23 101.79V94C392.239 93.9504 392.239 93.8995 392.23 93.85L386.85 81ZM391.44 101.08L364.56 85.57V76.18L372 70.09L379.57 84.28L381.35 87.61C381.374 87.6553 381.407 87.6954 381.447 87.7279C381.487 87.7605 381.532 87.7849 381.582 87.7998C381.631 87.8146 381.682 87.8196 381.734 87.8145C381.785 87.8094 381.834 87.7943 381.88 87.77C381.925 87.7457 381.965 87.7127 381.998 87.6729C382.03 87.6332 382.055 87.5873 382.069 87.5381C382.084 87.4889 382.089 87.4373 382.084 87.3861C382.079 87.3349 382.064 87.2853 382.04 87.24L380.46 84.24L386.32 81.62L391.48 94.06L391.44 101.08ZM383.44 76.88C383.801 77.1028 384.215 77.2269 384.64 77.24C384.909 77.2415 385.175 77.1725 385.41 77.04C385.699 76.8456 385.931 76.5767 386.081 76.2617C386.23 75.9467 386.292 75.5972 386.26 75.25C386.214 74.3978 385.967 73.5684 385.54 72.8298C385.112 72.0912 384.516 71.4641 383.8 71C383.527 70.7919 383.199 70.6686 382.857 70.6454C382.514 70.6223 382.173 70.7003 381.874 70.8697C381.576 71.0391 381.334 71.2925 381.178 71.5984C381.023 71.9043 380.961 72.2491 381 72.59C381.039 73.4507 381.282 74.2897 381.71 75.0375C382.138 75.7853 382.737 76.4204 383.46 76.89L383.44 76.88ZM382.14 71.37C382.276 71.3007 382.427 71.2663 382.58 71.27C382.885 71.2847 383.181 71.3777 383.44 71.54C384.063 71.9464 384.582 72.4943 384.954 73.1389C385.326 73.7836 385.54 74.5068 385.58 75.25C385.625 75.4748 385.598 75.7084 385.502 75.9167C385.406 76.1251 385.246 76.2975 385.046 76.4089C384.845 76.5204 384.614 76.565 384.387 76.5364C384.159 76.5079 383.947 76.4075 383.78 76.25C383.158 75.8418 382.641 75.2936 382.269 74.6493C381.897 74.005 381.682 73.2826 381.64 72.54C381.624 72.3187 381.663 72.0969 381.753 71.8944C381.844 71.6919 381.984 71.5152 382.16 71.38L382.14 71.37Z" fill="#FAFAFA"/>
</svg>
