<svg width="500" height="500" viewBox="0 0 500 500" fill="none" xmlns="http://www.w3.org/2000/svg">
<path d="M500 382.4H0V382.65H500V382.4Z" fill="#EBEBEB"/>
<path d="M449.9 398.49H416.78V398.74H449.9V398.49Z" fill="#EBEBEB"/>
<path d="M331.22 401.21H322.53V401.46H331.22V401.21Z" fill="#EBEBEB"/>
<path d="M415.78 389.21H396.59V389.46H415.78V389.21Z" fill="#EBEBEB"/>
<path d="M95.65 390.89H52.46V391.14H95.65V390.89Z" fill="#EBEBEB"/>
<path d="M110.89 390.89H104.56V391.14H110.89V390.89Z" fill="#EBEBEB"/>
<path d="M225.15 395.11H131.47V395.36H225.15V395.11Z" fill="#EBEBEB"/>
<path d="M237 337.8H43.91C42.3973 337.797 40.9475 337.195 39.8788 336.124C38.8102 335.053 38.21 333.603 38.21 332.09V60.66C38.2231 59.156 38.8292 57.718 39.8964 56.6582C40.9637 55.5985 42.4059 55.0026 43.91 55H237C238.514 55 239.967 55.6016 241.038 56.6724C242.108 57.7433 242.71 59.1956 242.71 60.71V332.09C242.71 333.604 242.108 335.057 241.038 336.128C239.967 337.198 238.514 337.8 237 337.8ZM43.91 55.2C42.4636 55.2026 41.0774 55.7791 40.0556 56.8027C39.0338 57.8264 38.46 59.2136 38.46 60.66V332.09C38.46 333.536 39.0338 334.924 40.0556 335.947C41.0774 336.971 42.4636 337.547 43.91 337.55H237C238.447 337.547 239.834 336.971 240.858 335.948C241.881 334.924 242.457 333.537 242.46 332.09V60.66C242.457 59.2127 241.881 57.8255 240.858 56.8021C239.834 55.7787 238.447 55.2026 237 55.2H43.91Z" fill="#EBEBEB"/>
<path d="M453.31 337.8H260.21C258.696 337.797 257.246 337.195 256.175 336.125C255.105 335.054 254.503 333.604 254.5 332.09V60.66C254.516 59.1551 255.124 57.7171 256.193 56.6576C257.262 55.5981 258.705 55.0025 260.21 55H453.31C454.812 55.0052 456.252 55.6022 457.317 56.6617C458.382 57.7212 458.987 59.1578 459 60.66V332.09C459 333.601 458.401 335.05 457.335 336.121C456.268 337.191 454.821 337.795 453.31 337.8ZM260.21 55.2C258.763 55.2026 257.375 55.7787 256.352 56.8021C255.329 57.8255 254.753 59.2127 254.75 60.66V332.09C254.753 333.537 255.329 334.924 256.352 335.948C257.375 336.971 258.763 337.547 260.21 337.55H453.31C454.757 337.547 456.145 336.971 457.168 335.948C458.191 334.924 458.767 333.537 458.77 332.09V60.66C458.767 59.2127 458.191 57.8255 457.168 56.8021C456.145 55.7787 454.757 55.2026 453.31 55.2H260.21Z" fill="#EBEBEB"/>
<path d="M359.66 169.43H407.69L406.95 162.94H358.92L359.66 169.43Z" fill="#F5F5F5"/>
<path d="M363.1 199.79H411.13L410.39 193.3H362.36L363.1 199.79Z" fill="#F5F5F5"/>
<path d="M366.54 230.15H414.57L413.83 223.65H365.8L366.54 230.15Z" fill="#F5F5F5"/>
<path d="M369.97 260.5H418.01L417.27 254.01H369.24L369.97 260.5Z" fill="#F5F5F5"/>
<path d="M373.41 290.86H421.44L420.71 284.36H372.68L373.41 290.86Z" fill="#F5F5F5"/>
<path d="M376.85 321.21H424.88L424.15 314.72H376.12L376.85 321.21Z" fill="#F5F5F5"/>
<path d="M380.29 351.57H428.32L427.59 345.07H379.56L380.29 351.57Z" fill="#F5F5F5"/>
<path d="M428.52 382.45H436.04L409.7 150.02H402.18L428.52 382.45Z" fill="#EBEBEB"/>
<path d="M379.57 382.45H387.1L360.76 150.02H353.24L379.57 382.45Z" fill="#EBEBEB"/>
<path d="M288.51 118.3L412.37 118.3V111.16L288.51 111.16V118.3Z" fill="#F0F0F0"/>
<path d="M311.261 91.7L310.53 90.7C310.404 90.5194 310.237 90.3716 310.042 90.269C309.847 90.1664 309.631 90.1118 309.41 90.11H304.33C304.118 90.1074 303.908 90.1604 303.722 90.2639C303.536 90.3674 303.38 90.5177 303.27 90.7L302.671 91.7C302.56 91.8816 302.404 92.0314 302.218 92.1348C302.033 92.2382 301.823 92.2917 301.61 92.29H298.61C298.44 92.2882 298.272 92.3217 298.115 92.3884C297.958 92.4552 297.817 92.5537 297.701 92.6778C297.584 92.8019 297.495 92.9488 297.438 93.1092C297.381 93.2697 297.358 93.4402 297.37 93.61L298.37 110.61C298.393 110.963 298.547 111.295 298.803 111.539C299.059 111.784 299.397 111.923 299.75 111.93H323.75C323.92 111.932 324.089 111.898 324.245 111.832C324.401 111.765 324.541 111.666 324.657 111.542C324.773 111.418 324.862 111.27 324.917 111.11C324.973 110.95 324.994 110.779 324.981 110.61L323.981 93.61C323.958 93.257 323.804 92.9253 323.548 92.6808C323.292 92.4363 322.954 92.2968 322.601 92.29H312.38C312.16 92.2882 311.944 92.2336 311.749 92.131C311.554 92.0284 311.387 91.8806 311.261 91.7Z" fill="#E0E0E0"/>
<path d="M325 93.91H303C302.549 93.9171 302.116 94.0887 301.783 94.3926C301.45 94.6965 301.239 95.1116 301.19 95.56L299.86 110.26C299.837 110.471 299.86 110.685 299.926 110.887C299.993 111.089 300.102 111.274 300.246 111.43C300.39 111.586 300.565 111.71 300.761 111.793C300.957 111.876 301.168 111.916 301.38 111.91H323.38C323.831 111.903 324.264 111.731 324.597 111.427C324.931 111.124 325.142 110.708 325.19 110.26L326.51 95.56C326.535 95.3493 326.514 95.1358 326.448 94.934C326.383 94.7322 326.275 94.5468 326.132 94.3903C325.989 94.2338 325.814 94.11 325.618 94.0271C325.423 93.9442 325.212 93.9043 325 93.91Z" fill="#E6E6E6"/>
<path d="M351.261 91.7L350.53 90.7C350.404 90.5194 350.237 90.3716 350.042 90.269C349.847 90.1664 349.631 90.1118 349.41 90.11H344.33C344.118 90.1074 343.908 90.1604 343.722 90.2639C343.536 90.3674 343.38 90.5177 343.27 90.7L342.671 91.7C342.56 91.8816 342.404 92.0314 342.218 92.1348C342.033 92.2382 341.823 92.2917 341.61 92.29H338.61C338.44 92.2882 338.272 92.3217 338.115 92.3884C337.958 92.4552 337.817 92.5537 337.701 92.6778C337.584 92.8019 337.495 92.9488 337.438 93.1092C337.381 93.2697 337.358 93.4402 337.37 93.61L338.37 110.61C338.393 110.963 338.547 111.295 338.803 111.539C339.059 111.784 339.397 111.923 339.75 111.93H363.75C363.92 111.932 364.089 111.898 364.245 111.832C364.401 111.765 364.541 111.666 364.657 111.542C364.773 111.418 364.862 111.27 364.917 111.11C364.973 110.95 364.994 110.779 364.981 110.61L363.981 93.61C363.958 93.257 363.804 92.9253 363.548 92.6808C363.292 92.4363 362.954 92.2968 362.601 92.29H352.38C352.16 92.2882 351.944 92.2336 351.749 92.131C351.554 92.0284 351.387 91.8806 351.261 91.7Z" fill="#E0E0E0"/>
<path d="M365 93.91H343C342.549 93.9171 342.116 94.0887 341.783 94.3926C341.45 94.6965 341.239 95.1116 341.19 95.56L339.86 110.26C339.837 110.471 339.86 110.685 339.926 110.887C339.993 111.089 340.102 111.274 340.246 111.43C340.39 111.586 340.565 111.71 340.761 111.793C340.957 111.876 341.168 111.916 341.38 111.91H363.38C363.831 111.903 364.264 111.731 364.597 111.427C364.931 111.124 365.142 110.708 365.19 110.26L366.51 95.56C366.535 95.3493 366.514 95.1358 366.448 94.934C366.383 94.7322 366.275 94.5468 366.132 94.3903C365.989 94.2338 365.814 94.11 365.618 94.0271C365.423 93.9442 365.212 93.9043 365 93.91Z" fill="#E6E6E6"/>
<path d="M391.261 91.7L390.53 90.7C390.404 90.5194 390.237 90.3716 390.042 90.269C389.847 90.1664 389.631 90.1118 389.41 90.11H384.33C384.118 90.1074 383.908 90.1604 383.722 90.2639C383.536 90.3674 383.38 90.5177 383.27 90.7L382.671 91.7C382.56 91.8816 382.404 92.0314 382.218 92.1348C382.033 92.2382 381.823 92.2917 381.61 92.29H378.61C378.44 92.2882 378.272 92.3217 378.115 92.3884C377.958 92.4552 377.817 92.5537 377.701 92.6778C377.584 92.8019 377.495 92.9488 377.438 93.1092C377.381 93.2697 377.358 93.4402 377.37 93.61L378.37 110.61C378.393 110.963 378.547 111.295 378.803 111.539C379.059 111.784 379.397 111.923 379.75 111.93H403.75C403.92 111.932 404.089 111.898 404.245 111.832C404.401 111.765 404.541 111.666 404.657 111.542C404.773 111.418 404.862 111.27 404.917 111.11C404.973 110.95 404.994 110.779 404.981 110.61L403.981 93.61C403.958 93.257 403.804 92.9253 403.548 92.6808C403.292 92.4363 402.954 92.2968 402.601 92.29H392.38C392.16 92.2882 391.944 92.2336 391.749 92.131C391.554 92.0284 391.387 91.8806 391.261 91.7Z" fill="#E0E0E0"/>
<path d="M405 93.91H383C382.549 93.9171 382.116 94.0887 381.783 94.3926C381.45 94.6965 381.239 95.1116 381.19 95.56L379.86 110.26C379.837 110.471 379.86 110.685 379.926 110.887C379.993 111.089 380.102 111.274 380.246 111.43C380.39 111.586 380.565 111.71 380.761 111.793C380.957 111.876 381.168 111.916 381.38 111.91H403.38C403.831 111.903 404.264 111.731 404.597 111.427C404.931 111.124 405.142 110.708 405.19 110.26L406.51 95.56C406.535 95.3493 406.514 95.1358 406.448 94.934C406.383 94.7322 406.275 94.5468 406.132 94.3903C405.989 94.2338 405.814 94.11 405.618 94.0271C405.423 93.9442 405.212 93.9043 405 93.91Z" fill="#E6E6E6"/>
<path d="M214.54 102.42H68.8096V195.12H214.54V102.42Z" fill="#F5F5F5"/>
<path d="M214.54 102.42H68.8096V108.7H214.54V102.42Z" fill="#E0E0E0"/>
<path d="M212.38 105.56C212.38 105.936 212.269 106.303 212.06 106.616C211.851 106.928 211.554 107.172 211.207 107.315C210.86 107.459 210.478 107.497 210.109 107.423C209.741 107.35 209.402 107.169 209.137 106.904C208.871 106.638 208.69 106.299 208.617 105.931C208.543 105.562 208.581 105.18 208.725 104.833C208.869 104.486 209.112 104.189 209.425 103.98C209.737 103.771 210.104 103.66 210.48 103.66C210.984 103.66 211.467 103.86 211.824 104.216C212.18 104.573 212.38 105.056 212.38 105.56Z" fill="#FAFAFA"/>
<path d="M206.09 105.56C206.09 105.936 205.979 106.303 205.77 106.616C205.561 106.928 205.264 107.172 204.917 107.315C204.57 107.459 204.188 107.497 203.819 107.423C203.451 107.35 203.112 107.169 202.847 106.904C202.581 106.638 202.4 106.299 202.327 105.931C202.253 105.562 202.291 105.18 202.435 104.833C202.578 104.486 202.822 104.189 203.134 103.98C203.447 103.771 203.814 103.66 204.19 103.66C204.694 103.66 205.177 103.86 205.534 104.216C205.89 104.573 206.09 105.056 206.09 105.56Z" fill="#FAFAFA"/>
<path d="M199.8 105.56C199.8 105.936 199.688 106.304 199.479 106.617C199.27 106.929 198.973 107.173 198.625 107.316C198.277 107.46 197.894 107.497 197.526 107.423C197.157 107.349 196.818 107.167 196.553 106.9C196.288 106.633 196.107 106.294 196.035 105.925C195.963 105.555 196.002 105.173 196.148 104.826C196.293 104.479 196.538 104.183 196.852 103.975C197.165 103.768 197.534 103.658 197.91 103.66C198.159 103.66 198.406 103.709 198.636 103.805C198.866 103.9 199.074 104.041 199.25 104.217C199.426 104.394 199.565 104.603 199.659 104.834C199.753 105.064 199.801 105.311 199.8 105.56Z" fill="#FAFAFA"/>
<path d="M95.1698 119.59L94.2698 118.34C94.1111 118.116 93.9014 117.933 93.6579 117.806C93.4145 117.679 93.1443 117.612 92.8698 117.61H86.5498C86.2868 117.607 86.0275 117.673 85.7978 117.801C85.568 117.929 85.3756 118.115 85.2398 118.34L84.4898 119.59C84.3508 119.815 84.1565 120 83.9253 120.128C83.6941 120.256 83.4339 120.322 83.1698 120.32H79.3998C79.1851 120.317 78.9724 120.36 78.7755 120.446C78.5786 120.531 78.4021 120.658 78.2575 120.816C78.113 120.975 78.0037 121.163 77.9369 121.367C77.87 121.571 77.8472 121.787 77.8698 122L79.0898 143.11C79.1174 143.55 79.3099 143.963 79.6287 144.267C79.9475 144.571 80.3693 144.743 80.8098 144.75H110.71C110.921 144.752 111.13 144.71 111.324 144.627C111.518 144.544 111.692 144.421 111.836 144.267C111.98 144.113 112.09 143.93 112.16 143.731C112.229 143.532 112.256 143.32 112.24 143.11L111 122C110.972 121.56 110.78 121.147 110.461 120.843C110.142 120.539 109.72 120.367 109.28 120.36H96.5598C96.2838 120.35 96.0139 120.276 95.7724 120.142C95.5308 120.008 95.3243 119.819 95.1698 119.59Z" fill="#E0E0E0"/>
<path d="M112.29 122.33H84.9002C84.3462 122.337 83.8133 122.543 83.3984 122.91C82.9836 123.277 82.7144 123.781 82.6401 124.33L81.0001 142.66C80.9716 142.922 80.9993 143.187 81.0813 143.437C81.1633 143.687 81.2978 143.917 81.4758 144.111C81.6538 144.305 81.8711 144.459 82.1133 144.562C82.3555 144.665 82.6169 144.716 82.8801 144.71H110.27C110.831 144.703 111.37 144.491 111.785 144.113C112.2 143.735 112.461 143.218 112.52 142.66L114.17 124.38C114.199 124.118 114.171 123.853 114.089 123.603C114.007 123.353 113.872 123.123 113.694 122.929C113.517 122.735 113.299 122.581 113.057 122.478C112.815 122.375 112.553 122.324 112.29 122.33Z" fill="#E6E6E6"/>
<path d="M140.78 119.59L139.88 118.34C139.721 118.116 139.511 117.933 139.268 117.806C139.024 117.679 138.754 117.612 138.48 117.61H132.16C131.897 117.607 131.637 117.673 131.408 117.801C131.178 117.929 130.985 118.115 130.85 118.34L130.1 119.59C129.961 119.815 129.766 120 129.535 120.128C129.304 120.256 129.044 120.322 128.78 120.32H125C124.789 120.318 124.58 120.36 124.386 120.443C124.192 120.526 124.017 120.649 123.873 120.803C123.729 120.957 123.619 121.14 123.55 121.339C123.48 121.538 123.453 121.75 123.47 121.96L124.69 143.07C124.717 143.51 124.91 143.923 125.229 144.227C125.547 144.531 125.969 144.703 126.41 144.71H156.31C156.521 144.712 156.73 144.67 156.924 144.587C157.117 144.504 157.292 144.381 157.436 144.227C157.58 144.073 157.69 143.89 157.759 143.691C157.829 143.492 157.856 143.28 157.84 143.07L156.63 122C156.602 121.56 156.41 121.147 156.091 120.843C155.772 120.539 155.35 120.367 154.91 120.36H142.17C141.894 120.35 141.624 120.276 141.382 120.142C141.141 120.008 140.934 119.819 140.78 119.59Z" fill="#E0E0E0"/>
<path d="M157.9 122.33H130.51C129.955 122.335 129.421 122.54 129.006 122.908C128.591 123.275 128.322 123.78 128.25 124.33L126.61 142.61C126.58 142.872 126.606 143.138 126.687 143.389C126.769 143.639 126.903 143.87 127.082 144.064C127.26 144.259 127.478 144.413 127.721 144.515C127.964 144.618 128.226 144.667 128.49 144.66H155.88C156.441 144.653 156.98 144.441 157.395 144.063C157.809 143.685 158.071 143.168 158.13 142.61L159.78 124.33C159.801 124.072 159.768 123.813 159.682 123.569C159.597 123.325 159.461 123.101 159.284 122.913C159.107 122.724 158.892 122.575 158.654 122.475C158.415 122.374 158.158 122.325 157.9 122.33Z" fill="#E6E6E6"/>
<path d="M186.39 119.59L185.49 118.34C185.331 118.116 185.121 117.933 184.878 117.806C184.634 117.679 184.364 117.612 184.09 117.61H177.77C177.507 117.607 177.247 117.673 177.018 117.801C176.788 117.929 176.596 118.115 176.46 118.34L175.7 119.59C175.563 119.815 175.371 120 175.141 120.128C174.911 120.256 174.653 120.322 174.39 120.32H170.62C170.409 120.318 170.2 120.36 170.006 120.443C169.812 120.526 169.637 120.649 169.494 120.803C169.35 120.957 169.239 121.14 169.17 121.339C169.1 121.538 169.073 121.75 169.09 121.96L170.31 143.07C170.337 143.51 170.53 143.923 170.849 144.227C171.167 144.531 171.589 144.703 172.03 144.71H201.93C202.141 144.712 202.35 144.67 202.544 144.587C202.738 144.504 202.912 144.381 203.056 144.227C203.2 144.073 203.31 143.89 203.38 143.691C203.449 143.492 203.476 143.28 203.46 143.07L202.24 122C202.212 121.56 202.02 121.147 201.701 120.843C201.382 120.539 200.96 120.367 200.52 120.36H187.78C187.503 120.352 187.233 120.278 186.991 120.144C186.749 120.01 186.543 119.82 186.39 119.59Z" fill="#E0E0E0"/>
<path d="M203.5 122.33H176.11C175.557 122.337 175.026 122.543 174.612 122.911C174.199 123.278 173.932 123.782 173.86 124.33L172.22 142.61C172.19 142.872 172.216 143.138 172.298 143.389C172.379 143.639 172.514 143.87 172.692 144.064C172.87 144.259 173.088 144.413 173.331 144.515C173.574 144.618 173.836 144.667 174.1 144.66H201.49C202.051 144.653 202.59 144.441 203.005 144.063C203.42 143.685 203.681 143.168 203.74 142.61L205.39 124.33C205.411 124.071 205.378 123.811 205.292 123.566C205.206 123.321 205.069 123.097 204.891 122.909C204.713 122.72 204.497 122.571 204.257 122.471C204.017 122.372 203.76 122.324 203.5 122.33Z" fill="#E6E6E6"/>
<path d="M95.1699 158.21L94.2699 156.97C94.1118 156.745 93.9024 156.56 93.659 156.431C93.4156 156.303 93.1452 156.234 92.8699 156.23H86.5499C86.286 156.228 86.0261 156.295 85.7962 156.425C85.5664 156.555 85.3746 156.743 85.2399 156.97L84.4899 158.21C84.3525 158.436 84.1584 158.622 83.9269 158.75C83.6954 158.878 83.4345 158.944 83.1699 158.94H79.3999C79.1885 158.939 78.9792 158.983 78.7853 159.067C78.5914 159.151 78.4171 159.275 78.2733 159.43C78.1296 159.585 78.0195 159.768 77.9501 159.968C77.8806 160.167 77.8534 160.379 77.8699 160.59L79.0899 181.7C79.1176 182.14 79.31 182.553 79.6289 182.857C79.9477 183.161 80.3695 183.333 80.8099 183.34H110.71C110.92 183.341 111.129 183.298 111.322 183.214C111.515 183.13 111.689 183.008 111.833 182.854C111.976 182.7 112.087 182.518 112.157 182.319C112.227 182.121 112.255 181.91 112.24 181.7L111 160.59C110.975 160.149 110.783 159.733 110.464 159.427C110.145 159.121 109.722 158.947 109.28 158.94H96.5599C96.2869 158.937 96.0185 158.87 95.7768 158.743C95.5351 158.616 95.3271 158.433 95.1699 158.21Z" fill="#E0E0E0"/>
<path d="M112.29 161H84.9002C84.3462 161.007 83.8133 161.213 83.3984 161.58C82.9836 161.947 82.7144 162.451 82.6401 163L81.0001 181.29C80.9716 181.552 80.9993 181.817 81.0813 182.067C81.1633 182.317 81.2978 182.547 81.4758 182.741C81.6538 182.935 81.8711 183.089 82.1133 183.192C82.3555 183.295 82.6169 183.346 82.8801 183.34H110.27C110.831 183.331 111.368 183.118 111.783 182.74C112.197 182.363 112.459 181.847 112.52 181.29L114.17 163C114.191 162.742 114.158 162.483 114.072 162.239C113.987 161.995 113.851 161.771 113.674 161.583C113.497 161.394 113.282 161.245 113.044 161.145C112.806 161.044 112.549 160.995 112.29 161Z" fill="#E6E6E6"/>
<path d="M140.78 158.21L139.88 156.97C139.722 156.745 139.513 156.56 139.269 156.431C139.026 156.303 138.756 156.234 138.48 156.23H132.16C131.896 156.228 131.637 156.295 131.407 156.425C131.177 156.555 130.985 156.743 130.85 156.97L130.1 158.21C129.963 158.436 129.769 158.622 129.537 158.75C129.306 158.878 129.045 158.944 128.78 158.94H125C124.789 158.938 124.579 158.98 124.384 159.064C124.189 159.148 124.014 159.271 123.87 159.426C123.726 159.582 123.616 159.766 123.547 159.966C123.478 160.166 123.452 160.379 123.47 160.59L124.69 181.7C124.718 182.14 124.911 182.553 125.229 182.857C125.548 183.161 125.97 183.333 126.41 183.34H156.31C156.521 183.341 156.729 183.298 156.922 183.214C157.116 183.13 157.29 183.008 157.433 182.854C157.577 182.7 157.687 182.518 157.757 182.319C157.827 182.121 157.856 181.91 157.84 181.7L156.62 160.59C156.595 160.149 156.404 159.733 156.085 159.427C155.766 159.121 155.343 158.947 154.9 158.94H142.17C141.897 158.937 141.629 158.87 141.387 158.743C141.146 158.616 140.938 158.433 140.78 158.21Z" fill="#E0E0E0"/>
<path d="M157.9 161H130.51C129.955 161.005 129.421 161.21 129.006 161.578C128.59 161.945 128.322 162.45 128.25 163L126.61 181.28C126.581 181.542 126.609 181.807 126.691 182.057C126.773 182.307 126.907 182.537 127.085 182.731C127.263 182.925 127.48 183.079 127.723 183.182C127.965 183.285 128.226 183.336 128.49 183.33H155.88C156.44 183.321 156.978 183.108 157.392 182.73C157.806 182.353 158.069 181.837 158.13 181.28L159.78 163C159.801 162.742 159.767 162.483 159.682 162.239C159.596 161.995 159.461 161.771 159.284 161.583C159.106 161.394 158.892 161.245 158.653 161.145C158.415 161.044 158.158 160.995 157.9 161Z" fill="#E6E6E6"/>
<path d="M186.39 158.21L185.49 156.97C185.331 156.745 185.122 156.56 184.879 156.431C184.635 156.303 184.365 156.234 184.09 156.23H177.77C177.506 156.228 177.246 156.295 177.016 156.425C176.786 156.555 176.594 156.743 176.46 156.97L175.7 158.21C175.565 158.437 175.373 158.624 175.143 158.752C174.913 158.88 174.653 158.945 174.39 158.94H170.62C170.408 158.938 170.198 158.98 170.003 159.064C169.808 159.148 169.633 159.271 169.489 159.426C169.345 159.582 169.235 159.766 169.166 159.966C169.098 160.166 169.071 160.379 169.09 160.59L170.31 181.7C170.337 182.14 170.53 182.553 170.848 182.857C171.167 183.161 171.589 183.333 172.03 183.34H201.93C202.14 183.341 202.348 183.298 202.542 183.214C202.735 183.13 202.909 183.008 203.052 182.854C203.196 182.7 203.306 182.518 203.376 182.319C203.446 182.121 203.475 181.91 203.46 181.7L202.24 160.59C202.214 160.149 202.023 159.733 201.704 159.427C201.385 159.121 200.962 158.947 200.52 158.94H187.78C187.506 158.938 187.238 158.871 186.996 158.744C186.754 158.617 186.546 158.434 186.39 158.21Z" fill="#E0E0E0"/>
<path d="M203.5 161H176.11C175.557 161.007 175.025 161.213 174.612 161.581C174.199 161.948 173.932 162.452 173.86 163L172.22 181.28C172.191 181.542 172.219 181.807 172.301 182.057C172.383 182.307 172.518 182.537 172.696 182.731C172.873 182.925 173.091 183.079 173.333 183.182C173.575 183.285 173.837 183.336 174.1 183.33H201.49C202.05 183.321 202.588 183.108 203.003 182.73C203.417 182.353 203.679 181.837 203.74 181.28L205.39 163C205.411 162.741 205.377 162.481 205.291 162.236C205.205 161.991 205.069 161.767 204.891 161.579C204.712 161.39 204.496 161.241 204.257 161.141C204.017 161.042 203.759 160.994 203.5 161Z" fill="#E6E6E6"/>
<path d="M92.2003 348.72C92.2003 348.37 93.3903 313.61 99.0403 308.11C104.54 302.77 110.85 307.91 111.12 308.11L111.68 307.43C111.61 307.37 104.49 301.55 98.4203 307.43C92.5203 313.17 91.3603 347.19 91.3203 348.64L92.2003 348.72Z" fill="#E0E0E0"/>
<path d="M91.7103 355.55C91.7603 355.13 95.5803 313.82 80.4903 296.55L79.8203 297.13C94.6603 314.13 90.8703 355.13 90.8203 355.5L91.7103 355.55Z" fill="#E0E0E0"/>
<path d="M92.2696 351.18L93.1596 351.12C93.1596 350.65 90.1596 304.12 101.27 293.98L100.67 293.33C89.2896 303.79 92.1496 349.25 92.2696 351.18Z" fill="#E0E0E0"/>
<path d="M90.8302 351.15H91.7202C91.7202 349.86 91.3502 319.74 82.7902 314.84C81.9802 314.311 81.0543 313.985 80.0914 313.891C79.1285 313.797 78.1572 313.937 77.2602 314.3C72.0802 316.44 69.5202 325.64 69.4102 326.04L70.2701 326.27C70.2701 326.18 72.8202 317.09 77.6002 315.11C78.3738 314.808 79.2083 314.695 80.0345 314.78C80.8606 314.865 81.6545 315.146 82.3502 315.6C90.4701 320.26 90.8302 350.84 90.8302 351.15Z" fill="#E0E0E0"/>
<path d="M94.1603 351.17L95.0503 351.12C95.0503 350.89 93.7603 327.32 100.12 319.01C101.66 317.01 103.33 316.01 105.12 316.17C109.29 316.46 112.78 322.56 112.82 322.62L113.59 322.18C113.43 321.91 109.82 315.61 105.18 315.28C103.1 315.14 101.18 316.21 99.4303 318.48C92.8503 327 94.1103 350.19 94.1603 351.17Z" fill="#E0E0E0"/>
<path d="M92.7702 354.38C92.9402 352.09 96.9302 298.28 89.9202 288.8L89.2002 289.32C96.0202 298.54 91.9302 353.76 91.8902 354.32L92.7702 354.38Z" fill="#E0E0E0"/>
<path d="M75.3503 319.75C75.3503 319.75 79.5603 321.3 78.3503 324.96C77.1403 328.62 63.8003 334.65 63.8003 334.65C63.8003 334.65 58.2303 329.54 63.3403 321.24C68.4503 312.94 75.2403 317.13 75.3503 319.75Z" fill="#EBEBEB"/>
<path d="M93.6395 312.78C93.6395 312.78 89.1595 312.59 88.8995 316.45C88.6395 320.31 98.6095 331 98.6095 331C98.6095 331 105.71 328.43 104.19 318.8C102.67 309.17 94.7495 310.41 93.6395 312.78Z" fill="#EBEBEB"/>
<path d="M97.4298 294.3C97.4298 294.3 94.4298 293.98 94.6798 292.16C94.9298 290.34 106.29 285.66 113 293.23C113 293.23 108.7 300.61 102.49 300.71C96.2798 300.81 97.4298 294.3 97.4298 294.3Z" fill="#EBEBEB"/>
<path d="M91.8599 289.89C91.8599 289.89 94.5699 291.19 95.3299 289.52C96.0899 287.85 88.9099 277.87 79.2199 280.74C79.2199 280.74 78.9599 289.28 84.2199 292.64C89.4799 296 91.8599 289.89 91.8599 289.89Z" fill="#EBEBEB"/>
<path d="M106 318.28C106 318.28 103.94 316.61 106.16 315.8C108.38 314.99 119.3 315.22 119.42 326.03C119.42 326.03 106.71 328.14 105.13 324.03C103.55 319.92 106 318.28 106 318.28Z" fill="#EBEBEB"/>
<path d="M80.0799 294C80.0799 294 82.1399 292.34 79.9199 291.53C77.6999 290.72 66.7799 291 66.6699 301.78C66.6699 301.78 79.3799 303.9 80.9499 299.78C82.5199 295.66 80.0799 294 80.0799 294Z" fill="#EBEBEB"/>
<path d="M86.7997 302.74C86.7997 302.74 86.9797 300.74 85.3497 301.51C83.7197 302.28 78.0297 308.44 83.9297 314.26C83.9297 314.26 91.8597 308.39 90.4297 305.32C88.9997 302.25 86.7997 302.74 86.7997 302.74Z" fill="#EBEBEB"/>
<path d="M107.84 305.62C107.84 305.62 106.61 304.01 108.42 303.81C110.23 303.61 118.31 305.81 116.42 313.81C116.42 313.81 106.57 313.07 106.15 309.71C105.73 306.35 107.84 305.62 107.84 305.62Z" fill="#EBEBEB"/>
<path d="M74.5599 381.12H108.36L112.01 344.11H70.9199L74.5599 381.12Z" fill="#F0F0F0"/>
<path d="M69.1203 348.19H113.82V340.02H69.1203V348.19Z" fill="#E6E6E6"/>
<path d="M250 427.56C357.083 427.56 443.89 422.492 443.89 416.24C443.89 409.988 357.083 404.92 250 404.92C142.918 404.92 56.1104 409.988 56.1104 416.24C56.1104 422.492 142.918 427.56 250 427.56Z" fill="#F5F5F5"/>
<path d="M181.531 240.12C181.441 243.8 180.771 248.48 177.881 251.12C174.161 254.47 167.881 252.12 165.511 248.26" stroke="#263238" stroke-width="0.706754" stroke-linecap="round" stroke-linejoin="round"/>
<path d="M181.33 268.35L190.33 275.2C190.33 275.2 192.64 275.51 193.28 276.35C193.92 277.19 196.1 283.19 195.62 283.92C195.14 284.65 190.29 285.67 189.41 284.65C188.53 283.63 187.41 278.17 187.48 277.65L175.87 270.08L181.33 268.35Z" fill="#EEC1BB"/>
<path d="M187.55 271.82L184.4 277.21C184.4 277.21 167.89 266.88 165.19 265.21C164.59 264.85 163.37 263.14 161.93 260.64C156.76 251.64 148.72 232.58 156.29 228.8C160.43 226.73 162.82 233.31 162.82 233.31C162.82 233.31 163.3 235.4 164.03 238.31C164.32 239.5 164.65 240.84 165.03 242.24C166.7 248.78 168.86 256.64 169.89 257.57C171.66 259.32 187.55 271.82 187.55 271.82Z" fill="#38BDF8"/>
<path opacity="0.2" d="M161.93 260.67C156.76 251.67 148.72 232.61 156.29 228.83C160.43 226.76 162.82 233.34 162.82 233.34C162.82 233.34 163.3 235.43 164.03 238.34C164.455 239.625 164.789 240.938 165.03 242.27C165.85 247 166.33 254.72 161.93 260.67Z" fill="black"/>
<path d="M138.5 248.37C138.5 248.37 133.12 250.21 124.09 246.09C120.15 244.3 110.61 234.56 110.61 234.56C110.61 234.56 118.81 222.43 141.46 218.05C141.46 218.05 156.34 219.98 167.57 244.22C167.57 244.22 156.57 250.21 138.5 248.37Z" fill="#38BDF8"/>
<path d="M156.401 262.39L163.541 271.19C163.541 271.19 165.711 272.04 166.141 273.01C166.571 273.98 167.251 280.32 166.611 280.92C165.971 281.52 161.021 281.36 160.401 280.15C159.781 278.94 159.981 273.38 160.201 272.86L150.721 262.75L156.401 262.39Z" fill="#EEC1BB"/>
<path d="M155.48 398.45L149.41 399.52L146.93 391.25L144.66 383.66L151.65 381.22L153.68 390.34L155.48 398.45Z" fill="#E4897B"/>
<path opacity="0.2" d="M153.72 390.52L146.96 391.42L144.67 383.74L151.66 381.26L153.72 390.52Z" fill="black"/>
<path d="M114.99 401.24H108.83L107.82 392.57L106.9 384.65L114.22 383.44L114.63 392.86L114.99 401.24Z" fill="#E4897B"/>
<path opacity="0.2" d="M114.63 392.94L107.82 392.64L106.9 384.69L114.22 383.45L114.63 392.94Z" fill="black"/>
<path d="M123.341 413.44C122.361 412.65 121.246 412.043 120.051 411.65C120.051 411.65 116.471 408.11 114.751 397.42L110.071 396.2C109.275 396.009 108.44 396.067 107.678 396.366C106.916 396.664 106.265 397.189 105.811 397.87C105.679 398.056 105.578 398.262 105.511 398.48C105.264 399.641 105.094 400.817 105.001 402C104.74 405.905 104.717 409.822 104.931 413.73H105.781L106.121 406.37C106.241 403.87 108.121 406.8 108.701 409.49C109.281 412.18 110.411 415.05 115.891 415.18C122.301 415.26 125.001 415 123.341 413.44Z" fill="#263238"/>
<path d="M164.201 412.72C163.222 411.928 162.107 411.321 160.911 410.93C160.911 410.93 157.341 407.38 155.621 396.7L150.931 395.48C150.136 395.288 149.302 395.345 148.54 395.641C147.778 395.938 147.126 396.461 146.671 397.14C146.54 397.329 146.442 397.539 146.381 397.76C146.134 398.904 145.967 400.063 145.881 401.23C145.401 404.85 145.811 412.96 145.811 412.96H146.651L146.991 405.6C147.121 403.1 148.991 406.03 149.581 408.72C150.171 411.41 151.291 414.28 156.771 414.41C163.161 414.54 165.821 414.29 164.201 412.72Z" fill="#263238"/>
<path d="M154.29 385.71L144.29 387.47C134.22 362.4 127.07 341.47 122.01 324.12C119.29 314.75 117.01 306.41 115.39 299.02L115.7 326.31V387.78H105.9C82.3304 275.51 79.4504 256.15 108.13 236.78L111.18 234C111.18 234 112.18 239.12 120.85 244.39C128.11 248.8 137.24 249.09 137.24 249.09L130.66 255.35L131.99 265.12L143.5 324.61L154.29 385.71Z" fill="#263238"/>
<g opacity="0.2">
<path opacity="0.2" d="M154.29 385.71L144.29 387.47C134.22 362.4 127.07 341.47 122.01 324.12C119.29 314.75 117.01 306.41 115.39 299.02L115.7 326.31V387.78H105.9C82.3304 275.51 79.4504 256.15 108.13 236.78L111.18 234C111.18 234 112.18 239.12 120.85 244.39C128.11 248.8 137.24 249.09 137.24 249.09L130.66 255.35L131.99 265.12L143.5 324.61L154.29 385.71Z" fill="white"/>
</g>
<path opacity="0.2" d="M122 324.12C119.28 314.75 117.16 306.41 115.53 299.02C115.666 290.268 116.301 281.53 117.43 272.85C117.43 272.85 121.79 306.61 122 324.12Z" fill="black"/>
<path d="M111.181 234C111.181 234 119.501 245 138.501 248.37L134.941 251.32C124.513 249.986 114.955 244.817 108.131 236.82L111.181 234Z" fill="black"/>
<path d="M132.521 247.67C132.44 247.478 132.322 247.305 132.172 247.16C132.023 247.016 131.845 246.904 131.651 246.83L128.651 245.61C128.292 245.449 127.89 245.411 127.508 245.504C127.126 245.596 126.786 245.813 126.541 246.12L125.481 247.62C125.368 247.776 125.297 247.957 125.272 248.147C125.248 248.338 125.271 248.531 125.341 248.71C125.477 249.056 125.743 249.335 126.081 249.49L126.211 249.55L129.211 250.77C129.571 250.925 129.972 250.958 130.353 250.864C130.734 250.77 131.074 250.555 131.321 250.25L132.371 248.76C132.482 248.604 132.554 248.423 132.581 248.234C132.607 248.044 132.586 247.85 132.521 247.67ZM129.521 250.14L126.521 248.92C126.426 248.884 126.341 248.829 126.268 248.758C126.196 248.688 126.139 248.603 126.101 248.51C126.067 248.423 126.056 248.329 126.068 248.236C126.081 248.144 126.116 248.055 126.171 247.98L127.231 246.49C127.346 246.343 127.507 246.239 127.688 246.194C127.869 246.148 128.06 246.165 128.231 246.24L131.231 247.46H131.291C131.455 247.535 131.584 247.672 131.651 247.84C131.684 247.927 131.695 248.021 131.683 248.114C131.671 248.206 131.636 248.294 131.581 248.37L131.421 248.59C131.391 248.564 131.357 248.544 131.321 248.53L130.481 248.18C130.354 248.12 130.209 248.107 130.074 248.143C129.938 248.18 129.82 248.264 129.741 248.38C129.71 248.437 129.692 248.501 129.689 248.566C129.685 248.631 129.696 248.696 129.721 248.757C129.746 248.817 129.784 248.871 129.832 248.915C129.881 248.959 129.938 248.991 130.001 249.01L130.831 249.36L130.491 249.85C130.382 249.983 130.237 250.081 130.074 250.132C129.911 250.184 129.736 250.186 129.571 250.14H129.521Z" fill="white"/>
<path d="M183.461 215.59C184.678 217.122 185.561 218.893 186.052 220.788C186.543 222.683 186.631 224.659 186.311 226.59C185.601 232.42 183.761 240.89 184.781 246.18C185.801 251.47 183.051 256.66 180.551 256.76C180.551 256.76 183.621 254.56 183.491 251.33C183.361 248.1 182.491 242.69 182.491 242.69C182.491 242.69 182.061 248.15 178.491 250.22C174.921 252.29 166.021 248.92 163.171 240.57C160.321 232.22 155.751 229.94 153.481 226.32C151.211 222.7 151.331 219.32 156.841 216.07C162.351 212.82 178.721 209.71 183.461 215.59Z" fill="#263238"/>
<path d="M161.06 240.12L158.45 238.74C156.45 241.79 148.62 238.74 148.62 238.74C145.16 232.62 150.47 224.17 150.47 224.17C151.97 226.94 157.14 226.94 158.24 226.89H158.45L161.06 240.12Z" fill="#EEC1BB"/>
<path opacity="0.2" d="M161.061 240.12L158.451 238.74C156.884 238.092 155.215 237.723 153.521 237.65C153.521 237.65 153.101 231.33 157.451 227.4C157.684 227.188 157.951 227.015 158.241 226.89H158.451L161.061 240.12Z" fill="black"/>
<path d="M178.15 213.56C178.15 213.56 187.63 218.16 184.66 226.26C183.818 228.571 182.337 230.595 180.39 232.098C178.443 233.601 176.109 234.52 173.66 234.75L178.15 213.56Z" fill="#263238"/>
<path d="M174.911 216.81C181.631 220.68 181.731 225.53 178.231 232.74C173.861 241.74 168.401 246.81 161.051 240.12C151.071 231 163.731 210.38 174.911 216.81Z" fill="#EEC1BB"/>
<path d="M174.1 229.86C174.059 231.176 174.177 232.492 174.45 233.78C174.093 233.943 173.699 234.006 173.309 233.96C172.919 233.914 172.549 233.762 172.24 233.52L174.1 229.86Z" fill="#D4827D"/>
<path d="M170.3 227C169.99 227.56 169.44 227.84 169.07 227.64C168.7 227.44 168.64 226.82 168.95 226.26C169.26 225.7 169.8 225.41 170.17 225.61C170.54 225.81 170.6 226.38 170.3 227Z" fill="#263238"/>
<path d="M170 225.51L171.48 225.69C171.48 225.69 170.32 226.39 170 225.51Z" fill="#263238"/>
<path d="M177.321 230.62C177.021 231.18 176.471 231.47 176.101 231.27C175.731 231.07 175.671 230.44 175.971 229.88C176.271 229.32 176.831 229.03 177.201 229.24C177.571 229.45 177.631 230.06 177.321 230.62Z" fill="#263238"/>
<path d="M177 229.18L178.48 229.37C178.48 229.37 177.34 230.06 177 229.18Z" fill="#263238"/>
<path d="M172.9 222.26C172.408 221.887 171.835 221.633 171.228 221.519C170.621 221.404 169.995 221.432 169.4 221.6" stroke="#263238" stroke-width="0.706754" stroke-linecap="round" stroke-linejoin="round"/>
<path d="M178 224.79C178.527 224.938 179.014 225.203 179.423 225.567C179.832 225.931 180.152 226.384 180.36 226.89" stroke="#263238" stroke-width="0.706754" stroke-linecap="round" stroke-linejoin="round"/>
<path d="M161 223.92C161 223.92 167.33 220.2 169.3 215.66C169.3 215.66 185.77 217.88 178.64 231.79C178.64 231.79 186.86 220.52 175.45 213.6C164.04 206.68 154.33 220.4 157.45 228.88C157.44 228.88 157.1 226.25 161 223.92Z" fill="#263238"/>
<path d="M179.58 213.78C179.58 213.78 183.46 215.89 184.06 218.28C184.66 220.67 169.69 223.69 163.4 221.03C163.4 221.03 157.83 224.97 157.4 228.88C157.4 228.88 152.08 223.59 158.07 213.72C164.06 203.85 176.64 206.85 179.58 213.78Z" fill="#263238"/>
<path d="M161.31 226C161.694 225.184 161.739 224.25 161.435 223.401C161.131 222.552 160.504 221.858 159.69 221.47C157.47 220.47 154.01 224.21 158.61 228.22C159.27 228.77 160.11 228.28 161.31 226Z" fill="#EEC1BB"/>
<path d="M184 218.94C184 218.94 176.82 225.75 167.49 223.55" stroke="#263238" stroke-width="0.706754" stroke-linecap="round" stroke-linejoin="round"/>
<path d="M167.491 232.11C167.491 232.11 166.931 234.36 169.621 236.61" stroke="#263238" stroke-width="0.706754" stroke-linecap="round" stroke-linejoin="round"/>
<path opacity="0.2" d="M152.48 248.32C147.829 248.843 143.135 248.86 138.48 248.37C137.585 248.623 136.66 248.754 135.73 248.76C135.3 246.931 135.039 245.067 134.95 243.19C134.68 237.03 136.04 226.09 137.53 224.19C139.02 222.29 145.9 225.09 146.71 230.28C146.71 230.28 147.65 244.28 148.9 245.49C149.62 246.13 151.21 247.36 152.48 248.32Z" fill="black"/>
<path d="M141.461 218.94C130.741 220.5 139.221 253.29 141.461 255.53C143.701 257.77 157.281 271.73 157.281 271.73L161.621 267.24C161.621 267.24 149.161 251.32 147.811 249.32C146.461 247.32 146.731 224 146.731 224C146.731 224 147.001 218.14 141.461 218.94Z" fill="#38BDF8"/>
<path d="M418.85 122.52H226.15V415.91H418.85V122.52Z" fill="#38BDF8"/>
<path opacity="0.6" d="M418.85 122.52H226.15V415.91H418.85V122.52Z" fill="white"/>
<path opacity="0.2" d="M418.85 122.52H344.01V415.91H418.85V122.52Z" fill="black"/>
<path opacity="0.2" d="M337.7 279.51H231.79V385.42H337.7V279.51Z" fill="black"/>
<path opacity="0.2" d="M337.7 279.51H310.95V385.42H337.7V279.51Z" fill="black"/>
<path opacity="0.2" d="M231.79 279.51L262.74 310.45H310.94H337.7V279.51H231.79Z" fill="black"/>
<path opacity="0.2" d="M337.7 164.63H231.79V270.54H337.7V164.63Z" fill="black"/>
<path d="M334.68 164.63H231.79V270.54H334.68V164.63Z" fill="#38BDF8"/>
<path opacity="0.7" d="M334.68 164.63H231.79V270.54H334.68V164.63Z" fill="white"/>
<path d="M297.36 177.3H260.57V186.79H297.36V177.3Z" fill="white"/>
<path opacity="0.1" d="M313.39 224.41L303.65 211.57H301.71V220.29H299.14L302.45 224.41C302.479 224.45 302.497 224.497 302.501 224.546C302.506 224.595 302.496 224.644 302.475 224.689C302.453 224.733 302.42 224.77 302.378 224.797C302.337 224.824 302.289 224.839 302.24 224.84H274.5C274.256 224.837 274.015 224.779 273.797 224.67C273.579 224.561 273.388 224.404 273.24 224.21L270.24 220.29H259.14L267.14 230.29C267.29 230.474 267.479 230.623 267.693 230.725C267.908 230.827 268.142 230.88 268.38 230.88H312.1C312.519 230.88 312.921 230.714 313.217 230.417C313.513 230.121 313.68 229.719 313.68 229.3V225.35C313.685 225.014 313.584 224.684 313.39 224.41Z" fill="black"/>
<path d="M302.34 210.92H250.25C249.394 210.92 248.7 211.614 248.7 212.47V220.05C248.7 220.906 249.394 221.6 250.25 221.6H302.34C303.196 221.6 303.89 220.906 303.89 220.05V212.47C303.89 211.614 303.196 210.92 302.34 210.92Z" fill="#38BDF8"/>
<path opacity="0.2" d="M289.88 210.92H250.25C249.394 210.92 248.7 211.614 248.7 212.47V220.05C248.7 220.906 249.394 221.6 250.25 221.6H289.88C290.736 221.6 291.43 220.906 291.43 220.05V212.47C291.43 211.614 290.736 210.92 289.88 210.92Z" fill="white"/>
<path d="M263.55 183.06C265.567 182.395 267.271 181.015 268.34 179.18C267.607 179.689 267.006 180.365 266.587 181.153C266.167 181.941 265.942 182.818 265.93 183.71C267.71 183.99 268.51 181.27 270.25 180.79L269.65 183.43C270.102 183.477 270.558 183.425 270.988 183.278C271.418 183.132 271.811 182.893 272.14 182.58C272.818 182.596 273.493 182.477 274.125 182.23C274.756 181.983 275.333 181.612 275.82 181.14C275.654 180.86 275.394 180.648 275.086 180.543C274.777 180.439 274.442 180.448 274.14 180.57L279.79 181.1C279.636 181.061 279.475 181.06 279.32 181.096C279.165 181.132 279.022 181.204 278.9 181.307C278.779 181.409 278.684 181.539 278.623 181.686C278.562 181.833 278.537 181.992 278.55 182.15C278.591 182.313 278.673 182.463 278.787 182.585C278.902 182.708 279.045 182.8 279.205 182.853C279.364 182.906 279.534 182.918 279.699 182.888C279.865 182.857 280.019 182.786 280.15 182.68C280.315 182.547 280.435 182.365 280.49 182.16C280.516 181.983 280.57 181.81 280.65 181.65C280.85 181.37 281.26 181.4 281.59 181.45C284.991 181.981 288.446 182.069 291.87 181.71" stroke="#263238" stroke-width="0.5" stroke-linecap="round" stroke-linejoin="round"/>
<path opacity="0.1" d="M337.7 330.02L344.01 337.87V415.91H249.47L226.15 390.21L337.7 330.02Z" fill="black"/>
<path d="M281.64 134.98H232.45V154.17H281.64V134.98Z" fill="#38BDF8"/>
<path d="M248.87 134.98H232.45V154.17H248.87V134.98Z" fill="white"/>
<path d="M245.73 141.68C245.2 144.6 244.89 145.92 245.84 148.1C246.79 150.28 246.28 150.77 245.23 151.1C244.18 151.43 236.23 153.44 235.61 150.55C234.99 147.66 236.13 147.61 235.61 145.25C235.09 142.89 234.77 140.1 235.69 138.75C236.61 137.4 245.73 141.68 245.73 141.68Z" fill="#263238"/>
<path d="M233.37 151.77C235.374 150.5 237.72 149.875 240.09 149.98C242.863 150.086 245.593 150.692 248.15 151.77V153.18H233.37V151.77Z" fill="#38BDF8"/>
<path d="M243.14 150.6C242.995 151.024 242.758 151.41 242.444 151.73C242.131 152.05 241.75 152.296 241.33 152.45C239.95 152.15 237.97 150.17 237.97 150.17C239.14 149.5 238.91 147.55 238.64 146.37C238.575 146.073 238.495 145.779 238.4 145.49L239.87 145.27L242.04 147.19C242.04 147.19 242.04 147.34 241.96 147.57C241.769 148.328 241.731 149.117 241.85 149.89C241.878 149.979 241.918 150.063 241.97 150.14C242.12 150.296 242.303 150.418 242.505 150.498C242.706 150.577 242.923 150.612 243.14 150.6Z" fill="#EEC1BB"/>
<path opacity="0.2" d="M242 150.06C241.756 150.056 241.513 150.016 241.28 149.94C239.89 149.51 239.07 147.57 238.69 146.37C238.592 146.082 238.512 145.788 238.45 145.49L242.01 147.57C241.819 148.328 241.782 149.117 241.9 149.89C241.928 149.95 241.961 150.007 242 150.06Z" fill="black"/>
<path d="M241.62 137.09C241.62 137.09 245.39 136.97 245.79 140.03C245.912 140.901 245.782 141.789 245.418 142.59C245.053 143.39 244.467 144.07 243.73 144.55L241.62 137.09Z" fill="#263238"/>
<path d="M241.13 138.66C243.91 138.77 244.74 140.29 244.83 143.16C244.95 146.74 244.06 149.25 240.62 148.35C235.94 147.13 236.52 138.48 241.13 138.66Z" fill="#EEC1BB"/>
<path d="M243.05 142.93C243.252 143.354 243.508 143.75 243.81 144.11C243.724 144.223 243.608 144.309 243.476 144.361C243.343 144.412 243.199 144.425 243.06 144.4L243.05 142.93Z" fill="#D4827D"/>
<path d="M241.36 142.64C241.36 142.87 241.23 143.05 241.07 143.05C240.91 143.05 240.8 142.86 240.8 142.63C240.8 142.4 240.93 142.22 241.09 142.22C241.25 142.22 241.36 142.41 241.36 142.64Z" fill="#263238"/>
<path d="M241 142.23L241.5 142.04C241.5 142.04 241.27 142.46 241 142.23Z" fill="#263238"/>
<path d="M244.19 142.63C244.19 142.86 244.06 143.05 243.91 143.04C243.76 143.03 243.64 142.85 243.64 142.63C243.64 142.41 243.77 142.22 243.92 142.22C244.07 142.22 244.2 142.41 244.19 142.63Z" fill="#263238"/>
<path d="M243.86 142.23L244.36 142.04C244.36 142.04 244.11 142.45 243.86 142.23Z" fill="#263238"/>
<path d="M240.18 141.22C240.154 141.23 240.125 141.23 240.1 141.22C240.076 141.196 240.063 141.164 240.063 141.13C240.063 141.096 240.076 141.064 240.1 141.04C240.273 140.871 240.484 140.746 240.715 140.675C240.947 140.604 241.191 140.588 241.43 140.63C241.446 140.631 241.463 140.636 241.478 140.644C241.492 140.652 241.505 140.662 241.516 140.676C241.526 140.689 241.534 140.704 241.538 140.72C241.542 140.737 241.542 140.753 241.54 140.77C241.532 140.804 241.513 140.833 241.486 140.854C241.458 140.874 241.424 140.883 241.39 140.88C241.193 140.844 240.991 140.855 240.8 140.912C240.609 140.97 240.434 141.072 240.29 141.21C240.273 141.22 240.255 141.226 240.236 141.227C240.217 141.229 240.198 141.227 240.18 141.22Z" fill="#263238"/>
<path d="M244.52 141.08H244.45C244.313 140.966 244.152 140.883 243.979 140.838C243.806 140.793 243.625 140.787 243.45 140.82C243.418 140.83 243.384 140.827 243.354 140.812C243.324 140.797 243.301 140.771 243.29 140.74C243.28 140.708 243.283 140.674 243.298 140.644C243.313 140.614 243.339 140.591 243.37 140.58C243.582 140.531 243.802 140.532 244.014 140.582C244.225 140.632 244.423 140.731 244.59 140.87C244.611 140.895 244.623 140.927 244.623 140.96C244.623 140.993 244.611 141.025 244.59 141.05C244.57 141.067 244.546 141.078 244.52 141.08Z" fill="#263238"/>
<path d="M237.91 143.22C238.665 142.016 239.099 140.639 239.17 139.22C239.17 139.22 244.76 137.22 244.82 142.78C244.82 142.78 245.55 137.84 240.82 137.55C236.09 137.26 235.26 143.21 237.64 145.39C237.6 145.39 237.06 144.62 237.91 143.22Z" fill="#263238"/>
<path d="M242.11 136.92C242.11 136.92 243.69 136.92 244.27 137.6C244.85 138.28 240.62 141.71 238.18 141.91C238.18 141.91 237.07 144.09 237.6 145.39C237.6 145.39 235.04 144.6 235.3 140.47C235.317 139.685 235.544 138.919 235.958 138.252C236.372 137.586 236.958 137.042 237.654 136.679C238.35 136.317 239.131 136.147 239.915 136.19C240.699 136.232 241.457 136.484 242.11 136.92Z" fill="#263238"/>
<path d="M238.35 143.82C238.332 143.499 238.189 143.198 237.951 142.981C237.714 142.764 237.401 142.649 237.08 142.66C236.21 142.72 235.74 144.47 237.86 144.98C238.16 145.05 238.35 144.76 238.35 143.82Z" fill="#EEC1BB"/>
<path d="M239.9 142.16C239.872 142.159 239.845 142.148 239.824 142.13C239.802 142.112 239.787 142.087 239.78 142.06C239.774 142.044 239.771 142.027 239.773 142.01C239.774 141.994 239.779 141.977 239.788 141.963C239.797 141.948 239.809 141.936 239.823 141.927C239.837 141.918 239.853 141.912 239.87 141.91C240.865 141.598 241.776 141.064 242.535 140.349C243.294 139.633 243.88 138.755 244.25 137.78C244.266 137.755 244.289 137.736 244.317 137.726C244.344 137.716 244.374 137.716 244.402 137.725C244.43 137.734 244.453 137.753 244.47 137.777C244.486 137.802 244.493 137.831 244.49 137.86C244.106 138.875 243.496 139.788 242.706 140.531C241.915 141.275 240.966 141.828 239.93 142.15L239.9 142.16Z" fill="#263238"/>
<path d="M242.75 145.94C242.413 145.907 242.091 145.78 241.822 145.573C241.554 145.366 241.348 145.088 241.23 144.77C241.224 144.738 241.229 144.705 241.246 144.678C241.263 144.65 241.289 144.629 241.32 144.62C241.353 144.611 241.389 144.615 241.419 144.632C241.449 144.649 241.471 144.677 241.48 144.71C241.48 144.71 241.68 145.45 242.81 145.71C242.841 145.719 242.867 145.74 242.884 145.768C242.901 145.795 242.906 145.828 242.9 145.86C242.895 145.875 242.888 145.889 242.878 145.901C242.868 145.914 242.856 145.924 242.842 145.931C242.828 145.939 242.812 145.943 242.797 145.945C242.781 145.946 242.765 145.945 242.75 145.94Z" fill="#263238"/>
<path d="M246.34 148.39C246.313 148.389 246.287 148.38 246.266 148.364C246.244 148.348 246.228 148.326 246.22 148.3C246.161 148.134 246.087 147.973 246 147.82C245.571 146.934 245.468 145.925 245.71 144.97V144.78C245.99 142.55 246.3 140.02 244.54 138.46C244.529 138.449 244.52 138.436 244.514 138.421C244.508 138.406 244.505 138.391 244.505 138.375C244.505 138.359 244.508 138.344 244.514 138.329C244.52 138.314 244.529 138.301 244.54 138.29C244.564 138.267 244.597 138.254 244.63 138.254C244.664 138.254 244.696 138.267 244.72 138.29C246.59 139.93 246.26 142.53 245.98 144.82V145.01C245.76 146.77 245.98 147.23 246.25 147.71C246.335 147.878 246.408 148.052 246.47 148.23C246.477 148.245 246.48 148.261 246.48 148.278C246.48 148.294 246.476 148.31 246.47 148.325C246.463 148.34 246.454 148.354 246.442 148.365C246.43 148.376 246.416 148.384 246.4 148.39H246.34Z" fill="#263238"/>
<path d="M266.07 139.93H252.49C252.172 139.93 251.867 139.804 251.642 139.579C251.416 139.353 251.29 139.048 251.29 138.73C251.29 138.573 251.321 138.417 251.382 138.272C251.442 138.127 251.531 137.996 251.642 137.885C251.754 137.774 251.886 137.687 252.032 137.628C252.177 137.568 252.333 137.539 252.49 137.54H266.07C266.386 137.54 266.688 137.665 266.912 137.889C267.135 138.112 267.26 138.414 267.26 138.73C267.261 138.887 267.232 139.043 267.172 139.188C267.113 139.334 267.026 139.466 266.915 139.578C266.804 139.689 266.673 139.778 266.528 139.838C266.383 139.899 266.227 139.93 266.07 139.93Z" fill="white"/>
<path d="M275.47 145.71H252.23C251.981 145.71 251.742 145.611 251.565 145.435C251.389 145.258 251.29 145.019 251.29 144.77C251.282 144.642 251.3 144.513 251.344 144.392C251.387 144.271 251.455 144.16 251.543 144.066C251.631 143.972 251.738 143.898 251.856 143.847C251.974 143.796 252.101 143.77 252.23 143.77H275.47C275.599 143.77 275.726 143.796 275.844 143.847C275.962 143.898 276.069 143.972 276.157 144.066C276.245 144.16 276.313 144.271 276.356 144.392C276.4 144.513 276.418 144.642 276.41 144.77C276.41 145.019 276.311 145.258 276.135 145.435C275.958 145.611 275.719 145.71 275.47 145.71Z" fill="white"/>
<path d="M271.47 149.33H252.23C251.981 149.33 251.742 149.231 251.565 149.055C251.389 148.878 251.29 148.639 251.29 148.39C251.289 148.266 251.312 148.142 251.359 148.027C251.405 147.912 251.474 147.807 251.562 147.719C251.649 147.63 251.753 147.56 251.868 147.512C251.983 147.465 252.106 147.44 252.23 147.44H271.47C271.594 147.44 271.717 147.465 271.832 147.512C271.947 147.56 272.051 147.63 272.138 147.719C272.226 147.807 272.295 147.912 272.341 148.027C272.388 148.142 272.411 148.266 272.41 148.39C272.41 148.639 272.311 148.878 272.135 149.055C271.958 149.231 271.719 149.33 271.47 149.33Z" fill="white"/>
<path d="M329.61 291.11H272.93L272.35 287.45C272.289 287.048 272.084 286.682 271.773 286.421C271.462 286.16 271.066 286.021 270.66 286.03H255C254.563 286.041 254.14 286.183 253.784 286.435C253.427 286.688 253.155 287.042 253 287.45L251.63 291.11H238.91C237.704 291.133 236.547 291.59 235.652 292.399C234.757 293.208 234.184 294.313 234.04 295.51L226.29 366.51C226.212 367.065 226.255 367.63 226.416 368.167C226.578 368.704 226.854 369.199 227.226 369.618C227.598 370.038 228.057 370.371 228.57 370.596C229.083 370.821 229.64 370.931 230.2 370.92H320.9C322.106 370.895 323.262 370.434 324.155 369.624C325.048 368.813 325.618 367.708 325.76 366.51L333.51 295.51C333.588 294.956 333.545 294.392 333.384 293.857C333.223 293.321 332.948 292.827 332.577 292.409C332.206 291.99 331.748 291.658 331.236 291.433C330.724 291.209 330.169 291.099 329.61 291.11Z" fill="#38BDF8"/>
<path opacity="0.4" d="M329.61 291.11H272.93L272.35 287.45C272.289 287.048 272.084 286.682 271.773 286.421C271.462 286.16 271.066 286.021 270.66 286.03H255C254.563 286.041 254.14 286.183 253.784 286.435C253.427 286.688 253.155 287.042 253 287.45L251.63 291.11H238.91C237.704 291.133 236.547 291.59 235.652 292.399C234.757 293.208 234.184 294.313 234.04 295.51L226.29 366.51C226.212 367.065 226.255 367.63 226.416 368.167C226.578 368.704 226.854 369.199 227.226 369.618C227.598 370.038 228.057 370.371 228.57 370.596C229.083 370.821 229.64 370.931 230.2 370.92H320.9C322.106 370.895 323.262 370.434 324.155 369.624C325.048 368.813 325.618 367.708 325.76 366.51L333.51 295.51C333.588 294.956 333.545 294.392 333.384 293.857C333.223 293.321 332.948 292.827 332.577 292.409C332.206 291.99 331.748 291.658 331.236 291.433C330.724 291.209 330.169 291.099 329.61 291.11Z" fill="black"/>
<path d="M226.44 368.2L229.48 294.38H327.54L322.66 366.58L226.44 368.2Z" fill="#38BDF8"/>
<path opacity="0.7" d="M226.44 368.2L229.48 294.38H327.54L322.66 366.58L226.44 368.2Z" fill="white"/>
<path d="M319.64 371.2H228.93C228.374 371.217 227.82 371.125 227.3 370.927C226.781 370.73 226.305 370.431 225.901 370.049C225.496 369.668 225.172 369.209 224.945 368.702C224.718 368.194 224.594 367.646 224.58 367.09L225.13 300.87C225.174 299.742 225.663 298.677 226.489 297.907C227.315 297.137 228.411 296.725 229.54 296.76H320.25C320.806 296.743 321.36 296.835 321.88 297.033C322.4 297.23 322.875 297.529 323.28 297.911C323.684 298.293 324.009 298.751 324.235 299.258C324.462 299.766 324.586 300.314 324.6 300.87L324.06 367.09C324.011 368.218 323.519 369.282 322.692 370.051C321.865 370.82 320.769 371.233 319.64 371.2Z" fill="#38BDF8"/>
<path opacity="0.25" d="M319.64 371.2H228.93C228.374 371.217 227.82 371.125 227.3 370.927C226.781 370.73 226.305 370.431 225.901 370.049C225.496 369.668 225.172 369.209 224.945 368.702C224.718 368.194 224.594 367.646 224.58 367.09L225.13 300.87C225.174 299.742 225.663 298.677 226.489 297.907C227.315 297.137 228.411 296.725 229.54 296.76H320.25C320.806 296.743 321.36 296.835 321.88 297.033C322.4 297.23 322.875 297.529 323.28 297.911C323.684 298.293 324.009 298.751 324.235 299.258C324.462 299.766 324.586 300.314 324.6 300.87L324.06 367.09C324.011 368.218 323.519 369.282 322.692 370.051C321.865 370.82 320.769 371.233 319.64 371.2Z" fill="black"/>
<path opacity="0.15" d="M283.24 296.76L285.08 363.94H235.45L232.57 296.76H283.24Z" fill="black"/>
<path d="M268.58 288.86H211.9L210.9 285.22C210.794 284.813 210.555 284.453 210.222 284.196C209.889 283.939 209.481 283.8 209.06 283.8H193.43C193.009 283.8 192.601 283.939 192.268 284.196C191.935 284.453 191.696 284.813 191.59 285.22L190.59 288.86H177.88C176.718 288.86 175.604 289.321 174.783 290.143C173.961 290.964 173.5 292.078 173.5 293.24V363.88C173.5 365.042 173.961 366.156 174.783 366.977C175.604 367.799 176.718 368.26 177.88 368.26H268.58C269.743 368.26 270.858 367.799 271.681 366.978C272.504 366.157 272.967 365.043 272.97 363.88V293.24C272.967 292.077 272.504 290.963 271.681 290.142C270.858 289.321 269.743 288.86 268.58 288.86Z" fill="#38BDF8"/>
<path opacity="0.15" d="M268.58 288.86H211.9L210.9 285.22C210.794 284.813 210.555 284.453 210.222 284.196C209.889 283.939 209.481 283.8 209.06 283.8H193.43C193.009 283.8 192.601 283.939 192.268 284.196C191.935 284.453 191.696 284.813 191.59 285.22L190.59 288.86H177.88C176.718 288.86 175.604 289.321 174.783 290.143C173.961 290.964 173.5 292.078 173.5 293.24V363.88C173.5 365.042 173.961 366.156 174.783 366.977C175.604 367.799 176.718 368.26 177.88 368.26H268.58C269.743 368.26 270.858 367.799 271.681 366.978C272.504 366.157 272.967 365.043 272.97 363.88V293.24C272.967 292.077 272.504 290.963 271.681 290.142C270.858 289.321 269.743 288.86 268.58 288.86Z" fill="black"/>
<path d="M173.831 365.56L168.811 292.11H266.871L269.871 363.94L173.831 365.56Z" fill="#38BDF8"/>
<path opacity="0.8" d="M173.831 365.56L168.811 292.11H266.871L269.871 363.94L173.831 365.56Z" fill="white"/>
<path d="M267.35 368.54H176.65C175.491 368.551 174.368 368.143 173.486 367.391C172.604 366.64 172.023 365.596 171.85 364.45L165.16 298.57C165.113 298.029 165.183 297.484 165.366 296.972C165.549 296.461 165.84 295.995 166.22 295.606C166.6 295.218 167.059 294.916 167.567 294.722C168.074 294.527 168.618 294.445 169.16 294.48H259.87C261.028 294.468 262.151 294.875 263.032 295.627C263.912 296.379 264.491 297.424 264.66 298.57L271.35 364.45C271.397 364.991 271.327 365.536 271.144 366.048C270.961 366.559 270.669 367.025 270.289 367.414C269.909 367.802 269.45 368.104 268.943 368.298C268.435 368.493 267.892 368.575 267.35 368.54Z" fill="#38BDF8"/>
<path d="M243.72 344.26L337.7 330.02V381.19L250.6 397.86L243.72 344.26Z" fill="#38BDF8"/>
<path opacity="0.5" d="M243.72 344.26L337.7 330.02V381.19L250.6 397.86L243.72 344.26Z" fill="white"/>
<path opacity="0.7" d="M243.72 344.26L245.04 345.71L337.7 331.46V330.02L243.72 344.26Z" fill="white"/>
<path opacity="0.2" d="M259.14 341.93L263.38 342.89L266.87 394.75L250.6 397.86L243.72 344.26L259.14 341.93Z" fill="black"/>
<path d="M259.14 404.6H153.24L146.58 300.27H252.49L259.14 404.6Z" fill="#38BDF8"/>
<path opacity="0.7" d="M259.14 404.6H153.24L146.58 300.27H252.49L259.14 404.6Z" fill="white"/>
<path opacity="0.2" d="M259.14 404.6H256.13L249.47 300.27H252.49L259.14 404.6Z" fill="black"/>
<path d="M213.54 322.11H176.75L176.16 312.75H212.95L213.54 322.11Z" fill="white"/>
<path opacity="0.1" d="M231.94 359.16L221.39 346.51H219.45L220 355.1H217.43L220.99 359.16C221.023 359.195 221.044 359.24 221.053 359.287C221.061 359.335 221.055 359.384 221.036 359.429C221.017 359.473 220.986 359.511 220.945 359.538C220.905 359.565 220.858 359.579 220.81 359.58H193.07C192.821 359.577 192.576 359.52 192.352 359.413C192.127 359.306 191.929 359.151 191.77 358.96L188.55 355.1H177.43L186.09 364.97C186.247 365.153 186.442 365.3 186.661 365.402C186.88 365.504 187.118 365.557 187.36 365.56H231.09C231.292 365.563 231.492 365.524 231.679 365.446C231.865 365.368 232.033 365.252 232.172 365.105C232.311 364.958 232.419 364.784 232.487 364.594C232.555 364.404 232.584 364.202 232.57 364L232.32 360.11C232.294 359.762 232.161 359.43 231.94 359.16Z" fill="black"/>
<path d="M220.71 356.4H168.62C168.204 356.396 167.806 356.237 167.502 355.954C167.199 355.671 167.012 355.284 166.98 354.87L166.5 347.4C166.486 347.203 166.513 347.005 166.58 346.819C166.647 346.633 166.752 346.463 166.889 346.319C167.025 346.176 167.19 346.063 167.373 345.988C167.555 345.912 167.752 345.875 167.95 345.88H220C220.414 345.883 220.813 346.041 221.118 346.322C221.423 346.603 221.612 346.987 221.65 347.4L222.12 354.87C222.135 355.065 222.11 355.26 222.046 355.445C221.982 355.629 221.88 355.799 221.748 355.942C221.616 356.086 221.455 356.201 221.277 356.279C221.098 356.358 220.905 356.399 220.71 356.4Z" fill="#38BDF8"/>
<path opacity="0.2" d="M208.25 356.4H168.62C168.204 356.396 167.806 356.237 167.502 355.954C167.199 355.671 167.012 355.284 166.98 354.87L166.5 347.4C166.486 347.203 166.513 347.005 166.58 346.819C166.647 346.633 166.752 346.463 166.889 346.319C167.025 346.176 167.19 346.063 167.373 345.988C167.555 345.912 167.752 345.875 167.95 345.88H207.58C207.994 345.881 208.393 346.038 208.696 346.32C209 346.601 209.187 346.987 209.22 347.4L209.7 354.87C209.714 355.068 209.686 355.266 209.619 355.453C209.552 355.639 209.447 355.81 209.311 355.954C209.175 356.098 209.01 356.212 208.827 356.288C208.645 356.365 208.448 356.403 208.25 356.4Z" fill="white"/>
<path d="M179.85 317.44C180.537 317.666 181.277 317.675 181.969 317.466C182.662 317.257 183.273 316.839 183.72 316.27C183.72 317.06 183.49 318.08 183.54 318.98C184.247 318.27 184.822 317.441 185.24 316.53C184.5 318.16 186.44 318.53 187.58 317.99C187.958 317.817 188.282 317.544 188.517 317.201C188.751 316.857 188.887 316.455 188.91 316.04C188.91 315.78 188.8 315.46 188.54 315.41C188.28 315.36 188.08 315.58 187.95 315.79C187.49 316.5 186.95 318.46 188.07 318.7C189.19 318.94 190.49 317.05 190.79 316.28C190.487 316.432 190.236 316.672 190.071 316.968C189.905 317.264 189.831 317.602 189.86 317.94C191.02 317.89 192.61 318.17 192.68 316.61C192.58 318.67 194.54 317.97 195.26 316.61C195.03 317.34 196.12 317.71 196.88 317.7L207.09 317.47" stroke="#263238" stroke-width="0.5" stroke-linecap="round" stroke-linejoin="round"/>
</svg>
